<?xml version="1.0" standalone="no"?>
<!DOCTYPE svg PUBLIC "-//W3C//DTD SVG 1.1//EN" "http://www.w3.org/Graphics/SVG/1.1/DTD/svg11.dtd" >
<svg>
<metadata>
Created by FontForge 20090914 at Tue Apr 27 22:24:02 2021
 By www-data
(c)Copyright ParaGraph International, 1992.
</metadata>
<defs>
<font id="FuturisC-BoldItalic" horiz-adv-x="596" >
  <font-face 
    font-family="FuturisCTT"
    font-weight="700"
    font-style="italic"
    font-stretch="normal"
    units-per-em="1000"
    panose-1="2 13 9 3 4 0 0 2 0 2"
    ascent="800"
    descent="-200"
    x-height="483"
    cap-height="700"
    bbox="-39 -263 1288 901.002"
    underline-thickness="40"
    underline-position="-60"
    slope="7"
    unicode-range="U+0020-U+F002"
  />
<missing-glyph horiz-adv-x="450" 
d="M50 0v512h400v-512h-400zM58 8h384v496h-384v-496z" />
    <glyph glyph-name=".notdef" horiz-adv-x="450" 
d="M50 0v512h400v-512h-400zM58 8h384v496h-384v-496z" />
    <glyph glyph-name="space" unicode=" " horiz-adv-x="233" 
 />
    <glyph glyph-name="space" unicode="&#x45d;" horiz-adv-x="233" 
 />
    <glyph glyph-name="space" unicode="&#x40d;" horiz-adv-x="233" 
 />
    <glyph glyph-name="space" unicode="&#xa0;" horiz-adv-x="233" 
 />
    <glyph glyph-name="exclam" unicode="!" horiz-adv-x="330" 
d="M77 231l58 469h188l-58 -469h-188zM161 186c28.667 0 51.332 -8.50098 67.999 -25.501s25.334 -38.5 26.001 -64.5c-0.666992 -33.333 -11 -60.5 -31 -81.5s-46.333 -31.833 -79 -32.5c-29.333 0 -52.333 8.33301 -69 25s-25 38.334 -25 65.001c0 32.667 10 59.667 30 81
s46.667 32.333 80 33z" />
    <glyph glyph-name="quotedbl" unicode="&#x22;" horiz-adv-x="408" 
d="M240 700l-54 -280h-86l14 280h126zM422 700l-54 -280h-86l14 280h126z" />
    <glyph glyph-name="numbersign" unicode="#" horiz-adv-x="680" 
d="M442 0h-120l55 198h-112l-55 -198h-120l55 198h-113l29 100h113l32 118h-113l29 100h113l53 184h120l-53 -184h112l53 184h120l-53 -184h114l-29 -100h-114l-32 -118h114l-29 -100h-114zM406 298l32 118h-112l-32 -118h112z" />
    <glyph glyph-name="dollar" unicode="$" horiz-adv-x="558" 
d="M558 651l-88.0078 -146.997c-7.33301 8 -15.166 15.333 -23.499 22s-17.166 13 -26.499 19c-13.333 7.33301 -25.833 12.666 -37.5 15.999s-23.5 5 -35.5 5c-13.333 0 -24.5 -1.66699 -33.5 -5s-16.5 -8 -22.5 -14c-6.66699 -6 -11.667 -12.833 -15 -20.5
s-5 -15.834 -5 -24.501c-0.666992 -14.667 4.33301 -26.334 15 -35.001s30.334 -16.334 59.001 -23.001c33.333 -8.66699 60 -17.167 80 -25.5s37.667 -18.166 53 -29.499c19.333 -16 33.833 -34.5 43.5 -55.5s14.5 -47.833 14.5 -80.5
c0 -43.333 -8.16699 -83.333 -24.5 -120s-39.5 -67 -69.5 -91c-19.333 -15.333 -41.666 -28 -66.999 -38s-51.333 -17 -78 -21l-12 -99h-91l12 99c-24 3.33301 -46.5 8.5 -67.5 15.5s-42.833 17.833 -65.5 32.5c-16 9.33301 -30.167 18.833 -42.5 28.5
s-23.833 20.5 -34.5 32.5l111 149c9.33301 -12 19.5 -23.333 30.5 -34s23.167 -20 36.5 -28c16 -11.333 31.333 -19.333 46 -24s30 -7 46 -7c11.333 0 21.833 1.33301 31.5 4s18.167 7.33398 25.5 14.001c6.66699 6 11.834 13.167 15.501 21.5s5.5 18.5 5.5 30.5
c-0.666992 16.667 -6.16699 30 -16.5 40s-28.5 19 -54.5 27c-44 12 -74 21.667 -90 29s-30 16 -42 26c-20 15.333 -35 33.333 -45 54s-15 45.667 -15 75c0 42.667 9 82.167 27 118.5s46.333 66.833 85 91.5c17.333 11.333 34.833 19.833 52.5 25.5s35.834 9.5 54.501 11.5
l13 110h91l-13 -108c16.667 -1.33301 32.834 -4 48.501 -8s30.834 -9 45.501 -15c11.333 -5.33301 23.333 -11.833 36 -19.5s25 -15.834 37 -24.501z" />
    <glyph glyph-name="percent" unicode="%" horiz-adv-x="882" 
d="M144 -20l545 740h91l-545 -740h-91zM272 720c52.667 0 95.167 -16.5 127.5 -49.5s48.5 -75.833 48.5 -128.5c0 -58 -19.167 -106.833 -57.5 -146.5s-88.5 -59.5 -150.5 -59.5c-53.333 0 -96 16.333 -128 49s-48 75.667 -48 129c0 57.333 19 106 57 146s88.333 60 151 60z
M252 450c24.667 0 44.5 8.00098 59.5 24.001s22.5 36 22.5 60c0 21.333 -6.66699 38.666 -20 51.999s-31.333 20 -54 20c-25.333 -0.666992 -45.333 -9 -60 -25s-22 -35.667 -22 -59c0 -22 6.5 -39.5 19.5 -52.5s31.167 -19.5 54.5 -19.5zM684 364.001
c52 0 94.3311 -16.5 126.998 -49.5s49 -75.833 49 -128.5c0 -58 -19.167 -106.833 -57.5 -146.5s-88.5 -59.5 -150.5 -59.5c-53.333 0 -96.166 16.333 -128.499 49s-48.166 75.667 -47.499 129c0 57.333 19 106 57 146s88.333 60 151 60zM663.998 94.001
c24.667 0 44.5 7.99902 59.5 23.999s22.5 36 22.5 60c0 21.333 -6.66699 38.666 -20 51.999s-31.333 20 -54 20c-25.333 0 -45.333 -8.16699 -60 -24.5s-22 -36.166 -22 -59.499c0 -22 6.5 -39.667 19.5 -53s31.167 -19.666 54.5 -18.999z" />
    <glyph glyph-name="ampersand" unicode="&#x26;" horiz-adv-x="742" 
d="M517 0l-55.002 66.998c-12 -10.667 -24.5 -20.5 -37.5 -29.5s-25.167 -16.167 -36.5 -21.5c-20.667 -10.667 -43.167 -19 -67.5 -25s-49.5 -9 -75.5 -9c-36 0 -67.167 4.33301 -93.5 13s-47.833 20.667 -64.5 36c-18.667 16 -32 34.333 -40 55s-12 43.667 -12 69
c0 28.667 4.16699 54.334 12.5 77.001s20.833 43 37.5 61c15.333 16.667 35 32.167 59 46.5s50.667 27.166 80 38.499c-6.66699 8 -12.667 16.333 -18 25s-9.33301 16.667 -12 24c-5.33301 10.667 -9.16602 21.334 -11.499 32.001s-3.5 22.334 -3.5 35.001
c-0.666992 34 5.16602 65.5 17.499 94.5s29.5 53.5 51.5 73.5c20.667 18.667 44.334 32.667 71.001 42s54.667 14 84 14c26 -0.666992 50.167 -4.5 72.5 -11.5s41.5 -17.833 57.5 -32.5c15.333 -15.333 27 -33.333 35 -54s12 -43.667 12 -69
c0 -32.667 -5.16699 -60.667 -15.5 -84s-26.833 -45 -49.5 -65c-11.333 -10 -24.166 -19.833 -38.499 -29.5s-28.5 -18.167 -42.5 -25.5l71 -90l111 99l82 -104l-105 -92l127 -160h-203zM382.998 163.998l-90.999 119c-12 -6.66699 -23.5 -14 -34.5 -22
s-19.5 -15.667 -25.5 -23c-7.33301 -8.66699 -12.666 -18 -15.999 -28s-5 -21.667 -5 -35c0 -9.33301 1.16699 -17.5 3.5 -24.5s6.5 -12.833 12.5 -17.5c5.33301 -6 12.666 -10.5 21.999 -13.5s20 -4.5 32 -4.5c15.333 0 31.666 3.83301 48.999 11.5s35 20.167 53 37.5z
M365.999 426.998c9.33301 5.33301 18.832 11.833 28.499 19.5s18.167 15.5 25.5 23.5c8 9.33301 14.167 19.333 18.5 30s6.83301 22.334 7.5 35.001c0 8 -1.16699 15.167 -3.5 21.5s-5.16602 12.166 -8.49902 17.499c-5.33301 6 -11.333 10.5 -18 13.5
s-14.334 4.5 -23.001 4.5s-16.667 -1.5 -24 -4.5s-13.666 -7.16699 -18.999 -12.5c-8 -7.33301 -13.833 -15.833 -17.5 -25.5s-5.5 -21.167 -5.5 -34.5c0 -8.66699 0.833008 -17 2.5 -25s4.5 -15.667 8.5 -23c2.66699 -6.66699 6.5 -13.5 11.5 -20.5s10.5 -13.5 16.5 -19.5z
" />
    <glyph glyph-name="quotesingle" unicode="'" horiz-adv-x="226" 
d="M240 700l-54 -280h-86l14 280h126z" />
    <glyph glyph-name="parenleft" unicode="(" horiz-adv-x="360" 
d="M268 -165l-105.998 -58.998c-32.667 66.667 -55.834 130.167 -69.501 190.5s-20.5 123.166 -20.5 188.499c0 44 2.66699 86.5 8 127.5s14.666 84.167 27.999 129.5c18 62.667 41.333 121.667 70 177s63.667 111 105 167l91 -59
c-33.333 -48.667 -62.666 -98.667 -87.999 -150s-45 -102 -59 -152c-10 -35.333 -17.667 -71.5 -23 -108.5s-8 -74.833 -8 -113.5c0 -59.333 5.66699 -115.833 17 -169.5s29.666 -109.834 54.999 -168.501z" />
    <glyph glyph-name="parenright" unicode=")" horiz-adv-x="360" 
d="M114 697l106.005 59.002c32 -66.667 55 -130.334 69 -191.001s21 -123.334 21 -188.001c0 -44.667 -2.83301 -87.5 -8.5 -128.5s-14.834 -83.833 -27.501 -128.5c-18.667 -63.333 -42.334 -122.5 -71.001 -177.5s-63.334 -110.5 -104.001 -166.5l-91 59
c32.667 48.667 61.667 98.5 87 149.5s45.333 101.833 60 152.5c9.33301 34.667 16.666 70.5 21.999 107.5s8.33301 75.167 9 114.5c0 58.667 -5.83301 115 -17.5 169s-29.834 110.333 -54.501 169z" />
    <glyph glyph-name="asterisk" unicode="*" horiz-adv-x="480" 
d="M259 735h98l-16 -132l122 66l39 -85l-122 -66l105 -66l-59 -85l-106 66l-16 -132h-98l16 132l-122 -66l-39 85l123 66l-106 66l59 85l106 -66z" />
    <glyph glyph-name="plus" unicode="+" horiz-adv-x="640" 
d="M50 300v100h220v220h100v-220h220v-100h-220v-220h-100v220h-220z" />
    <glyph glyph-name="comma" unicode="," horiz-adv-x="322" 
d="M-25 -140l143 308h175l-185 -308h-133z" />
    <glyph glyph-name="hyphen" unicode="-" horiz-adv-x="420" 
d="M61 350h340l-19 -154h-340z" />
    <glyph glyph-name="hyphen" unicode="&#xad;" horiz-adv-x="420" 
d="M61 350h340l-19 -154h-340z" />
    <glyph glyph-name="period" unicode="." horiz-adv-x="330" 
d="M161 186c28.667 0 51.332 -8.5 67.999 -25.5s25.334 -39.167 26.001 -66.5c0 -36 -10.833 -63.667 -32.5 -83s-47.5 -29 -77.5 -29c-29.333 0 -52.333 8.33301 -69 25s-25 39 -25 67c0 35.333 10.667 62.833 32 82.5s47.333 29.5 78 29.5z" />
    <glyph glyph-name="slash" unicode="/" horiz-adv-x="512" 
d="M-27 -210l481 945h105l-481 -945h-105z" />
    <glyph glyph-name="zero" unicode="0" 
d="M363 720c31.333 0 58.4971 -3.83398 81.4971 -11.501s44.167 -19.5 63.5 -35.5c26.667 -23.333 47.167 -53.5 61.5 -90.5s21.5 -82.167 21.5 -135.5c0 -36.667 -2.66699 -75 -8 -115s-12.666 -76 -21.999 -108c-13.333 -43.333 -30.833 -81.833 -52.5 -115.5
s-48.5 -61.5 -80.5 -83.5c-23.333 -16 -47 -27.5 -71 -34.5s-51.333 -10.5 -82 -10.5c-32 0 -59.5 3.66699 -82.5 11s-43.833 19.333 -62.5 36c-27.333 22.667 -48 52.5 -62 89.5s-21 82.5 -21 136.5c0 36 2.5 74 7.5 114s12.5 76.333 22.5 109
c12.667 42.667 29.834 80.834 51.501 114.501s48.834 61.834 81.501 84.501c22.667 15.333 46 26.666 70 33.999s51.667 11 83 11zM291.997 126.999c12.667 -0.666992 24.833 2.66504 36.5 9.99805s22.167 18 31.5 32c7.33301 11.333 14 26 20 44s11.667 40.333 17 67
c5.33301 28 9.33301 57.167 12 87.5s4.33398 61.5 5.00098 93.5c0 37.333 -6.16699 65.333 -18.5 84s-28.833 28 -49.5 28c-13.333 0 -25.833 -3.66699 -37.5 -11s-21.834 -17.666 -30.501 -30.999c-8 -12 -15 -27 -21 -45s-11.333 -40 -16 -66
c-6 -28.667 -10.333 -58.167 -13 -88.5s-4 -61.166 -4 -92.499c0 -38 6 -66.167 18 -84.5s28.667 -27.5 50 -27.5z" />
    <glyph glyph-name="one" unicode="1" 
d="M225 0l66 539h-107l20 161h288l-86 -700h-181z" />
    <glyph glyph-name="two" unicode="2" 
d="M543 154l-18.999 -154.001h-539l332 338c21.333 21.333 36.5 37 45.5 47s16.5 19 22.5 27c11.333 14.667 19.333 28.5 24 41.5s7 27.167 7 42.5c0 10 -1.5 19 -4.5 27s-7.16699 15.667 -12.5 23c-7.33301 8.66699 -15.5 15.167 -24.5 19.5s-20.5 6.5 -34.5 6.5
c-13.333 0 -25 -2.16699 -35 -6.5s-19 -10.5 -27 -18.5c-12 -11.333 -21 -25 -27 -41s-9.66699 -33.333 -11 -52h-174c5.33301 45.333 17.666 86 36.999 122s44 65.333 74 88c24.667 18.667 52 32.667 82 42s62.667 14 98 14c42 0 78 -5.83301 108 -17.5
s55.333 -28.5 76 -50.5c16 -18.667 28.5 -40.667 37.5 -66s13.5 -51 13.5 -77c0 -24.667 -3.66699 -48.5 -11 -71.5s-19.333 -46.5 -36 -70.5c-12 -17.333 -27.667 -36.666 -47 -57.999s-42 -44 -68 -68l-93 -87h206z" />
    <glyph glyph-name="three" unicode="3" 
d="M34 225l174.006 0.00390625c-0.666992 -3.33301 -1 -6.5 -1 -9.5v-12.5c-0.666992 -11.333 0.5 -21.666 3.5 -30.999s7.83301 -17 14.5 -23c6 -6.66699 14.167 -11.834 24.5 -15.501s23.166 -5.5 38.499 -5.5c16 0 30 2.33301 42 7s22.333 12 31 22
c6.66699 8 11.834 18 15.501 30s5.83398 25 6.50098 39c-0.666992 14 -2.83398 25.667 -6.50098 35s-8.83398 17.333 -15.501 24c-6.66699 5.33301 -14.334 9.16602 -23.001 11.499s-22.667 3.83301 -42 4.5h-22l15 120h22c11.333 0 22.666 1.5 33.999 4.5
s21 7.83301 29 14.5c8.66699 7.33301 15.167 16.166 19.5 26.499s6.5 22.166 6.5 35.499c0 10.667 -1.16699 19.834 -3.5 27.501s-5.83301 14.834 -10.5 21.501c-6 6.66699 -13 11.834 -21 15.501s-17.667 5.5 -29 5.5c-13.333 0 -24.666 -2.16699 -33.999 -6.5
s-17.666 -10.5 -24.999 -18.5c-6.66699 -6.66699 -11.834 -14 -15.501 -22s-5.83398 -16.667 -6.50098 -26h-174c6 37.333 17.167 70.166 33.5 98.499s37.5 52.166 63.5 71.499c22.667 16.667 48 29.167 76 37.5s60.667 12.833 98 13.5c39.333 0 72.166 -4 98.499 -12
s48.833 -19.667 67.5 -35c19.333 -16.667 33.5 -35.5 42.5 -56.5s13.833 -44.167 14.5 -69.5c0 -24.667 -3.5 -46.5 -10.5 -65.5s-18.167 -36.167 -33.5 -51.5c-10.667 -10.667 -22.5 -19.834 -35.5 -27.501s-26.833 -13.167 -41.5 -16.5v-3
c13.333 -4.66699 26.166 -10.834 38.499 -18.501s22.833 -15.834 31.5 -24.501c12 -14 20.833 -29.333 26.5 -46s8.5 -35 8.5 -55c0 -44.667 -9.66699 -85.334 -29 -122.001s-45 -66 -77 -88c-23.333 -16 -49.833 -28.167 -79.5 -36.5s-63.834 -12.5 -102.501 -12.5
c-41.333 0 -75.833 4.83301 -103.5 14.5s-51.5 23.834 -71.5 42.501c-23.333 21.333 -40.5 47.333 -51.5 78s-14.5 67.334 -10.5 110.001z" />
    <glyph glyph-name="four" unicode="4" 
d="M307 0l21 168h-315l17 144l300 388h231l-47 -385h78l-18 -147h-78l-21 -168h-168zM346 315l30 245l-182 -245h152z" />
    <glyph glyph-name="five" unicode="5" 
d="M571 546l-258.999 -0.00195312l-27 -91c12 2.66699 23.167 4.5 33.5 5.5s20.833 1.83301 31.5 2.5c32 0 61.5 -4 88.5 -12s49.833 -20 68.5 -36c18 -16.667 31.833 -37.167 41.5 -61.5s14.5 -52.166 14.5 -83.499c0 -48 -10.167 -91.5 -30.5 -130.5
s-47.5 -71.167 -81.5 -96.5c-28 -21.333 -59.667 -37.166 -95 -47.499s-75 -15.5 -119 -15.5c-28 0 -53.667 2.16699 -77 6.5s-47.333 10.833 -72 19.5c-14.667 5.33301 -27.5 10.833 -38.5 16.5s-21.5 12.167 -31.5 19.5l36 168h21c8 -11.333 17.167 -21.666 27.5 -30.999
s21.166 -17.333 32.499 -24c15.333 -10 31.333 -17 48 -21s34 -6 52 -6c20.667 0 40.167 2.33301 58.5 7s33.5 11.667 45.5 21c14.667 10.667 26.334 24.667 35.001 42s13 36.666 13 57.999c0 16 -3.33301 30.833 -10 44.5s-16.334 25.5 -29.001 35.5
c-11.333 7.33301 -25 13 -41 17s-33.667 6 -53 6c-24.667 0 -47.667 -2.5 -69 -7.5s-42.333 -12.5 -63 -22.5h-33l123 371h378z" />
    <glyph glyph-name="six" unicode="6" 
d="M329 700h208.003l-214 -244c9.33301 2.66699 18.5 4.66699 27.5 6s18.5 2 28.5 2c30 0 57.667 -5.16699 83 -15.5s46.666 -24.5 63.999 -42.5c16 -18.667 28.167 -40.167 36.5 -64.5s12.5 -50.5 12.5 -78.5c0 -46.667 -8.16699 -88.5 -24.5 -125.5
s-39.166 -67.833 -68.499 -92.5c-26.667 -22.667 -56.834 -39.167 -90.501 -49.5s-70.167 -15.5 -109.5 -15.5s-74 5.16699 -104 15.5s-55.667 25.833 -77 46.5c-22.667 20 -39.334 43.667 -50.001 71s-16 59 -16 95c0 45.333 7.66699 87.833 23 127.5
s42.666 83.5 81.999 131.5zM292.003 127c15.333 -0.666992 29.167 1.49902 41.5 6.49902s23.166 11.833 32.499 20.5c10.667 10 18.834 23 24.501 39s8.5 33.333 8.5 52c0 14.667 -2.16699 27.834 -6.5 39.501s-10.5 21.5 -18.5 29.5c-8 6.66699 -17 12 -27 16
s-22.333 6 -37 6c-16 0 -30.167 -2.5 -42.5 -7.5s-22.833 -11.5 -31.5 -19.5c-11.333 -10.667 -19.666 -24 -24.999 -40s-8 -33 -8 -51c-0.666992 -15.333 1.16602 -28.833 5.49902 -40.5s10.833 -21.167 19.5 -28.5c7.33301 -7.33301 16 -12.833 26 -16.5
s22.667 -5.5 38 -5.5z" />
    <glyph glyph-name="seven" unicode="7" 
d="M42 0l330 539h-286l20 161h554l-400 -700h-218z" />
    <glyph glyph-name="eight" unicode="8" 
d="M459 372l-1 -2c14.667 -4.66699 28.834 -11 42.501 -19s25.167 -17.333 34.5 -28c11.333 -14 20 -30.333 26 -49s9.33301 -38.667 10 -60c0 -42 -8.83301 -79.333 -26.5 -112s-44.167 -59.334 -79.5 -80.001c-24 -14 -51.667 -24.5 -83 -31.5
s-64.666 -10.5 -99.999 -10.5c-40 0 -74.667 3.5 -104 10.5s-54 17.833 -74 32.5c-24 16 -42.333 36.5 -55 61.5s-19 54.5 -19 88.5c0 33.333 5.5 62.5 16.5 87.5s26.833 46.5 47.5 64.5c11.333 10 24.666 18.833 39.999 26.5s32 13.834 50 18.501l1 2
c-12 4.66699 -22.833 10.834 -32.5 18.501s-17.834 16.834 -24.501 27.501c-9.33301 12.667 -16.166 26.667 -20.499 42s-6.5 31.333 -6.5 48c0 34 6.66699 65.167 20 93.5s34 52.166 62 71.499c20.667 14.667 45.5 26.167 74.5 34.5s61.5 12.5 97.5 12.5
c37.333 0 69.666 -4.16699 96.999 -12.5s50.666 -20.5 69.999 -36.5c18.667 -16.667 32.834 -35.834 42.501 -57.501s14.5 -45.167 14.5 -70.5c0 -24 -4 -46.833 -12 -68.5s-19.667 -40.5 -35 -56.5c-9.33301 -10 -20.5 -19 -33.5 -27s-26.167 -14.333 -39.5 -19zM331 432
c9.33301 0 18 1.16699 26 3.5s15.667 6.5 23 12.5c9.33301 7.33301 16.833 17 22.5 29s8.5 26 8.5 42c0 10 -1.83301 19.167 -5.5 27.5s-8.5 15.5 -14.5 21.5c-5.33301 4 -11.666 7.33301 -18.999 10s-16.333 4 -27 4c-10 0 -19 -1.33301 -27 -4s-15.333 -6.66699 -22 -12
c-10 -8 -17.667 -18 -23 -30s-8 -25.667 -8 -41c0 -10.667 1.66699 -20.167 5 -28.5s8.33301 -15.166 15 -20.499c4.66699 -4.66699 10.667 -8.33398 18 -11.001s16.666 -3.66699 27.999 -3zM296 128c12.667 0 24.165 1.66895 34.498 5.00195s19.833 8.66602 28.5 15.999
c10 8.66699 17.833 19.5 23.5 32.5s8.5 27.833 8.5 44.5c0 12.667 -2 24 -6 34s-9.33301 18.667 -16 26c-6.66699 6 -14.667 10.833 -24 14.5s-20.666 5.5 -33.999 5.5s-25.166 -1.83301 -35.499 -5.5s-19.5 -8.83398 -27.5 -15.501
c-10.667 -9.33301 -18.667 -20.5 -24 -33.5s-8 -27.5 -8 -43.5c0 -13.333 1.83301 -25 5.5 -35s9.16699 -18.333 16.5 -25c6 -6.66699 13.667 -11.667 23 -15s21 -5 35 -5z" />
    <glyph glyph-name="nine" unicode="9" 
d="M309 0l-207.999 -0.000976562l214 244c-10 -3.33301 -19.5 -5.5 -28.5 -6.5s-18.167 -1.5 -27.5 -1.5c-30.667 0 -58.667 5 -84 15s-46.333 24.333 -63 43c-16.667 18 -29 39.167 -37 63.5s-12 50.833 -12 79.5c0 46 8 87.5 24 124.5s39 68.167 69 93.5
c26 22 55.833 38.333 89.5 49s70.5 16 110.5 16c38.667 0 73 -5.33301 103 -16s56 -26 78 -46c22 -20.667 38.5 -44.667 49.5 -72s16.5 -58.666 16.5 -93.999c0 -46 -7.83301 -88.833 -23.5 -128.5s-42.834 -83.167 -81.501 -130.5zM346.001 572.999
c-16 0 -30.167 -2.50195 -42.5 -7.50195s-22.833 -11.5 -31.5 -19.5c-11.333 -10.667 -19.666 -24 -24.999 -40s-8 -33 -8 -51c0 -15.333 2 -28.833 6 -40.5s10.333 -21.167 19 -28.5c7.33301 -7.33301 16 -12.833 26 -16.5s22.667 -5.5 38 -5.5s29.166 2.33301 41.499 7
s23.166 11.334 32.499 20.001c10.667 10 18.834 23 24.501 39s8.5 33.333 8.5 52c0 14.667 -2.16699 27.834 -6.5 39.501s-10.5 21.5 -18.5 29.5c-8 6.66699 -17 12 -27 16s-22.333 6 -37 6z" />
    <glyph glyph-name="colon" unicode=":" horiz-adv-x="330" 
d="M200 501c28.667 -0.666992 51.5 -9.33301 68.5 -26s25.5 -38.667 25.5 -66c0 -36 -10.833 -63.833 -32.5 -83.5s-47.5 -29.167 -77.5 -28.5c-29.333 0 -52.333 8.33301 -69 25s-25 39 -25 67c0 35.333 10.667 62.833 32 82.5s47.333 29.5 78 29.5zM161 186.001
c28.667 0 51.332 -8.5 67.999 -25.5s25.334 -39.167 26.001 -66.5c0 -36 -10.833 -63.667 -32.5 -83s-47.5 -29 -77.5 -29c-29.333 0 -52.333 8.33301 -69 25s-25 39 -25 67c0 35.333 10.667 62.833 32 82.5s47.333 29.5 78 29.5z" />
    <glyph glyph-name="semicolon" unicode=";" horiz-adv-x="322" 
d="M227 501c28.667 0 51.5 -8.49902 68.5 -25.499s25.5 -39.167 25.5 -66.5c0 -36 -10.833 -63.667 -32.5 -83s-47.5 -29 -77.5 -29c-29.333 0 -52.5 8.33301 -69.5 25s-25.167 39 -24.5 67c0 35.333 10.667 62.666 32 81.999s47.333 29.333 78 30zM-25 -139.999l143 308
h175l-185 -308h-133z" />
    <glyph glyph-name="less" unicode="&#x3c;" horiz-adv-x="640" 
d="M116 392l476 222v-110l-344 -155l344 -155v-110l-476 222v86z" />
    <glyph glyph-name="equal" unicode="=" horiz-adv-x="640" 
d="M70 390v100h540v-100h-540zM70 210v100h540v-100h-540z" />
    <glyph glyph-name="greater" unicode="&#x3e;" horiz-adv-x="640" 
d="M592 392v-86l-476 -222v110l344 155l-344 155v110z" />
    <glyph glyph-name="question" unicode="?" horiz-adv-x="525" 
d="M235 496l-168.001 -0.00195312c4 36.667 14 69.334 30 98.001s36.667 53 62 73c23.333 18 48.833 31.167 76.5 39.5s58.5 12.833 92.5 13.5c35.333 0 66.666 -4.83301 93.999 -14.5s50.333 -23.834 69 -42.501c15.333 -16.667 27 -36 35 -58s12 -45.667 12 -71
c0 -30.667 -4.5 -59.167 -13.5 -85.5s-22.167 -48.833 -39.5 -67.5c-16 -17.333 -35.167 -31.5 -57.5 -42.5s-44.833 -17.167 -67.5 -18.5l-11 -89h-168l23 181h48c20.667 -0.666992 39 1.83301 55 7.5s29 13.834 39 24.501c7.33301 8 13 17.333 17 28s6 22.667 6 36
c0 10 -1.33301 18.667 -4 26s-6 14 -10 20c-5.33301 6 -11.666 10.5 -18.999 13.5s-15.666 4.5 -24.999 4.5s-18.5 -1.83301 -27.5 -5.5s-16.5 -8.16699 -22.5 -13.5s-11.5 -12.666 -16.5 -21.999s-7.83301 -18.333 -8.5 -27zM258.999 185.998
c28.667 0 51.332 -8.49902 67.999 -25.499s25.334 -39.167 26.001 -66.5c0 -36 -10.833 -63.667 -32.5 -83s-47.5 -29 -77.5 -29c-29.333 0 -52.333 8.33301 -69 25s-25 39 -25 67c0 35.333 10.667 62.666 32 81.999s47.333 29.333 78 30z" />
    <glyph glyph-name="at" unicode="@" horiz-adv-x="878" 
d="M638 530l-55.998 -258.998c-4 -18 -2.83301 -31.5 3.5 -40.5s17.833 -13.167 34.5 -12.5c38.667 0 70.667 12.833 96 38.5s38 63.5 38 113.5c-0.666992 91.333 -31.334 163.166 -92.001 215.499s-136.667 78.5 -228 78.5c-94 0 -169 -30.5 -225 -91.5
s-84 -135.167 -84 -222.5c0 -94 29.5 -171.167 88.5 -231.5s135.833 -90.5 230.5 -90.5c26.667 0 52.834 3.5 78.501 10.5s51.5 18.833 77.5 35.5l29 -44c-30.667 -18.667 -60.334 -31.667 -89.001 -39s-60.667 -11 -96 -11c-110.667 0 -201.667 32.5 -273 97.5
s-107 155.833 -107 272.5c0 108 35.5 196.5 106.5 265.5s158.833 103.833 263.5 104.5c120.667 0 214.167 -34.333 280.5 -103s99.5 -151 99.5 -247c0 -63.333 -20.167 -115.5 -60.5 -156.5s-91.5 -61.5 -153.5 -61.5c-20 0 -38.333 4.5 -55 13.5s-32 25.167 -46 48.5
c-17.333 -19.333 -36.333 -34.5 -57 -45.5s-41 -16.5 -61 -16.5c-46.667 0 -84.5 13.667 -113.5 41s-43.5 65 -43.5 113c0 61.333 22.167 115.5 66.5 162.5s96.166 70.5 155.499 70.5c20.667 0 37.667 -4.33301 51 -13s24 -21.334 32 -38.001l9 42h100zM402.002 250.002
c30 -0.666992 54.666 12.333 73.999 39s29 54 29 82c0 22.667 -5.16699 40.667 -15.5 54s-25.5 20 -45.5 20c-28 0 -50.833 -12.333 -68.5 -37s-26.5 -54.667 -26.5 -90c-0.666992 -20.667 3.33301 -37.167 12 -49.5s22.334 -18.5 41.001 -18.5z" />
    <glyph glyph-name="A" unicode="A" horiz-adv-x="722" 
d="M-29 0l335 700h238l163 -700h-206l-24 121h-238l-56 -121h-212zM404 533l-109 -258h160z" />
    <glyph glyph-name="B" unicode="B" horiz-adv-x="678" 
d="M127 700l330.996 -0.000976562c38.667 0 69.834 -3.83301 93.501 -11.5s43.834 -19.5 60.501 -35.5c12.667 -13.333 22.667 -29.166 30 -47.499s11 -38.166 11 -59.499c0 -28 -5.16699 -53.5 -15.5 -76.5s-26.166 -42.833 -47.499 -59.5
c-9.33301 -7.33301 -19.666 -13.833 -30.999 -19.5s-22.333 -10.5 -33 -14.5v-2c16 -4 31.667 -10.167 47 -18.5s28.333 -17.833 39 -28.5c12.667 -14 22.5 -30.333 29.5 -49s10.5 -39.334 10.5 -62.001c0 -30.667 -5.16699 -58 -15.5 -82s-24.833 -45.333 -43.5 -64
c-24 -24 -52.333 -41.667 -85 -53s-69 -17 -109 -17h-358zM288.996 423.999l82 0.00195312c14.667 0 27.667 1.16699 39 3.5s21 6.16602 29 11.499c10 6 17.5 13.667 22.5 23s7.5 21.666 7.5 36.999c0 10.667 -2 20 -6 28s-9.66699 14.667 -17 20
c-6.66699 4 -15 7.16699 -25 9.5s-21 3.5 -33 3.5h-82zM253.996 140.001h88.002c20 -0.666992 35.833 0.333008 47.5 3s22.167 6.66699 31.5 12c10.667 6 19.167 14.333 25.5 25s9.5 24 9.5 40c0 10 -2 19.333 -6 28s-9.66699 16 -17 22
c-6.66699 4.66699 -15.334 8.16699 -26.001 10.5s-26.334 3.5 -47.001 3.5h-88z" />
    <glyph glyph-name="C" unicode="C" horiz-adv-x="614" 
d="M585 231l-23.999 -198.998c-28.667 -18 -58.667 -31.167 -90 -39.5s-66.333 -12.5 -105 -12.5c-42 0 -78.5 4.5 -109.5 13.5s-58.5 22.167 -82.5 39.5c-40 27.333 -70.167 63 -90.5 107s-30.5 95.333 -30.5 154c0 61.333 7.66699 116.333 23 165s39 91.667 71 129
c36.667 42.667 81.667 75.334 135 98.001s110.333 34 171 34c36.667 0 70.667 -4.5 102 -13.5s59.333 -23.167 84 -42.5l-25 -203c-21.333 27.333 -45.333 48.166 -72 62.499s-55.334 21.5 -86.001 21.5c-32.667 0 -63.167 -6.33301 -91.5 -19s-51.166 -31 -68.499 -55
c-14 -18.667 -24.333 -40.334 -31 -65.001s-10 -51.334 -10 -80.001c0 -32.667 4.83301 -60.834 14.5 -84.501s24.167 -42.5 43.5 -56.5c12 -9.33301 26.333 -16.666 43 -21.999s35 -8 55 -8c30 0 60.167 6.66699 90.5 20s58.166 32 83.499 56z" />
    <glyph glyph-name="D" unicode="D" horiz-adv-x="711" 
d="M41 0l86.0029 700.001h256c64.667 0 118.5 -9 161.5 -27s77.833 -45 104.5 -81c17.333 -24.667 30.166 -52.667 38.499 -84s12.5 -67 12.5 -107c0 -60.667 -8.83301 -114.334 -26.5 -161.001s-44.5 -88.667 -80.5 -126c-38.667 -40 -82.334 -69 -131.001 -87
s-102.334 -27 -161.001 -27h-260zM258.003 168.001l22 -0.00195312c36 -0.666992 67 3.83301 93 13.5s49 24.5 69 44.5c17.333 17.333 31 37.833 41 61.5s15 51.834 15 84.501c0 25.333 -3.16699 47.833 -9.5 67.5s-15.166 35.834 -26.499 48.501
c-14.667 14.667 -33.834 25.667 -57.501 33s-50.5 11 -80.5 11h-22z" />
    <glyph glyph-name="E" unicode="E" horiz-adv-x="525" 
d="M41 0l86 700h420l-21 -168h-224l-12 -98h203l-19 -154h-203l-13 -112h224l-21 -168h-420z" />
    <glyph glyph-name="F" unicode="F" horiz-adv-x="511" 
d="M41 0l86 700h420l-21 -168h-224l-13 -105h203l-19 -161h-203l-33 -266h-196z" />
    <glyph glyph-name="G" unicode="G" horiz-adv-x="799" 
d="M417 406l376.005 0.00195312c-3.33301 -66.667 -14.333 -126.334 -33 -179.001s-46 -98 -82 -136c-35.333 -37.333 -75.833 -65.166 -121.5 -83.499s-98.834 -27.5 -159.501 -27.5c-56 0 -104.333 7 -145 21s-75.667 35 -105 63c-31.333 28.667 -55 62.667 -71 102
s-24 85.666 -24 138.999c0 69.333 11.167 130.333 33.5 183s54.166 97.334 95.499 134.001c36 32.667 76.833 57.167 122.5 73.5s97.5 24.5 155.5 24.5c75.333 0 140.666 -14.5 195.999 -43.5s95 -71.167 119 -126.5l-183 -81c-10.667 25.333 -28.834 45.5 -54.501 60.5
s-55.834 22.5 -90.501 22.5c-28 0 -53.833 -5 -77.5 -15s-44.167 -24.667 -61.5 -44c-18.667 -20.667 -33.167 -46.334 -43.5 -77.001s-15.5 -65.334 -15.5 -104.001c0 -28.667 3.5 -53.5 10.5 -74.5s17.833 -39.167 32.5 -54.5c14.667 -16.667 32.667 -29 54 -37
s44 -12 68 -12c26 0 50 4.33301 72 13s41 21 57 37c10 10 18.167 20.667 24.5 32s10.833 23.333 13.5 36h-182z" />
    <glyph glyph-name="H" unicode="H" horiz-adv-x="756" 
d="M41 0l86 700h196l-31 -252h238l31 252h196l-86 -700h-196l34 280h-238l-34 -280h-196z" />
    <glyph glyph-name="I" unicode="I" horiz-adv-x="322" 
d="M41 0l86 700h196l-86 -700h-196z" />
    <glyph glyph-name="J" unicode="J" horiz-adv-x="490" 
d="M-9 102l137.998 101c0.666992 -7.33301 2.33398 -14.166 5.00098 -20.499s6.33398 -11.833 11.001 -16.5c5.33301 -6.66699 11.333 -11.334 18 -14.001s14.334 -4 23.001 -4c8 -0.666992 15 0.333008 21 3s11.333 6.66699 16 12s8.66699 12.5 12 21.5s6 21.5 8 37.5
l59 478h196l-56 -458c-6 -46.667 -16.167 -86.834 -30.5 -120.501s-32.833 -61.167 -55.5 -82.5c-20.667 -19.333 -44.834 -34 -72.501 -44s-58.167 -15 -91.5 -15c-26.667 0 -50.5 3.33301 -71.5 10s-40.5 16.334 -58.5 29.001c-16 10 -29.833 21.833 -41.5 35.5
s-21.5 29.5 -29.5 47.5z" />
    <glyph glyph-name="K" unicode="K" horiz-adv-x="700" 
d="M323 700l-36 -294l247 294h230l-308 -344l229 -356h-236l-175 301l-37 -301h-196l86 700h196z" />
    <glyph glyph-name="L" unicode="L" horiz-adv-x="483" 
d="M41 0l86 700h196l-65 -532h210l-21 -168h-406z" />
    <glyph glyph-name="M" unicode="M" horiz-adv-x="870" 
d="M-8 0l188 700h192l75 -427l175 427h196l16 -700h-184l-6 406l-166 -406h-126l-72 406l-100 -406h-188z" />
    <glyph glyph-name="N" unicode="N" horiz-adv-x="777" 
d="M41 0l86 700h206l205 -413l51 413h189l-86 -700h-198l-212 420l-52 -420h-189z" />
    <glyph glyph-name="O" unicode="O" horiz-adv-x="816" 
d="M466 720c50.667 0 97.332 -7.17188 139.999 -21.5049s79.334 -36.166 110.001 -65.499c29.333 -28.667 51.5 -63.167 66.5 -103.5s22.5 -85.166 22.5 -134.499c0 -70.667 -13.167 -133.667 -39.5 -189s-62.5 -101.666 -108.5 -138.999
c-36 -29.333 -75.833 -51.166 -119.5 -65.499s-92.167 -21.5 -145.5 -21.5c-51.333 0 -98.333 7 -141 21s-79 36 -109 66c-30 28 -52.333 62.167 -67 102.5s-22 85.5 -22 135.5c0 70 13 132.667 39 188s62.333 102 109 140c35.333 28.667 74.833 50.334 118.5 65.001
s92.5 22 146.5 22zM407.998 147.995c27.333 0 52.832 5.33301 76.499 16s43.834 25 60.501 43c18.667 20 33 45 43 75s15 63.667 15 101c0 27.333 -3.5 51 -10.5 71s-16.5 37 -28.5 51c-14 14.667 -30.833 26.167 -50.5 34.5s-40.834 12.5 -63.501 12.5
c-28 0 -53.833 -5.5 -77.5 -16.5s-43.5 -25.167 -59.5 -42.5c-19.333 -20.667 -33.833 -46 -43.5 -76s-14.5 -63.333 -14.5 -100c0 -28 3.33301 -52 10 -72s16.334 -36.667 29.001 -50c13.333 -15.333 29.833 -27 49.5 -35s41.167 -12 64.5 -12z" />
    <glyph glyph-name="P" unicode="P" horiz-adv-x="641" 
d="M41 0l86 699.999h295c45.333 0 83 -6 113 -18s55 -30.667 75 -56c12.667 -17.333 22.167 -37.166 28.5 -59.499s9.5 -45.833 9.5 -70.5c0 -36 -5.66699 -69 -17 -99s-27.333 -56.667 -48 -80c-25.333 -28 -55.5 -49.333 -90.5 -64s-77.167 -22 -126.5 -22h-101l-28 -231
h-196zM304 545.999l-20.002 -161h56c19.333 0 36 2.33301 50 7s25.333 11.667 34 21c6 6.66699 11.167 15.5 15.5 26.5s6.5 22.5 6.5 34.5c-0.666992 8.66699 -2.16699 17.167 -4.5 25.5s-5.83301 15.5 -10.5 21.5c-7.33301 8 -16.666 14.167 -27.999 18.5
s-25.666 6.5 -42.999 6.5h-56z" />
    <glyph glyph-name="Q" unicode="Q" horiz-adv-x="816" 
d="M642 -60l-60.0029 83.999c-31.333 -16 -62.166 -27.333 -92.499 -34s-62.166 -10 -95.499 -10c-50.667 0 -97.834 7.16699 -141.501 21.5s-80.5 36.166 -110.5 65.499c-30 28 -52.5 62.167 -67.5 102.5s-22.167 85.5 -21.5 135.5c0 70 13 132.667 39 188
s62.333 102 109 140c35.333 28.667 74.833 50.167 118.5 64.5s92.5 21.833 146.5 22.5c50.667 0 97.334 -7.16699 140.001 -21.5s79.334 -36.166 110.001 -65.499c29.333 -28.667 51.5 -63.167 66.5 -103.5s22.5 -85.166 22.5 -134.499
c0 -56.667 -8.83301 -109.167 -26.5 -157.5s-45.167 -92.833 -82.5 -133.5l79 -104zM519.997 305.999l48.001 -68c12.667 22 21.667 44.667 27 68s8 49 8 77c-0.666992 27.333 -4.33398 51 -11.001 71s-16 37 -28 51c-14 14.667 -30.833 26.167 -50.5 34.5
s-40.834 12.5 -63.501 12.5c-28 0 -53.833 -5.5 -77.5 -16.5s-43.5 -25.167 -59.5 -42.5c-19.333 -20.667 -33.833 -46 -43.5 -76s-14.5 -63.333 -14.5 -100c0 -28 3.33301 -52 10 -72s16.334 -36.667 29.001 -50c12.667 -15.333 29 -27 49 -35s42.333 -12 67 -12
c9.33301 0 19 0.833008 29 2.5s20.333 4.5 31 8.5l-77 93z" />
    <glyph glyph-name="R" unicode="R" horiz-adv-x="644" 
d="M41 0l86.002 700.002h280c45.333 0 83.166 -6 113.499 -18s55.166 -30.667 74.499 -56c12 -16.667 21.333 -36.334 28 -59.001s10 -46.334 10 -71.001c0 -28 -4.5 -53.667 -13.5 -77s-22.167 -45 -39.5 -65c-16 -18 -34 -33.167 -54 -45.5s-42 -21.833 -66 -28.5
l162 -280h-237l-120 231l-28 -231h-196zM304.002 546.002l-20.001 -161h44c19.333 0 36 2.33301 50 7s25.333 11.667 34 21c6 6.66699 11.167 15.5 15.5 26.5s6.5 22.5 6.5 34.5c0 8.66699 -1.33301 17.167 -4 25.5s-6.33398 15.5 -11.001 21.5
c-7.33301 8 -16.666 14.167 -27.999 18.5s-25.666 6.5 -42.999 6.5h-44z" />
    <glyph glyph-name="S" unicode="S" horiz-adv-x="560" 
d="M559 651l-88.0049 -146.999c-7.33301 8 -15.166 15.333 -23.499 22s-17.166 13 -26.499 19c-13.333 7.33301 -25.833 12.666 -37.5 15.999s-23.5 5 -35.5 5c-13.333 0 -24.5 -1.66699 -33.5 -5s-16.5 -8 -22.5 -14c-6.66699 -6 -11.667 -12.833 -15 -20.5
s-5 -15.834 -5 -24.501c-0.666992 -14.667 4.33301 -26.334 15 -35.001s30.334 -16.334 59.001 -23.001c33.333 -8.66699 60 -17.167 80 -25.5s37.667 -18.166 53 -29.499c19.333 -16 33.833 -34.5 43.5 -55.5s14.5 -47.833 14.5 -80.5
c0 -43.333 -8.16699 -83.333 -24.5 -120s-39.5 -67 -69.5 -91c-26 -20.667 -56 -36.167 -90 -46.5s-68.667 -15.5 -104 -15.5c-31.333 0 -60 3.5 -86 10.5s-55.667 20.5 -89 40.5c-18.667 10.667 -33.667 20.334 -45 29.001s-22.333 19.334 -33 32.001l112 149
c9.33301 -12 19.5 -23.333 30.5 -34s23.167 -20 36.5 -28c16 -11.333 31.333 -19.333 46 -24s30 -7 46 -7c11.333 0 21.833 1.33301 31.5 4s18.167 7.33398 25.5 14.001c6.66699 6 11.834 13.167 15.501 21.5s5.5 18.5 5.5 30.5c0 16.667 -5.33301 30 -16 40s-29 19 -55 27
c-44 12 -74 21.667 -90 29s-30 16 -42 26c-20 15.333 -35 33.333 -45 54s-15 45.667 -15 75c0 44 9.66699 84.5 29 121.5s47 66.5 83 88.5c20.667 12.667 44.834 22.667 72.501 30s56.834 11 87.501 11c22 0 44.667 -2.16699 68 -6.5s44.666 -10.5 63.999 -18.5
c11.333 -5.33301 23.5 -11.833 36.5 -19.5s25.167 -15.834 36.5 -24.501z" />
    <glyph glyph-name="T" unicode="T" horiz-adv-x="518" 
d="M139 0l65 532h-154l21 168h504l-21 -168h-154l-65 -532h-196z" />
    <glyph glyph-name="U" unicode="U" horiz-adv-x="730" 
d="M342 -20c-54.667 0.666992 -102.001 9.66699 -142.001 27s-71.333 42.666 -94 75.999c-12.667 17.333 -22.334 36.833 -29.001 58.5s-9.66699 48.834 -9 81.501c0 12 0.166992 22.833 0.5 32.5s1.16602 18.834 2.49902 27.501l51 417h196l-51 -413
c-1.33301 -10 -2.16602 -17.833 -2.49902 -23.5s-0.5 -10.834 -0.5 -15.501c0 -20.667 3 -37.667 9 -51s15 -24 27 -32c8 -6 17.5 -10.333 28.5 -13s22.5 -4 34.5 -4c20 0 38.667 4 56 12s32 20.667 44 38c6.66699 10 12.334 22 17.001 36s8.33398 31.667 11.001 53l51 413
h196l-51 -417c-6 -45.333 -15.5 -83.5 -28.5 -114.5s-31.167 -59.5 -54.5 -85.5c-31.333 -34.667 -68.333 -60.5 -111 -77.5s-93 -25.5 -151 -25.5z" />
    <glyph glyph-name="V" unicode="V" horiz-adv-x="722" 
d="M252 0l-195 700h228l95 -462l203 462h210l-351 -700h-190z" />
    <glyph glyph-name="W" unicode="W" horiz-adv-x="1096" 
d="M585 448l-172 -448h-192l-164 700h218l72 -427l166 427h202l66 -427l176 427h210l-328 -700h-192z" />
    <glyph glyph-name="X" unicode="X" horiz-adv-x="713" 
d="M-29 0l301 368l-192 332h226l92 -189l133 189h216l-259 -322l210 -378h-226l-109 231l-168 -231h-224z" />
    <glyph glyph-name="Y" unicode="Y" horiz-adv-x="666" 
d="M213 0l33 272l-189 428h221l95 -250l154 250h210l-295 -428l-33 -272h-196z" />
    <glyph glyph-name="Z" unicode="Z" horiz-adv-x="609" 
d="M113 700h567l-373 -532h280l-21 -168h-595l387 532h-266z" />
    <glyph glyph-name="bracketleft" unicode="[" horiz-adv-x="360" 
d="M276 -210h-246l116 945h246l-10 -84h-106l-95 -777h106z" />
    <glyph glyph-name="backslash" unicode="\" horiz-adv-x="512" 
d="M443 -210h-105l-249 945h105z" />
    <glyph glyph-name="bracketright" unicode="]" horiz-adv-x="360" 
d="M104 735h246l-116 -945h-246l11 84h106l95 777h-106z" />
    <glyph glyph-name="asciicircum" unicode="^" horiz-adv-x="580" 
d="M344 622l-165 -252h-136l231 330h160l149 -330h-136z" />
    <glyph glyph-name="underscore" unicode="_" horiz-adv-x="500" 
d="M0 -110h500v-100h-500v100z" />
    <glyph glyph-name="grave" unicode="`" horiz-adv-x="520" 
d="M116 700h223l89 -161h-132z" />
    <glyph glyph-name="a" unicode="a" horiz-adv-x="638" 
d="M444 424l7.00098 58.999h168l-59 -483h-168l7 57c-20 -25.333 -44 -44.166 -72 -56.499s-58 -18.5 -90 -18.5c-31.333 0 -59 5 -83 15s-45 26 -63 48c-17.333 20 -30.5 43.833 -39.5 71.5s-13.5 59.5 -13.5 95.5c0 44.667 6.83301 86.5 20.5 125.5s34.5 71.833 62.5 98.5
c22 21.333 47.5 37.5 76.5 48.5s59.833 16.5 92.5 16.5c36.667 0 67.667 -6.83301 93 -20.5s45.666 -32.5 60.999 -56.5zM313.001 125.999c16.667 0 32.002 2.66797 46.002 8.00098s26.667 14.333 38 27c10.667 11.333 18.667 25.166 24 41.499s8 33.833 8 52.5
c0 17.333 -2.33301 32 -7 44s-11 22.667 -19 32c-8.66699 8.66699 -18.334 15 -29.001 19s-23.334 6.33301 -38.001 7c-17.333 -0.666992 -33.166 -3.66699 -47.499 -9s-26.833 -14 -37.5 -26s-18.834 -26.167 -24.501 -42.5s-8.16699 -33.5 -7.5 -51.5
c0 -16 2 -30.333 6 -43s10.667 -23.667 20 -33c8 -9.33301 17.5 -16 28.5 -20s24.167 -6 39.5 -6z" />
    <glyph glyph-name="b" unicode="b" horiz-adv-x="638" 
d="M124 735l175.001 -0.000976562l-37 -302c18 21.333 40.167 38 66.5 50s55.5 18 87.5 18s60.333 -5.66699 85 -17s45.667 -26.666 63 -45.999c18 -21.333 31.167 -46 39.5 -74s12.5 -59 12.5 -93c0 -46.667 -6.83301 -89 -20.5 -127s-34.834 -70.333 -63.501 -97
c-22 -20.667 -48.167 -36.5 -78.5 -47.5s-62.5 -16.833 -96.5 -17.5c-32.667 0 -61.5 6.33301 -86.5 19s-45.5 32 -61.5 58l-7 -59h-168zM319.001 125.999c16.667 0 32.001 2.66602 46.001 7.99902s26.667 14.333 38 27c10.667 11.333 18.5 25.166 23.5 41.499
s7.83301 33.833 8.5 52.5c0 17.333 -2.33301 32 -7 44s-11 22.667 -19 32c-8.66699 8.66699 -18.334 15.167 -29.001 19.5s-23.334 6.5 -38.001 6.5c-17.333 -0.666992 -33.166 -3.66699 -47.499 -9s-26.833 -14 -37.5 -26s-18.667 -26.167 -24 -42.5s-8 -33.5 -8 -51.5
c0 -16 2 -30.333 6 -43s10.667 -23.667 20 -33c8 -9.33301 17.5 -16.166 28.5 -20.499s24.167 -6.16602 39.5 -5.49902z" />
    <glyph glyph-name="c" unicode="c" horiz-adv-x="459" 
d="M428 172l-18.998 -152.998c-20 -11.333 -43.5 -20.333 -70.5 -27s-54.167 -10 -81.5 -10c-36.667 0 -69 6 -97 18s-51.333 28.667 -70 50c-17.333 18.667 -30.333 40.667 -39 66s-13 55.333 -13 90c0 50 8.16699 94.667 24.5 134s38.833 71.666 67.5 96.999
c24 21.333 52.167 37.333 84.5 48s66.166 16 101.499 16c26.667 0 53 -3.5 79 -10.5s49 -16.167 69 -27.5l-19 -152c-14.667 15.333 -31.667 27.5 -51 36.5s-38.666 13.5 -57.999 13.5c-16.667 0 -31.834 -3 -45.501 -9s-25.5 -14 -35.5 -24
c-12 -12.667 -21 -27.834 -27 -45.501s-9 -37.5 -9 -59.5c0 -18.667 2.33301 -34.334 7 -47.001s11.334 -22.667 20.001 -30c7.33301 -7.33301 16.666 -12.833 27.999 -16.5s24.666 -5.5 39.999 -5.5c17.333 0 35.5 3.83301 54.5 11.5s38.833 19.834 59.5 36.501z" />
    <glyph glyph-name="d" unicode="d" horiz-adv-x="638" 
d="M438 424l37 311h175l-90 -735h-168l7 57c-20 -25.333 -44 -44.166 -72 -56.499s-58 -18.5 -90 -18.5c-31.333 0 -59 5 -83 15s-45 26 -63 48c-17.333 20 -30.5 43.833 -39.5 71.5s-13.5 59.5 -13.5 95.5c0 44.667 6.83301 86.5 20.5 125.5s34.5 71.833 62.5 98.5
c21.333 20.667 46.5 36.5 75.5 47.5s60.167 16.833 93.5 17.5c33.333 -0.666992 62.5 -7.33398 87.5 -20.001s45.167 -31.667 60.5 -57zM313 126c16.667 0 32.002 2.66797 46.002 8.00098s26.667 14.333 38 27c10.667 11.333 18.667 25.166 24 41.499s8 33.833 8 52.5
c0 17.333 -2.33301 32 -7 44s-11 22.667 -19 32c-8.66699 8.66699 -18.334 15 -29.001 19s-23.334 6.33301 -38.001 7c-17.333 -0.666992 -33.166 -3.66699 -47.499 -9s-26.833 -14 -37.5 -26s-18.834 -26.167 -24.501 -42.5s-8.16699 -33.5 -7.5 -51.5
c0 -16 2 -30.333 6 -43s10.667 -23.667 20 -33c8 -9.33301 17.5 -16 28.5 -20s24.167 -6 39.5 -6z" />
    <glyph glyph-name="e" unicode="e" horiz-adv-x="592" 
d="M386 147l168.002 -0.00390625c-10 -22 -22.167 -42.167 -36.5 -60.5s-29.833 -33.833 -46.5 -46.5c-26.667 -20.667 -55.667 -35.5 -87 -44.5s-65.333 -13.5 -102 -13.5c-38.667 0 -73.334 5.16699 -104.001 15.5s-57.334 27.5 -80.001 51.5
c-19.333 19.333 -34.166 42.333 -44.499 69s-15.5 58 -15.5 94c0 42.667 7.16699 82.834 21.5 120.501s35.833 69.834 64.5 96.501c24.667 22.667 53.667 40.334 87 53.001s72.333 19 117 19c48 0 88.167 -7.66699 120.5 -23s58.5 -37 78.5 -65
c14 -20.667 24.333 -43.667 31 -69s10 -54 10 -86c0 -10 -0.333008 -19.5 -1 -28.5l-2 -26.5h-369c-0.666992 -3.33301 -1 -6.5 -1 -9.5v-9.5c0 -15.333 2.16699 -28.833 6.5 -40.5s10.5 -21.5 18.5 -29.5c8 -8.66699 18.333 -15.5 31 -20.5s26 -7.16699 40 -6.5
c12.667 -0.666992 24.667 0.833008 36 4.5s21.666 9.16699 30.999 16.5c6 4.66699 11.333 10.334 16 17.001s8.66699 14 12 22zM213.002 297.996h196c0 11.333 -1.5 23 -4.5 35s-7.5 22.333 -13.5 31c-8 10 -17.833 17.667 -29.5 23s-25.834 8.33301 -42.501 9
c-15.333 0 -29.333 -2.66699 -42 -8s-23.667 -13.333 -33 -24c-8.66699 -9.33301 -15.667 -19.833 -21 -31.5s-8.66602 -23.167 -9.99902 -34.5z" />
    <glyph glyph-name="f" unicode="f" horiz-adv-x="357" 
d="M48 0l44.001 357h-63l15 126h63l12 95c2.66699 24 7 43.833 13 59.5s14 29.834 24 42.501c16.667 22 38.667 38.5 66 49.5s59.333 16.5 96 16.5c14 0 29.833 -1 47.5 -3s35.167 -4.66699 52.5 -8l-15 -128c-8.66699 4 -16.834 7.16699 -24.501 9.5s-15.167 3.5 -22.5 3.5
c-12 -0.666992 -22.333 -3.33398 -31 -8.00098s-15.667 -11 -21 -19c-4 -6 -7 -12.333 -9 -19s-3.66699 -16 -5 -28l-8 -63h105l-15 -126h-105l-44 -357h-175z" />
    <glyph glyph-name="g" unicode="g" horiz-adv-x="638" 
d="M444 424l7 59.0029h168l-57 -469c-5.33301 -40.667 -17.666 -76.834 -36.999 -108.501s-43.666 -57.834 -72.999 -78.501c-26.667 -18 -54.834 -31 -84.501 -39s-63.167 -12 -100.5 -12c-42 0 -77.5 4.33301 -106.5 13s-53.833 21.667 -74.5 39
s-36.334 37.5 -47.001 60.5s-16 47.167 -16 72.5h189c-1.33301 -6.66699 -0.833008 -13 1.5 -19s6.16602 -12 11.499 -18c6.66699 -7.33301 14.667 -12.833 24 -16.5s20.333 -5.5 33 -5.5c34 0 59.833 9 77.5 27s29.167 46.333 34.5 85l6 48
c-20 -20.667 -43.667 -36.167 -71 -46.5s-57.333 -15.5 -90 -15.5c-32 0 -59.5 4.66699 -82.5 14s-43.5 24 -61.5 44c-19.333 20.667 -33.666 44.667 -42.999 72s-14 57.666 -14 90.999c0 45.333 7.33301 86.5 22 123.5s34.667 67.5 60 91.5c22 20.667 47.5 36.5 76.5 47.5
s60.167 16.833 93.5 17.5c34 0 64 -6.5 90 -19.5s47.333 -32.167 64 -57.5zM318 140.003c15.333 -0.666992 29.999 1.99902 43.999 7.99902s26 14.333 36 25s17.833 23.834 23.5 39.501s8.5 32.834 8.5 51.501c-0.666992 17.333 -3 31.333 -7 42s-10.667 20.667 -20 30
c-9.33301 8 -18.833 14.167 -28.5 18.5s-22.167 6.5 -37.5 6.5c-18 0 -34.333 -3 -49 -9s-27 -14 -37 -24c-10 -10.667 -17.833 -23.834 -23.5 -39.501s-8.5 -32.5 -8.5 -50.5c0 -14.667 2.16699 -28 6.5 -40s11.5 -22.667 21.5 -32
c8.66699 -8.66699 18.834 -15.167 30.501 -19.5s25.167 -6.5 40.5 -6.5z" />
    <glyph glyph-name="h" unicode="h" horiz-adv-x="609" 
d="M34 0l90 735.001h175l-38 -308c8.66699 10 18.5 19.167 29.5 27.5s22.833 15.833 35.5 22.5c15.333 8 31.5 13.833 48.5 17.5s34.833 5.83398 53.5 6.50098c23.333 -0.666992 44 -4.33398 62 -11.001s33.333 -16 46 -28c14 -14.667 24.167 -32 30.5 -52
s9.83301 -43 10.5 -69c0 -10 -0.5 -19.833 -1.5 -29.5s-1.83301 -19.5 -2.5 -29.5l-35 -282h-175l33 266c0 4.66699 0.333008 9.5 1 14.5s1 10.167 1 15.5c0 20 -5 35.167 -15 45.5s-23.667 15.5 -41 15.5c-16.667 -0.666992 -32 -5.33398 -46 -14.001
s-25.333 -19.667 -34 -33c-6.66699 -10 -12 -21 -16 -33s-6.66699 -25 -8 -39l-29 -238h-175z" />
    <glyph glyph-name="i" unicode="i" horiz-adv-x="290" 
d="M95 483h175l-59 -483h-175zM207 715c24.667 0 44.834 -7.83301 60.501 -23.5s23.5 -36.167 23.5 -61.5c-0.666992 -30.667 -10.834 -54.834 -30.501 -72.501s-42.834 -26.5 -69.501 -26.5c-25.333 0 -45.666 7.66699 -60.999 23s-23 36 -23 62
c0 30 9.83301 53.833 29.5 71.5s43.167 26.834 70.5 27.501z" />
    <glyph glyph-name="j" unicode="j" horiz-adv-x="290" 
d="M95 483h175l-85 -693h-175zM207 715c24.667 0 44.834 -7.83301 60.501 -23.5s23.5 -36.167 23.5 -61.5c-0.666992 -30.667 -10.834 -54.834 -30.501 -72.501s-42.834 -26.5 -69.501 -26.5c-25.333 0 -45.666 7.66699 -60.999 23s-23 36 -23 62
c0 30 9.83301 53.833 29.5 71.5s43.167 26.834 70.5 27.501z" />
    <glyph glyph-name="k" unicode="k" horiz-adv-x="626" 
d="M34 0l90 735h175l-53 -437l186 185h217l-248 -227l214 -256h-228l-153 200l-25 -200h-175z" />
    <glyph glyph-name="l" unicode="l" horiz-adv-x="287" 
d="M34 0l90 735h175l-90 -735h-175z" />
    <glyph glyph-name="m" unicode="m" horiz-adv-x="896" 
d="M262 432c8 8 16.8311 15.6641 26.498 22.9971s19.5 13.666 29.5 18.999c14.667 8 31.334 14.5 50.001 19.5s37.334 7.5 56.001 7.5c18 0 34.5 -2 49.5 -6s28.5 -9.66699 40.5 -17c10.667 -7.33301 19.5 -15.166 26.5 -23.499s12.833 -17.5 17.5 -27.5
c9.33301 10 19.333 19.5 30 28.5s21.334 16.5 32.001 22.5c14 7.33301 29 13 45 17s33 6 51 6c26 0 48 -3.5 66 -10.5s33.667 -17.167 47 -30.5c13.333 -14 22.833 -30 28.5 -48s8.5 -39.667 8.5 -65c0 -4.66699 -0.166992 -8.5 -0.5 -11.5s-0.5 -5.83301 -0.5 -8.5
l-40 -327h-175l35 282v7.5c0 3 0.333008 6.5 1 10.5c0 18.667 -4.33301 32.834 -13 42.501s-20.334 14.5 -35.001 14.5s-27.834 -3.66699 -39.501 -11s-21.5 -16.666 -29.5 -27.999c-6 -8 -10.5 -16.167 -13.5 -24.5s-5.16699 -19.833 -6.5 -34.5l-32 -259h-175l35 282
c2.66699 24 -0.166016 42.5 -8.49902 55.5s-21.166 19.5 -38.499 19.5c-14.667 0 -27.834 -3.66699 -39.501 -11s-21.5 -16.666 -29.5 -27.999c-6 -8 -10.5 -16.167 -13.5 -24.5s-5.16699 -19.833 -6.5 -34.5l-32 -259h-175l59 483h175z" />
    <glyph glyph-name="n" unicode="n" horiz-adv-x="609" 
d="M34 0l59 483.001h175l-7 -56c8.66699 10 18.5 19.167 29.5 27.5s22.833 15.833 35.5 22.5c15.333 8 31.5 13.833 48.5 17.5s34.833 5.83398 53.5 6.50098c23.333 -0.666992 44 -4.33398 62 -11.001s33.333 -16 46 -28c14 -14.667 24.167 -32 30.5 -52
s9.83301 -43 10.5 -69c0 -10 -0.5 -19.833 -1.5 -29.5s-1.83301 -19.5 -2.5 -29.5l-35 -282h-175l33 266c0 4.66699 0.333008 9.5 1 14.5s1 10.167 1 15.5c0 20 -5 35.167 -15 45.5s-23.667 15.5 -41 15.5c-16.667 -0.666992 -32 -5.33398 -46 -14.001
s-25.333 -19.667 -34 -33c-6.66699 -10 -12 -21 -16 -33s-6.66699 -25 -8 -39l-29 -238h-175z" />
    <glyph glyph-name="o" unicode="o" horiz-adv-x="638" 
d="M352 501c38 0 72.166 -4.33105 102.499 -12.998s57.5 -22.334 81.5 -41.001c26 -21.333 45.833 -46.5 59.5 -75.5s20.5 -62.5 20.5 -100.5c0 -48 -9.66699 -92 -29 -132s-47 -73 -83 -99c-27.333 -20 -57.666 -34.5 -90.999 -43.5s-70.333 -13.833 -111 -14.5
c-38.667 0 -73.167 4.16699 -103.5 12.5s-57.166 22.166 -80.499 41.499c-26.667 20.667 -46.667 45.5 -60 74.5s-20 62.833 -20 101.5c0 47.333 9.5 91 28.5 131s46.833 73.333 83.5 100c26.667 19.333 56.667 33.833 90 43.5s70.666 14.5 111.999 14.5zM313.999 108.002
c17.333 0 32.665 2.83203 45.998 8.49902s25 13.834 35 24.501c12 13.333 21.667 31.833 29 55.5s11 47.5 11 71.5c0 17.333 -2.33301 32.5 -7 45.5s-11 24.167 -19 33.5c-8.66699 8.66699 -19.167 15.5 -31.5 20.5s-25.166 7.5 -38.499 7.5c-16 0 -31 -2.83301 -45 -8.5
s-26 -13.834 -36 -24.501c-13.333 -14.667 -23.166 -33.167 -29.499 -55.5s-9.5 -46.166 -9.5 -71.499c0 -19.333 2 -35.333 6 -48s10.333 -23 19 -31c8 -9.33301 18.167 -16.333 30.5 -21s25.5 -7 39.5 -7z" />
    <glyph glyph-name="p" unicode="p" horiz-adv-x="638" 
d="M93 483l168.004 -0.000976562l-6 -50c17.333 20 39.666 36.333 66.999 49s58.666 19 93.999 19c29.333 0 56.666 -5.16699 81.999 -15.5s47.333 -26.166 66 -47.499c18 -21.333 31.167 -46 39.5 -74s12.5 -59 12.5 -93c0 -46.667 -6.83301 -89 -20.5 -127
s-34.834 -70.333 -63.501 -97c-22 -20.667 -48.333 -36.667 -79 -48s-62.667 -17 -96 -17s-61.833 6.66699 -85.5 20s-42.5 32.333 -56.5 57l-32 -269h-175zM319.004 125.999c16.667 0 32.001 2.66602 46.001 7.99902s26.667 14.333 38 27
c10.667 11.333 18.5 25.166 23.5 41.499s7.83301 33.833 8.5 52.5c0 17.333 -2.33301 32 -7 44s-11 22.667 -19 32c-8.66699 8.66699 -18.334 15.167 -29.001 19.5s-23.334 6.5 -38.001 6.5c-17.333 -0.666992 -33.166 -3.66699 -47.499 -9s-26.833 -14 -37.5 -26
s-18.667 -26.167 -24 -42.5s-8 -33.5 -8 -51.5c0 -16 2 -30.333 6 -43s10.667 -23.667 20 -33c8 -9.33301 17.5 -16.166 28.5 -20.499s24.167 -6.16602 39.5 -5.49902z" />
    <glyph glyph-name="q" unicode="q" horiz-adv-x="638" 
d="M444 424l6.99902 58.999h168l-85 -693h-175l33 267c-18 -24 -40 -42.5 -66 -55.5s-55.667 -19.5 -89 -19.5c-31.333 0.666992 -59 5.83398 -83 15.501s-45 25.5 -63 47.5c-17.333 20 -30.666 43.833 -39.999 71.5s-13.666 59.5 -12.999 95.5
c0 44.667 6.83301 86.5 20.5 125.5s34.5 71.833 62.5 98.5c22 21.333 47.5 37.5 76.5 48.5s59.833 16.5 92.5 16.5c36.667 0 67.667 -6.83301 93 -20.5s45.666 -32.5 60.999 -56.5zM312.999 125.999c16.667 0 32.002 2.66797 46.002 8.00098s26.667 14.333 38 27
c10.667 11.333 18.667 25.166 24 41.499s8 33.833 8 52.5c0 17.333 -2.33301 32 -7 44s-11 22.667 -19 32c-8.66699 8.66699 -18.334 15 -29.001 19s-23.334 6.33301 -38.001 7c-17.333 -0.666992 -33.166 -3.66699 -47.499 -9s-26.833 -14 -37.5 -26
s-18.834 -26.167 -24.501 -42.5s-8.16699 -33.5 -7.5 -51.5c0 -16 2 -30.333 6 -43s10.667 -23.667 20 -33c4 -4.66699 8.5 -8.66699 13.5 -12s10.5 -6 16.5 -8c4.66699 -2 10.167 -3.5 16.5 -4.5s13.5 -1.5 21.5 -1.5z" />
    <glyph glyph-name="r" unicode="r" horiz-adv-x="413" 
d="M34 0l59.002 483h168l-7 -63c2 3.33301 4.5 6.5 7.5 9.5l9.5 9.5c5.33301 5.33301 11.166 10.5 17.499 15.5s12.833 9.5 19.5 13.5c13.333 8 28 14.333 44 19s33 7 51 7c5.33301 0 11.5 -0.5 18.5 -1.5s14.5 -1.83301 22.5 -2.5l-19 -154
c-7.33301 2.66699 -14.5 4.66699 -21.5 6s-14.833 2 -23.5 2c-26.667 -0.666992 -49.667 -6 -69 -16s-35.333 -24.333 -48 -43c-8.66699 -12 -15.334 -24.5 -20.001 -37.5s-7.66699 -26.833 -9 -41.5l-25 -206h-175z" />
    <glyph glyph-name="s" unicode="s" horiz-adv-x="466" 
d="M3 32l63.999 120.998c8 -6 17 -11.667 27 -17s19.333 -9.66602 28 -12.999c11.333 -5.33301 23.166 -9.16602 35.499 -11.499s25.166 -3.5 38.499 -3.5c18 0 31.667 3.5 41 10.5s14 15.833 14 26.5c0 10 -4 18 -12 24s-21 10.333 -39 13
c-26.667 2.66699 -49.5 7.66699 -68.5 15s-34.167 17.333 -45.5 30c-10 10 -17.667 22 -23 36s-7.66602 31 -6.99902 51c0 32 5.5 60 16.5 84s27.5 44.333 49.5 61c17.333 12.667 38 22.834 62 30.501s51.667 11.5 83 11.5c17.333 -0.666992 36.833 -2.33398 58.5 -5.00098
s41.834 -6 60.501 -10c13.333 -4 25.833 -8.16699 37.5 -12.5s23.167 -9.16602 34.5 -14.499l-68 -112c-7.33301 4.66699 -15.166 9.33398 -23.499 14.001s-15.833 8.66699 -22.5 12c-10 3.33301 -20.167 6.33301 -30.5 9s-20.5 4 -30.5 4
c-19.333 0 -33.833 -4.16699 -43.5 -12.5s-14.5 -18.166 -14.5 -29.499c-0.666992 -10 2 -18.167 8 -24.5s15.667 -10.833 29 -13.5c8 -2 21.833 -4.16699 41.5 -6.5s36.834 -6.16602 51.501 -11.499c22.667 -9.33301 40.5 -23.333 53.5 -42s19.5 -42.667 19.5 -72
c0 -34 -6.5 -63.833 -19.5 -89.5s-31.5 -46.5 -55.5 -62.5c-18.667 -12.667 -41.834 -22.334 -69.501 -29.001s-57.5 -10.334 -89.5 -11.001c-20 0.666992 -41 2.5 -63 5.5s-41.667 7.16699 -59 12.5c-11.333 3.33301 -23 7.66602 -35 12.999s-23.333 11.666 -34 18.999z
" />
    <glyph glyph-name="t" unicode="t" horiz-adv-x="350" 
d="M48 0l44 357h-63l15 126h63l17 133h175l-17 -133h98l-15 -126h-98l-44 -357h-175z" />
    <glyph glyph-name="u" unicode="u" horiz-adv-x="602" 
d="M86 483l175.004 0.00195312l-32 -264c-0.666992 -6 -1.16699 -11.333 -1.5 -16s-0.5 -9.33398 -0.5 -14.001c0 -12 2 -22.333 6 -31s10.333 -15.667 19 -21c5.33301 -4 11.5 -6.83301 18.5 -8.5s14.833 -2.5 23.5 -2.5c13.333 0 26.166 2.5 38.499 7.5
s22.5 12.5 30.5 22.5c4.66699 6 8.66699 14.167 12 24.5s6 23.166 8 38.499l32 264h175l-32 -260c-4.66699 -37.333 -11.834 -67.666 -21.501 -90.999s-22.5 -44 -38.5 -62c-25.333 -29.333 -57 -51.333 -95 -66s-80 -22 -126 -22c-28 0 -53.833 2.83301 -77.5 8.5
s-44.167 13.5 -61.5 23.5c-30 17.333 -51.833 40.166 -65.5 68.499s-20.5 62.5 -20.5 102.5c-0.666992 7.33301 -0.833984 14 -0.500977 20s1.16602 12 2.49902 18z" />
    <glyph glyph-name="v" unicode="v" horiz-adv-x="540" 
d="M193 0l-167 483h186l78 -259l120 259h178l-257 -483h-138z" />
    <glyph glyph-name="w" unicode="w" horiz-adv-x="784" 
d="M401 252l-112 -252h-126l-137 483h168l64 -259l109 259h120l51 -259l122 259h172l-251 -483h-126z" />
    <glyph glyph-name="x" unicode="x" horiz-adv-x="602" 
d="M-29 0l244 258l-150 225h206l69 -129l97 129h202l-210 -227l158 -256h-200l-80 158l-122 -158h-214z" />
    <glyph glyph-name="y" unicode="y" horiz-adv-x="608" 
d="M26 483h200l103 -259l145 259h182l-428 -693h-196l182 280z" />
    <glyph glyph-name="z" unicode="z" horiz-adv-x="518" 
d="M65 483h483l-285 -357h220l-15 -126h-490l288 357h-216z" />
    <glyph glyph-name="braceleft" unicode="{" horiz-adv-x="512" 
d="M116 196l11.998 100.001c8.66699 0 17.167 1.5 25.5 4.5s17.833 8.16699 28.5 15.5c11.333 8 20.5 16.5 27.5 25.5s13.167 20.833 18.5 35.5c4 12 7.33301 25.833 10 41.5s5 39.5 7 71.5c1.33301 30.667 3.5 54 6.5 70s7.83301 31.667 14.5 47
c8.66699 22 20 40.167 34 54.5s30.333 25.833 49 34.5c14.667 6.66699 32.334 11.834 53.001 15.501s41.334 5.16699 62.001 4.5l-10 -80c-12 -1.33301 -23.5 -4 -34.5 -8s-20.167 -9 -27.5 -15c-10 -8 -17.833 -17.167 -23.5 -27.5s-9.5 -24.5 -11.5 -42.5
c-2 -10 -3.33301 -20.833 -4 -32.5s-1.33398 -27.5 -2.00098 -47.5c-1.33301 -27.333 -2.5 -46.666 -3.5 -57.999s-2.16699 -21.666 -3.5 -30.999c-3.33301 -20 -8.33301 -36.667 -15 -50s-16 -25 -28 -35c-10 -8.66699 -22.667 -16.5 -38 -23.5
s-30.666 -12.167 -45.999 -15.5l-1 -8c11.333 -2.66699 22.833 -6.83398 34.5 -12.501s22.167 -12.5 31.5 -20.5c10.667 -10.667 18.5 -22.334 23.5 -35.001s7.5 -27 7.5 -43c0 -11.333 -1.16699 -24.5 -3.5 -39.5s-6.16602 -35.833 -11.499 -62.5
c-6 -26 -9.83301 -46 -11.5 -60s-2.5 -27 -2.5 -39c0 -11.333 1.66699 -21 5 -29s9 -15.667 17 -23c6 -5.33301 13.667 -10 23 -14s19 -6.66699 29 -8l-10 -80c-18 -0.666992 -37 0.666016 -57 3.99902s-37.333 8.66602 -52 15.999c-22.667 12 -39.167 27.167 -49.5 45.5
s-15.5 40.833 -15.5 67.5c0 12.667 0.5 26.167 1.5 40.5s3.16699 31.833 6.5 52.5c7.33301 53.333 11.333 83.5 12 90.5s1 13.5 1 19.5c0 14 -2.83301 26.667 -8.5 38s-13.167 21 -22.5 29c-6.66699 4.66699 -14.334 8.5 -23.001 11.5s-17 4.83301 -25 5.5z" />
    <glyph glyph-name="bar" unicode="|" horiz-adv-x="504" 
d="M212 -262v1049h100v-1049h-100z" />
    <glyph glyph-name="braceright" unicode="}" horiz-adv-x="512" 
d="M412 296l-12.002 -100.002c-9.33301 -0.666992 -18.166 -2.5 -26.499 -5.5s-17.5 -7.83301 -27.5 -14.5c-12 -8.66699 -21.5 -17.5 -28.5 -26.5s-12.833 -20.5 -17.5 -34.5c-4.66699 -12.667 -8.33398 -26.834 -11.001 -42.501s-4.66699 -39.167 -6 -70.5
c-2 -30.667 -4.5 -54 -7.5 -70s-7.5 -31.667 -13.5 -47c-9.33301 -22 -21 -40.167 -35 -54.5s-30 -25.833 -48 -34.5c-15.333 -6.66699 -33.333 -11.834 -54 -15.501s-41 -5.16699 -61 -4.5l10 80c11.333 1.33301 22.5 4 33.5 8s20.5 9 28.5 15
c9.33301 8 16.833 17.167 22.5 27.5s9.83398 24.5 12.501 42.5c1.33301 10 2.33301 20.833 3 32.5s1.66699 27.5 3 47.5c0.666992 26.667 1.5 45.667 2.5 57s2.5 22 4.5 32c2.66699 19.333 7.33398 35.666 14.001 48.999s16.334 25.333 29.001 36
c9.33301 8 21.666 15.5 36.999 22.5s31 12.5 47 16.5l1 8c-12 2 -23.833 5.83301 -35.5 11.5s-21.834 12.834 -30.501 21.501c-11.333 10 -19.333 21.333 -24 34s-7 27.334 -7 44.001c-0.666992 10.667 0.166016 23.5 2.49902 38.5s6.5 36.167 12.5 63.5
c5.33301 26 9 46 11 60s3 27 3 39c0 11.333 -1.83301 21 -5.5 29s-9.16699 15.667 -16.5 23c-6.66699 5.33301 -14.667 10 -24 14s-18.666 6.66699 -27.999 8l10 80c17.333 0.666992 36 -0.666016 56 -3.99902s37.667 -8.66602 53 -15.999c22 -12 38.333 -27.167 49 -45.5
s16 -40.833 16 -67.5c-0.666992 -12.667 -1.5 -26.167 -2.5 -40.5s-2.83301 -31.833 -5.5 -52.5c-8 -54 -12.333 -84.5 -13 -91.5s-0.666992 -13.167 0 -18.5c-0.666992 -14.667 1.83301 -27.667 7.5 -39s13.5 -20.666 23.5 -27.999c6 -5.33301 13.333 -9.5 22 -12.5
s17.334 -4.5 26.001 -4.5z" />
    <glyph glyph-name="asciitilde" unicode="~" horiz-adv-x="700" 
d="M588 441l59.002 -44.002c-11.333 -19.333 -24.833 -37.666 -40.5 -54.999s-32.167 -31.666 -49.5 -42.999c-14.667 -10 -30 -17.333 -46 -22s-32.667 -7 -50 -7c-14 0 -28.833 1.83301 -44.5 5.5s-39.5 12.834 -71.5 27.501c-21.333 9.33301 -39 16.333 -53 21
s-25.333 7 -34 7c-11.333 0 -22.833 -2.16699 -34.5 -6.5s-22.167 -9.83301 -31.5 -16.5c-7.33301 -5.33301 -14.166 -11.166 -20.499 -17.499s-11.833 -13.166 -16.5 -20.499l-58 44c10 15.333 21.167 30.166 33.5 44.499s24.833 27.166 37.5 38.499
c17.333 14.667 34.666 25.667 51.999 33s35.666 11 54.999 11c15.333 -0.666992 31.5 -3.33398 48.5 -8.00098s38.167 -12.667 63.5 -24c27.333 -13.333 47.166 -21.5 59.499 -24.5s24.5 -4.5 36.5 -4.5s23 1.33301 33 4s19.333 7 28 13c6 4 13.167 10.333 21.5 19
s15.833 17 22.5 25z" />
    <glyph glyph-name="afii10051" horiz-adv-x="776" 
d="M139 0l65.002 532h-154l21 168h588l-21 -168h-238l-14 -117c22 4 43.333 7 64 9s44.334 3 71.001 3c49.333 0 88.166 -4.66699 116.499 -14s52.166 -24 71.499 -44c14 -15.333 24.833 -33.5 32.5 -54.5s11.5 -46.5 11.5 -76.5c-0.666992 -38 -6.5 -71.5 -17.5 -100.5
s-29.167 -54.833 -54.5 -77.5c-23.333 -21.333 -49.833 -37.166 -79.5 -47.499s-66.167 -15.5 -109.5 -15.5c-8.66699 0 -17.334 0.333008 -26.001 1l-25 2l15 126c2 -0.666992 4.33301 -1 7 -1h10c11.333 0 22 1.66699 32 5s18.667 8.33301 26 15s13 14.667 17 24
s6 19.666 6 30.999c0 9.33301 -1.5 18 -4.5 26s-7.16699 15 -12.5 21c-8 7.33301 -18.167 13 -30.5 17s-28.5 6 -48.5 6c-18.667 0 -35 -0.833008 -49 -2.5s-28 -4.16699 -42 -7.5l-32 -260h-196z" />
    <glyph glyph-name="afii10051" unicode="&#x402;" horiz-adv-x="776" 
d="M139 0l65.002 532h-154l21 168h588l-21 -168h-238l-14 -117c22 4 43.333 7 64 9s44.334 3 71.001 3c49.333 0 88.166 -4.66699 116.499 -14s52.166 -24 71.499 -44c14 -15.333 24.833 -33.5 32.5 -54.5s11.5 -46.5 11.5 -76.5c-0.666992 -38 -6.5 -71.5 -17.5 -100.5
s-29.167 -54.833 -54.5 -77.5c-23.333 -21.333 -49.833 -37.166 -79.5 -47.499s-66.167 -15.5 -109.5 -15.5c-8.66699 0 -17.334 0.333008 -26.001 1l-25 2l15 126c2 -0.666992 4.33301 -1 7 -1h10c11.333 0 22 1.66699 32 5s18.667 8.33301 26 15s13 14.667 17 24
s6 19.666 6 30.999c0 9.33301 -1.5 18 -4.5 26s-7.16699 15 -12.5 21c-8 7.33301 -18.167 13 -30.5 17s-28.5 6 -48.5 6c-18.667 0 -35 -0.833008 -49 -2.5s-28 -4.16699 -42 -7.5l-32 -260h-196z" />
    <glyph glyph-name="afii10052" horiz-adv-x="497" 
d="M41 0l86 700h420l-21 -168h-224l-65 -532h-196zM246 746l146 150h224l-237 -150h-133z" />
    <glyph glyph-name="afii10052" unicode="&#x403;" horiz-adv-x="497" 
d="M41 0l86 700h420l-21 -168h-224l-65 -532h-196zM246 746l146 150h224l-237 -150h-133z" />
    <glyph glyph-name="afii10061" horiz-adv-x="700" 
d="M323 700l-36 -294l247 294h230l-308 -344l229 -356h-236l-175 301l-37 -301h-196l86 700h196zM336 746l146 150h224l-237 -150h-133z" />
    <glyph glyph-name="afii10061" unicode="&#x40c;" horiz-adv-x="700" 
d="M323 700l-36 -294l247 294h230l-308 -344l229 -356h-236l-175 301l-37 -301h-196l86 700h196zM336 746l146 150h224l-237 -150h-133z" />
    <glyph glyph-name="afii10060" horiz-adv-x="776" 
d="M139 0l64.998 532h-154l21 168h588l-21 -168h-238l-14 -115c22.667 3.33301 43.834 5.83301 63.501 7.5s39.834 2.5 60.501 2.5c38.667 0 72 -3.16699 100 -9.5s51 -15.5 69 -27.5c19.333 -14 34.5 -32.333 45.5 -55s16.833 -49.334 17.5 -80.001
c0 -8 -0.5 -16.5 -1.5 -25.5s-2.16699 -21.167 -3.5 -36.5l-24 -193h-196l20 165c0.666992 9.33301 1.33398 16.833 2.00098 22.5s1 11.167 1 16.5c0 14.667 -2.83301 26.334 -8.5 35.001s-14.5 15.667 -26.5 21c-8 2.66699 -17.667 5 -29 7s-23 3 -35 3
c-9.33301 0 -21.833 -0.833008 -37.5 -2.5s-27.834 -3.16699 -36.501 -4.5l-32 -263h-196z" />
    <glyph glyph-name="afii10060" unicode="&#x40b;" horiz-adv-x="776" 
d="M139 0l64.998 532h-154l21 168h588l-21 -168h-238l-14 -115c22.667 3.33301 43.834 5.83301 63.501 7.5s39.834 2.5 60.501 2.5c38.667 0 72 -3.16699 100 -9.5s51 -15.5 69 -27.5c19.333 -14 34.5 -32.333 45.5 -55s16.833 -49.334 17.5 -80.001
c0 -8 -0.5 -16.5 -1.5 -25.5s-2.16699 -21.167 -3.5 -36.5l-24 -193h-196l20 165c0.666992 9.33301 1.33398 16.833 2.00098 22.5s1 11.167 1 16.5c0 14.667 -2.83301 26.334 -8.5 35.001s-14.5 15.667 -26.5 21c-8 2.66699 -17.667 5 -29 7s-23 3 -35 3
c-9.33301 0 -21.833 -0.833008 -37.5 -2.5s-27.834 -3.16699 -36.501 -4.5l-32 -263h-196z" />
    <glyph glyph-name="afii10145" horiz-adv-x="750" 
d="M751 700l-86 -700h-228l-26 -210h-168l26 210h-228l86 700h196l-65 -532h232l65 532h196z" />
    <glyph glyph-name="afii10145" unicode="&#x40f;" horiz-adv-x="750" 
d="M751 700l-86 -700h-228l-26 -210h-168l26 210h-228l86 700h196l-65 -532h232l65 532h196z" />
    <glyph glyph-name="afii10099" horiz-adv-x="609" 
d="M34 0l70 567.003h-84l12 98h84l8 70h175l-8 -70h210l-12 -98h-210l-18 -140c8.66699 10 18.5 19.167 29.5 27.5s22.833 15.833 35.5 22.5c15.333 8 31.5 14 48.5 18s34.833 6 53.5 6c23.333 -0.666992 44 -4.33398 62 -11.001s33.333 -16 46 -28
c14 -14.667 24.167 -32 30.5 -52s9.83301 -43 10.5 -69c0 -8.66699 -0.333008 -17.834 -1 -27.501s-1.66699 -20.167 -3 -31.5l-41 -334c-4 -29.333 -10.333 -53.5 -19 -72.5s-20 -35.833 -34 -50.5c-18 -17.333 -39 -29.666 -63 -36.999s-53 -11.333 -87 -12
c-14.667 0 -29.167 1 -43.5 3s-29.833 4.66699 -46.5 8l15 126c4.66699 -1.33301 9.33398 -2.33301 14.001 -3s9.66699 -1 15 -1c12 0 23 2.16699 33 6.5s18.333 10.166 25 17.499c5.33301 7.33301 9.66602 15.833 12.999 25.5s6 21.5 8 35.5l34 272
c0 4.66699 0.333008 9.5 1 14.5s1 10.167 1 15.5c0 20 -5 35.167 -15 45.5s-23.667 15.5 -41 15.5c-16.667 -0.666992 -32 -5.33398 -46 -14.001s-25.333 -19.667 -34 -33c-6.66699 -10 -12 -21 -16 -33s-6.66699 -25 -8 -39l-29 -238h-175z" />
    <glyph glyph-name="afii10099" unicode="&#x452;" horiz-adv-x="609" 
d="M34 0l70 567.003h-84l12 98h84l8 70h175l-8 -70h210l-12 -98h-210l-18 -140c8.66699 10 18.5 19.167 29.5 27.5s22.833 15.833 35.5 22.5c15.333 8 31.5 14 48.5 18s34.833 6 53.5 6c23.333 -0.666992 44 -4.33398 62 -11.001s33.333 -16 46 -28
c14 -14.667 24.167 -32 30.5 -52s9.83301 -43 10.5 -69c0 -8.66699 -0.333008 -17.834 -1 -27.501s-1.66699 -20.167 -3 -31.5l-41 -334c-4 -29.333 -10.333 -53.5 -19 -72.5s-20 -35.833 -34 -50.5c-18 -17.333 -39 -29.666 -63 -36.999s-53 -11.333 -87 -12
c-14.667 0 -29.167 1 -43.5 3s-29.833 4.66699 -46.5 8l15 126c4.66699 -1.33301 9.33398 -2.33301 14.001 -3s9.66699 -1 15 -1c12 0 23 2.16699 33 6.5s18.333 10.166 25 17.499c5.33301 7.33301 9.66602 15.833 12.999 25.5s6 21.5 8 35.5l34 272
c0 4.66699 0.333008 9.5 1 14.5s1 10.167 1 15.5c0 20 -5 35.167 -15 45.5s-23.667 15.5 -41 15.5c-16.667 -0.666992 -32 -5.33398 -46 -14.001s-25.333 -19.667 -34 -33c-6.66699 -10 -12 -21 -16 -33s-6.66699 -25 -8 -39l-29 -238h-175z" />
    <glyph glyph-name="afii10109" horiz-adv-x="598" 
d="M34 0l59 483h175l-24 -197l172 197h212l-227 -231l186 -252h-216l-136 214l-26 -214h-175zM250 539l128 161h224l-219 -161h-133z" />
    <glyph glyph-name="afii10109" unicode="&#x45c;" horiz-adv-x="598" 
d="M34 0l59 483h175l-24 -197l172 197h212l-227 -231l186 -252h-216l-136 214l-26 -214h-175zM250 539l128 161h224l-219 -161h-133z" />
    <glyph glyph-name="afii10108" horiz-adv-x="609" 
d="M34 0l70 567.001h-84l12 98h84l8 70h175l-8 -70h210l-12 -98h-210l-18 -140c8.66699 10 18.5 19.167 29.5 27.5s22.833 15.833 35.5 22.5c15.333 8 31.5 13.833 48.5 17.5s34.833 5.83398 53.5 6.50098c23.333 -0.666992 44 -4.33398 62 -11.001s33.333 -16 46 -28
c14 -14.667 24.167 -32 30.5 -52s9.83301 -43 10.5 -69c0 -10 -0.5 -19.833 -1.5 -29.5s-1.83301 -19.5 -2.5 -29.5l-35 -282h-175l33 266c0 4.66699 0.333008 9.5 1 14.5s1 10.167 1 15.5c0 20 -5 35.167 -15 45.5s-23.667 15.5 -41 15.5
c-16.667 -0.666992 -32 -5.33398 -46 -14.001s-25.333 -19.667 -34 -33c-6.66699 -10 -12 -21 -16 -33s-6.66699 -25 -8 -39l-29 -238h-175z" />
    <glyph glyph-name="afii10108" unicode="&#x45b;" horiz-adv-x="609" 
d="M34 0l70 567.001h-84l12 98h84l8 70h175l-8 -70h210l-12 -98h-210l-18 -140c8.66699 10 18.5 19.167 29.5 27.5s22.833 15.833 35.5 22.5c15.333 8 31.5 13.833 48.5 17.5s34.833 5.83398 53.5 6.50098c23.333 -0.666992 44 -4.33398 62 -11.001s33.333 -16 46 -28
c14 -14.667 24.167 -32 30.5 -52s9.83301 -43 10.5 -69c0 -10 -0.5 -19.833 -1.5 -29.5s-1.83301 -19.5 -2.5 -29.5l-35 -282h-175l33 266c0 4.66699 0.333008 9.5 1 14.5s1 10.167 1 15.5c0 20 -5 35.167 -15 45.5s-23.667 15.5 -41 15.5
c-16.667 -0.666992 -32 -5.33398 -46 -14.001s-25.333 -19.667 -34 -33c-6.66699 -10 -12 -21 -16 -33s-6.66699 -25 -8 -39l-29 -238h-175z" />
    <glyph glyph-name="afii10062" unicode="&#xa1;" horiz-adv-x="686" 
d="M64 700h226l106 -300l155 300h206l-397 -700h-214l119 193zM546 892l106.001 -41.999c-11.333 -18.667 -24.5 -34.834 -39.5 -48.501s-31.5 -24.834 -49.5 -33.501c-20.667 -10.667 -42.334 -18.334 -65.001 -23.001s-45.667 -7 -69 -7c-26 0 -49.667 2.5 -71 7.5
s-40.333 12.833 -57 23.5c-16 9.33301 -29.833 20.5 -41.5 33.5s-20.834 28.833 -27.501 47.5l118 42c2 -10 5.5 -18.5 10.5 -25.5s12.167 -13.167 21.5 -18.5c7.33301 -5.33301 15.666 -9.16602 24.999 -11.499s20.333 -3.5 33 -3.5c11.333 0 22.333 1.16699 33 3.5
s20.334 5.83301 29.001 10.5s16.834 10.834 24.501 18.501s14.167 16.5 19.5 26.5z" />
    <glyph glyph-name="afii10062" unicode="&#x40e;" horiz-adv-x="686" 
d="M64 700h226l106 -300l155 300h206l-397 -700h-214l119 193zM546 892l106.001 -41.999c-11.333 -18.667 -24.5 -34.834 -39.5 -48.501s-31.5 -24.834 -49.5 -33.501c-20.667 -10.667 -42.334 -18.334 -65.001 -23.001s-45.667 -7 -69 -7c-26 0 -49.667 2.5 -71 7.5
s-40.333 12.833 -57 23.5c-16 9.33301 -29.833 20.5 -41.5 33.5s-20.834 28.833 -27.501 47.5l118 42c2 -10 5.5 -18.5 10.5 -25.5s12.167 -13.167 21.5 -18.5c7.33301 -5.33301 15.666 -9.16602 24.999 -11.499s20.333 -3.5 33 -3.5c11.333 0 22.333 1.16699 33 3.5
s20.334 5.83301 29.001 10.5s16.834 10.834 24.501 18.501s14.167 16.5 19.5 26.5z" />
    <glyph glyph-name="afii10110" unicode="&#xa2;" horiz-adv-x="608" 
d="M26 483h200l103 -259l145 259h182l-428 -693h-196l182 280zM357 546c-50.667 0 -92.666 10.167 -125.999 30.5s-55 47.5 -65 81.5l119 42c2 -20 9.5 -34.833 22.5 -44.5s30.833 -14.5 53.5 -14.5c21.333 0 39.666 4.66699 54.999 14s27 24.333 35 45l109 -42
c-18 -35.333 -44.333 -62.833 -79 -82.5s-76 -29.5 -124 -29.5z" />
    <glyph glyph-name="afii10110" unicode="&#x45e;" horiz-adv-x="608" 
d="M26 483h200l103 -259l145 259h182l-428 -693h-196l182 280zM357 546c-50.667 0 -92.666 10.167 -125.999 30.5s-55 47.5 -65 81.5l119 42c2 -20 9.5 -34.833 22.5 -44.5s30.833 -14.5 53.5 -14.5c21.333 0 39.666 4.66699 54.999 14s27 24.333 35 45l109 -42
c-18 -35.333 -44.333 -62.833 -79 -82.5s-76 -29.5 -124 -29.5z" />
    <glyph glyph-name="afii10057" unicode="&#xa3;" horiz-adv-x="490" 
d="M-9 102l137.998 101c0.666992 -7.33301 2.33398 -14.166 5.00098 -20.499s6.33398 -11.833 11.001 -16.5c5.33301 -6.66699 11.333 -11.334 18 -14.001s14.334 -4 23.001 -4c8 -0.666992 15 0.333008 21 3s11.333 6.66699 16 12s8.66699 12.5 12 21.5s6 21.5 8 37.5
l59 478h196l-56 -458c-6 -46.667 -16.167 -86.834 -30.5 -120.501s-32.833 -61.167 -55.5 -82.5c-20.667 -19.333 -44.834 -34 -72.501 -44s-58.167 -15 -91.5 -15c-26.667 0 -50.5 3.33301 -71.5 10s-40.5 16.334 -58.5 29.001c-16 10 -29.833 21.833 -41.5 35.5
s-21.5 29.5 -29.5 47.5z" />
    <glyph glyph-name="afii10057" unicode="&#x408;" horiz-adv-x="490" 
d="M-9 102l137.998 101c0.666992 -7.33301 2.33398 -14.166 5.00098 -20.499s6.33398 -11.833 11.001 -16.5c5.33301 -6.66699 11.333 -11.334 18 -14.001s14.334 -4 23.001 -4c8 -0.666992 15 0.333008 21 3s11.333 6.66699 16 12s8.66699 12.5 12 21.5s6 21.5 8 37.5
l59 478h196l-56 -458c-6 -46.667 -16.167 -86.834 -30.5 -120.501s-32.833 -61.167 -55.5 -82.5c-20.667 -19.333 -44.834 -34 -72.501 -44s-58.167 -15 -91.5 -15c-26.667 0 -50.5 3.33301 -71.5 10s-40.5 16.334 -58.5 29.001c-16 10 -29.833 21.833 -41.5 35.5
s-21.5 29.5 -29.5 47.5z" />
    <glyph glyph-name="currency" unicode="&#xa4;" horiz-adv-x="720" 
d="M132 708l105.003 -104c20.667 15.333 43.167 26.833 67.5 34.5s51.5 11.5 81.5 11.5c29.333 0 56.166 -3.83301 80.499 -11.5s47.166 -19.167 68.499 -34.5l105 104l72 -72l-104 -105c14 -20.667 24.667 -43.167 32 -67.5s11 -50.5 11 -78.5
c0 -28.667 -3.5 -54.834 -10.5 -78.501s-17.833 -45.834 -32.5 -66.501l104 -105l-72 -72l-104 104c-21.333 -16.667 -44.333 -28.667 -69 -36s-51.667 -11 -81 -11c-30 0 -57.333 3.66699 -82 11s-47.334 19.333 -68.001 36l-104 -104l-72 72l104 105
c-15.333 20.667 -26.333 42.834 -33 66.501s-10 49.834 -10 78.501c0 28 3.5 54.167 10.5 78.5s17.833 46.833 32.5 67.5l-104 105zM386.003 232c42.667 -0.666992 78.167 13.332 106.5 41.999s42.5 65.667 42.5 111c0 44.667 -14.167 81.334 -42.5 110.001
s-63.833 43 -106.5 43c-43.333 0 -79 -14.333 -107 -43s-42 -65.334 -42 -110.001c0 -45.333 14 -82.166 42 -110.499s63.667 -42.5 107 -42.5z" />
    <glyph glyph-name="CyrHardG" unicode="&#xa5;" horiz-adv-x="511" 
d="M41 0l86 700h280l17 140h154l-38 -308h-238l-65 -532h-196z" />
    <glyph glyph-name="CyrHardG" unicode="&#x490;" horiz-adv-x="511" 
d="M41 0l86 700h280l17 140h154l-38 -308h-238l-65 -532h-196z" />
    <glyph glyph-name="brokenbar" unicode="&#xa6;" horiz-adv-x="504" 
d="M212 409v378h100v-378h-100zM212 -262v377h100v-377h-100z" />
    <glyph glyph-name="section" unicode="&#xa7;" 
d="M34 6l175.997 0.000976562c-4 -12 -5 -23.833 -3 -35.5s7.33301 -21.167 16 -28.5c4.66699 -4 10.834 -7.33301 18.501 -10s16.5 -4 26.5 -4c9.33301 0 18.166 1.66699 26.499 5s15.5 7.66602 21.5 12.999c5.33301 6 9.5 12.333 12.5 19s4.5 14 4.5 22
c0 13.333 -3.5 24.333 -10.5 33s-18.167 15.334 -33.5 20.001c-4.66699 1.33301 -9.83398 2.5 -15.501 3.5s-17.167 2.83301 -34.5 5.5c-14.667 1.33301 -27.334 3.16602 -38.001 5.49902s-20.334 4.83301 -29.001 7.5c-42 12 -73.833 31.833 -95.5 59.5
s-32.5 62.167 -32.5 103.5c0 26 4.33301 49.833 13 71.5s21.667 41.167 39 58.5c8.66699 8.66699 18.667 16.667 30 24s24 13.666 38 18.999c-20 12 -35.333 27 -46 45s-16 40.333 -16 67c0 28 6.66699 55.667 20 83s33.333 51.333 60 72c24 18.667 50.833 32.5 80.5 41.5
s61.167 13.5 94.5 13.5c38.667 0 72.834 -4.83301 102.501 -14.5s54.167 -23.5 73.5 -41.5c16.667 -17.333 29.334 -38 38.001 -62s12.667 -53.667 12 -89h-168c1.33301 8.66699 1 17.667 -1 27s-5 16.666 -9 21.999c-5.33301 5.33301 -12.333 9.66602 -21 12.999
s-18.334 5 -29.001 5c-10 0 -18.833 -1.33301 -26.5 -4s-14.5 -6 -20.5 -10c-7.33301 -6 -13.166 -13 -17.499 -21s-6.16602 -17.333 -5.49902 -28c-0.666992 -15.333 4.83301 -27.666 16.5 -36.999s34.167 -16 67.5 -20c32 -4.66699 58.5 -10.334 79.5 -17.001
s38.833 -14.667 53.5 -24c22 -15.333 38.833 -34.166 50.5 -56.499s17.5 -48.833 17.5 -79.5c0 -25.333 -3.5 -48.166 -10.5 -68.499s-17.167 -38.833 -30.5 -55.5c-9.33301 -11.333 -19.666 -21.666 -30.999 -30.999s-23.666 -17.333 -36.999 -24
c18 -8.66699 31.667 -21.667 41 -39s14 -36.333 14 -57c0 -32 -7.66699 -61.333 -23 -88s-37.333 -49.667 -66 -69c-24.667 -15.333 -52.5 -27 -83.5 -35s-63.833 -12.333 -98.5 -13c-35.333 0 -65.666 4 -90.999 12s-47.333 20.667 -66 38
c-20.667 18.667 -35.667 41.167 -45 67.5s-12.333 54.833 -9 85.5zM299.997 174.001c11.333 0 22.167 1.83008 32.5 5.49707s19.833 9.5 28.5 17.5c9.33301 8 16.5 17.667 21.5 29s7.83301 24.333 8.5 39c0 10.667 -1.66699 20.667 -5 30s-8 17.333 -14 24
c-6.66699 6.66699 -15.167 12.167 -25.5 16.5s-21.5 6.5 -33.5 6.5s-23.167 -2 -33.5 -6s-19.5 -9.66699 -27.5 -17c-10 -8.66699 -17.5 -18.667 -22.5 -30s-7.5 -24 -7.5 -38c0 -11.333 1.5 -21.666 4.5 -30.999s7.83301 -17 14.5 -23
c6 -7.33301 14.167 -13.166 24.5 -17.499s21.833 -6.16602 34.5 -5.49902z" />
    <glyph glyph-name="afii10023" unicode="&#xa8;" horiz-adv-x="525" 
d="M41 0l86 700h420l-21 -168h-224l-12 -98h203l-19 -154h-203l-13 -112h224l-21 -168h-420zM252 901c22 -0.666992 39.667 -7.50098 53 -20.501s20 -30.167 20 -51.5c0 -24.667 -7.66699 -45 -23 -61s-35.666 -23.667 -60.999 -23c-22.667 0 -40.5 6.5 -53.5 19.5
s-19.5 30.5 -19.5 52.5c-0.666992 24 6.66602 43.833 21.999 59.5s36 23.834 62 24.501zM463 900.999c22 0 39.666 -6.66797 52.999 -20.001s20 -30.666 20 -51.999c0 -24.667 -7.66699 -45 -23 -61s-35.666 -23.667 -60.999 -23c-22.667 0 -40.667 6.5 -54 19.5
s-19.666 30.5 -18.999 52.5c-0.666992 24 6.66602 44 21.999 60s36 24 62 24z" />
    <glyph glyph-name="afii10023" unicode="&#x401;" horiz-adv-x="525" 
d="M41 0l86 700h420l-21 -168h-224l-12 -98h203l-19 -154h-203l-13 -112h224l-21 -168h-420zM252 901c22 -0.666992 39.667 -7.50098 53 -20.501s20 -30.167 20 -51.5c0 -24.667 -7.66699 -45 -23 -61s-35.666 -23.667 -60.999 -23c-22.667 0 -40.5 6.5 -53.5 19.5
s-19.5 30.5 -19.5 52.5c-0.666992 24 6.66602 43.833 21.999 59.5s36 23.834 62 24.501zM463 900.999c22 0 39.666 -6.66797 52.999 -20.001s20 -30.666 20 -51.999c0 -24.667 -7.66699 -45 -23 -61s-35.666 -23.667 -60.999 -23c-22.667 0 -40.667 6.5 -54 19.5
s-19.666 30.5 -18.999 52.5c-0.666992 24 6.66602 44 21.999 60s36 24 62 24z" />
    <glyph glyph-name="copyright" unicode="&#xa9;" horiz-adv-x="840" 
d="M565 161c-26.667 -14 -49.833 -23.501 -69.5 -28.501s-41.167 -7.16699 -64.5 -6.5c-64 0 -116.5 21.167 -157.5 63.5s-61.5 95.833 -61.5 160.5c0 60 20.333 112.167 61 156.5s93.334 66.5 158.001 66.5c25.333 0 49 -3.16699 71 -9.5s43 -15.5 63 -27.5v-117
c-17.333 12.667 -34.5 22.334 -51.5 29.001s-33.167 10 -48.5 10c-34.667 0 -62.334 -9.83301 -83.001 -29.5s-31 -45.834 -31 -78.501c0 -35.333 10 -62.333 30 -81s48 -28 84 -28c16 0 32.5 2.83301 49.5 8.5s33.833 14.834 50.5 27.501v-116zM50.001 349.999
c0 101.333 36.167 188.333 108.5 261s159.5 109 261.5 109c101.333 0 188.333 -36.333 261 -109s109 -159.667 109 -261c0 -102 -36.333 -189.167 -109 -261.5s-159.667 -108.5 -261 -108.5c-102 0.666992 -189.167 37 -261.5 109s-108.5 159 -108.5 261zM112.001 349.999
c-0.666992 -85.333 29.166 -158 89.499 -218s133.166 -90 218.499 -90c84.667 0 157.167 30 217.5 90s90.5 132.667 90.5 218c-0.666992 84.667 -31 157.167 -91 217.5s-132.333 90.5 -217 90.5c-85.333 0 -158.166 -30.167 -218.499 -90.5s-90.166 -132.833 -89.499 -217.5
z" />
    <glyph glyph-name="afii10053" unicode="&#xaa;" horiz-adv-x="620" 
d="M581 203l-22 -175.002c-28.667 -15.333 -60 -27.166 -94 -35.499s-66.667 -12.5 -98 -12.5c-39.333 0 -75.166 4.5 -107.499 13.5s-60.5 22.167 -84.5 39.5c-40 27.333 -70.167 63.166 -90.5 107.499s-30.5 97.5 -30.5 159.5c-0.666992 58.667 6.83301 112 22.5 160
s39.5 90.667 71.5 128c35.333 42 79.833 74.5 133.5 97.5s111.167 34.5 172.5 34.5c29.333 -0.666992 59.833 -5 91.5 -13s62.5 -20 92.5 -36l-21 -172c-22 21.333 -47.333 37.833 -76 49.5s-58 17.5 -88 17.5c-21.333 0 -41.333 -2.83301 -60 -8.5s-35.667 -13.5 -51 -23.5
c-20 -13.333 -36.667 -29.166 -50 -47.499s-23.333 -38.166 -30 -59.499h220l-17 -140h-219c-1.33301 -20.667 1.5 -41.334 8.5 -62.001s17.167 -37.667 30.5 -51c12 -13.333 27.167 -23.5 45.5 -30.5s39.166 -10.167 62.499 -9.5c32 0 64.167 5.83301 96.5 17.5
s62.833 28.834 91.5 51.501z" />
    <glyph glyph-name="afii10053" unicode="&#x404;" horiz-adv-x="620" 
d="M581 203l-22 -175.002c-28.667 -15.333 -60 -27.166 -94 -35.499s-66.667 -12.5 -98 -12.5c-39.333 0 -75.166 4.5 -107.499 13.5s-60.5 22.167 -84.5 39.5c-40 27.333 -70.167 63.166 -90.5 107.499s-30.5 97.5 -30.5 159.5c-0.666992 58.667 6.83301 112 22.5 160
s39.5 90.667 71.5 128c35.333 42 79.833 74.5 133.5 97.5s111.167 34.5 172.5 34.5c29.333 -0.666992 59.833 -5 91.5 -13s62.5 -20 92.5 -36l-21 -172c-22 21.333 -47.333 37.833 -76 49.5s-58 17.5 -88 17.5c-21.333 0 -41.333 -2.83301 -60 -8.5s-35.667 -13.5 -51 -23.5
c-20 -13.333 -36.667 -29.166 -50 -47.499s-23.333 -38.166 -30 -59.499h220l-17 -140h-219c-1.33301 -20.667 1.5 -41.334 8.5 -62.001s17.167 -37.667 30.5 -51c12 -13.333 27.167 -23.5 45.5 -30.5s39.166 -10.167 62.499 -9.5c32 0 64.167 5.83301 96.5 17.5
s62.833 28.834 91.5 51.501z" />
    <glyph glyph-name="guillemotleft" unicode="&#xab;" horiz-adv-x="540" 
d="M255 252l198 231l89 -59l-147 -172l105 -172l-103 -59zM37 252l198 231l89 -59l-147 -172l105 -172l-103 -59z" />
    <glyph glyph-name="logicalnot" unicode="&#xac;" horiz-adv-x="640" 
d="M70 188v100h540v-288h-120v188h-420z" />
    <glyph glyph-name="registered" unicode="&#xae;" horiz-adv-x="840" 
d="M250 143l0.00195312 413h194c45.333 0 80.666 -12.333 105.999 -37s38 -55.667 38 -93c0 -30 -7.33301 -54.833 -22 -74.5s-36.334 -32.5 -65.001 -38.5l101 -170h-135l-86 163h-5v-163h-126zM376.002 458v-69.999h51c8.66699 -0.666992 16 2.16602 22 8.49902
s9 15.5 9 27.5s-3.5 20.667 -10.5 26s-17.167 8 -30.5 8h-41zM50.002 350.001c0 101.333 36.167 188.333 108.5 261s159.5 109 261.5 109c101.333 0 188.333 -36.333 261 -109s109 -159.667 109 -261c0 -102 -36.333 -189.167 -109 -261.5s-159.667 -108.5 -261 -108.5
c-102 0.666992 -189.167 37 -261.5 109s-108.5 159 -108.5 261zM112.002 350.001c-0.666992 -85.333 29.166 -158 89.499 -218s133.166 -90 218.499 -90c84.667 0 157.167 30 217.5 90s90.5 132.667 90.5 218c-0.666992 84.667 -31 157.167 -91 217.5
s-132.333 90.5 -217 90.5c-85.333 0 -158.166 -30.167 -218.499 -90.5s-90.166 -132.833 -89.499 -217.5z" />
    <glyph glyph-name="afii10056" unicode="&#xaf;" horiz-adv-x="370" 
d="M127 700h196l-86 -700h-196zM141 901c22 -0.666992 39.501 -7.49805 52.501 -20.498s19.833 -30.167 20.5 -51.5c-0.666992 -24.667 -8.5 -44.834 -23.5 -60.501s-35.167 -23.5 -60.5 -23.5c-22.667 -0.666992 -40.5 5.66602 -53.5 18.999s-19.5 31 -19.5 53
c-0.666992 24 6.66602 44 21.999 60s36 24 62 24zM352.001 901.002c22 -0.666992 39.666 -7.49902 52.999 -20.499s20 -30.167 20 -51.5c0 -24.667 -7.66699 -45 -23 -61s-35.666 -23.667 -60.999 -23c-22.667 -0.666992 -40.5 5.66602 -53.5 18.999s-19.5 31 -19.5 53
c0 24 7.5 44 22.5 60s35.5 24 61.5 24z" />
    <glyph glyph-name="afii10056" unicode="&#x407;" horiz-adv-x="370" 
d="M127 700h196l-86 -700h-196zM141 901c22 -0.666992 39.501 -7.49805 52.501 -20.498s19.833 -30.167 20.5 -51.5c-0.666992 -24.667 -8.5 -44.834 -23.5 -60.501s-35.167 -23.5 -60.5 -23.5c-22.667 -0.666992 -40.5 5.66602 -53.5 18.999s-19.5 31 -19.5 53
c-0.666992 24 6.66602 44 21.999 60s36 24 62 24zM352.001 901.002c22 -0.666992 39.666 -7.49902 52.999 -20.499s20 -30.167 20 -51.5c0 -24.667 -7.66699 -45 -23 -61s-35.666 -23.667 -60.999 -23c-22.667 -0.666992 -40.5 5.66602 -53.5 18.999s-19.5 31 -19.5 53
c0 24 7.5 44 22.5 60s35.5 24 61.5 24z" />
    <glyph glyph-name="degree" unicode="&#xb0;" horiz-adv-x="520" 
d="M153 548c0 42 14.667 77.832 44 107.499s65.333 44.5 108 44.5c42 0 77.667 -14.833 107 -44.5s44.333 -65.5 45 -107.5c0 -42.667 -14.833 -78.667 -44.5 -108s-65.5 -44 -107.5 -44c-42.667 -0.666992 -78.667 13.833 -108 43.5s-44 65.834 -44 108.501zM223 547.999
c0 -26 7.66797 -47 23.001 -63s35 -23.667 59 -23c23.333 0 42.666 7.83301 57.999 23.5s23.333 36.5 24 62.5c0 25.333 -7.83301 46 -23.5 62s-35.167 24 -58.5 24c-24 0 -43.667 -8 -59 -24s-23 -36.667 -23 -62z" />
    <glyph glyph-name="plusminus" unicode="&#xb1;" horiz-adv-x="640" 
d="M70 490h220v190h100v-190h220v-100h-220v-180h-100v180h-220v100zM70 150h540v-100h-540v100z" />
    <glyph glyph-name="afii10055" unicode="&#xb2;" horiz-adv-x="322" 
d="M41 0l86 700h196l-86 -700h-196z" />
    <glyph glyph-name="afii10055" unicode="&#x406;" horiz-adv-x="322" 
d="M41 0l86 700h196l-86 -700h-196z" />
    <glyph glyph-name="afii10103" unicode="&#xb3;" horiz-adv-x="290" 
d="M95 483h175l-59 -483h-175zM207 715c24.667 0 44.834 -7.83301 60.501 -23.5s23.5 -36.167 23.5 -61.5c-0.666992 -30.667 -10.834 -54.834 -30.501 -72.501s-42.834 -26.5 -69.501 -26.5c-25.333 0 -45.666 7.66699 -60.999 23s-23 36 -23 62
c0 30 9.83301 53.833 29.5 71.5s43.167 26.834 70.5 27.501z" />
    <glyph glyph-name="afii10103" unicode="&#x456;" horiz-adv-x="290" 
d="M95 483h175l-59 -483h-175zM207 715c24.667 0 44.834 -7.83301 60.501 -23.5s23.5 -36.167 23.5 -61.5c-0.666992 -30.667 -10.834 -54.834 -30.501 -72.501s-42.834 -26.5 -69.501 -26.5c-25.333 0 -45.666 7.66699 -60.999 23s-23 36 -23 62
c0 30 9.83301 53.833 29.5 71.5s43.167 26.834 70.5 27.501z" />
    <glyph glyph-name="cyrhardg" unicode="&#xb4;" horiz-adv-x="399" 
d="M34 0l59 483h231l16 127h105l-31 -253h-161l-44 -357h-175z" />
    <glyph glyph-name="cyrhardg" unicode="&#x491;" horiz-adv-x="399" 
d="M34 0l59 483h231l16 127h105l-31 -253h-161l-44 -357h-175z" />
    <glyph glyph-name="mu" unicode="&#xb5;" horiz-adv-x="616" 
d="M597 483l-58.998 -483h-175l7 56c-4 -8 -8.83301 -16 -14.5 -24s-11.834 -15 -18.501 -21c-8 -7.33301 -16.333 -12.666 -25 -15.999s-18 -5 -28 -5c-8.66699 0 -16.834 1.66699 -24.501 5s-14.5 8.66602 -20.5 15.999c-5.33301 5.33301 -10 12 -14 20s-7 16.333 -9 25
l-30 -246h-175l82 673h175l-28 -230c-3.33301 -24.667 -3.5 -44.834 -0.5 -60.501s9.5 -28.5 19.5 -38.5c6 -7.33301 12.5 -12.5 19.5 -15.5s14.833 -4.5 23.5 -4.5c9.33301 0 17.833 1.5 25.5 4.5s15.5 8.16699 23.5 15.5c11.333 10 20.5 23.333 27.5 40
s12.167 36.334 15.5 59.001l28 230h175z" />
    <glyph glyph-name="paragraph" unicode="&#xb6;" horiz-adv-x="582" 
d="M155 -210l73 595c-46 0.666992 -83 15.167 -111 43.5s-42 63.833 -42 106.5c0 59.333 18.667 107.5 56 144.5s84 55.5 140 55.5h126l-116 -945h-126zM365 -210l116 945h126l-116 -945h-126z" />
    <glyph glyph-name="afii10071" unicode="&#xb8;" horiz-adv-x="592" 
d="M386 147l168.002 -0.00390625c-10 -22 -22.167 -42.167 -36.5 -60.5s-29.833 -33.833 -46.5 -46.5c-26.667 -20.667 -55.667 -35.5 -87 -44.5s-65.333 -13.5 -102 -13.5c-38.667 0 -73.334 5.16699 -104.001 15.5s-57.334 27.5 -80.001 51.5
c-19.333 19.333 -34.166 42.333 -44.499 69s-15.5 58 -15.5 94c0 42.667 7.16699 82.834 21.5 120.501s35.833 69.834 64.5 96.501c24.667 22.667 53.667 40.334 87 53.001s72.333 19 117 19c48 0 88.167 -7.66699 120.5 -23s58.5 -37 78.5 -65
c14 -20.667 24.333 -43.667 31 -69s10 -54 10 -86c0 -10 -0.333008 -19.5 -1 -28.5l-2 -26.5h-369c-0.666992 -3.33301 -1 -6.5 -1 -9.5v-9.5c0 -15.333 2.16699 -28.833 6.5 -40.5s10.5 -21.5 18.5 -29.5c8 -8.66699 18.333 -15.5 31 -20.5s26 -7.16699 40 -6.5
c12.667 -0.666992 24.667 0.833008 36 4.5s21.666 9.16699 30.999 16.5c6 4.66699 11.333 10.334 16 17.001s8.66699 14 12 22zM213.002 297.996h196c0 11.333 -1.5 23 -4.5 35s-7.5 22.333 -13.5 31c-8 10 -17.833 17.667 -29.5 23s-25.834 8.33301 -42.501 9
c-15.333 0 -29.333 -2.66699 -42 -8s-23.667 -13.333 -33 -24c-8.66699 -9.33301 -15.667 -19.833 -21 -31.5s-8.66602 -23.167 -9.99902 -34.5zM250.002 694.996c22 0 39.666 -6.66699 52.999 -20s20 -30.666 20 -51.999c0 -24.667 -7.66699 -44.834 -23 -60.501
s-35.666 -23.5 -60.999 -23.5c-22.667 0 -40.5 6.5 -53.5 19.5s-19.5 30.5 -19.5 52.5c0 24 7.5 44 22.5 60s35.5 24 61.5 24zM461.001 694.996c22 -0.666992 39.499 -7.49902 52.499 -20.499s19.833 -30.167 20.5 -51.5c0 -24.667 -7.66699 -44.834 -23 -60.501
s-35.666 -23.5 -60.999 -23.5c-22.667 0 -40.5 6.5 -53.5 19.5s-19.5 30.5 -19.5 52.5c0 24 7.5 44 22.5 60s35.5 24 61.5 24z" />
    <glyph glyph-name="afii10071" unicode="&#x451;" horiz-adv-x="592" 
d="M386 147l168.002 -0.00390625c-10 -22 -22.167 -42.167 -36.5 -60.5s-29.833 -33.833 -46.5 -46.5c-26.667 -20.667 -55.667 -35.5 -87 -44.5s-65.333 -13.5 -102 -13.5c-38.667 0 -73.334 5.16699 -104.001 15.5s-57.334 27.5 -80.001 51.5
c-19.333 19.333 -34.166 42.333 -44.499 69s-15.5 58 -15.5 94c0 42.667 7.16699 82.834 21.5 120.501s35.833 69.834 64.5 96.501c24.667 22.667 53.667 40.334 87 53.001s72.333 19 117 19c48 0 88.167 -7.66699 120.5 -23s58.5 -37 78.5 -65
c14 -20.667 24.333 -43.667 31 -69s10 -54 10 -86c0 -10 -0.333008 -19.5 -1 -28.5l-2 -26.5h-369c-0.666992 -3.33301 -1 -6.5 -1 -9.5v-9.5c0 -15.333 2.16699 -28.833 6.5 -40.5s10.5 -21.5 18.5 -29.5c8 -8.66699 18.333 -15.5 31 -20.5s26 -7.16699 40 -6.5
c12.667 -0.666992 24.667 0.833008 36 4.5s21.666 9.16699 30.999 16.5c6 4.66699 11.333 10.334 16 17.001s8.66699 14 12 22zM213.002 297.996h196c0 11.333 -1.5 23 -4.5 35s-7.5 22.333 -13.5 31c-8 10 -17.833 17.667 -29.5 23s-25.834 8.33301 -42.501 9
c-15.333 0 -29.333 -2.66699 -42 -8s-23.667 -13.333 -33 -24c-8.66699 -9.33301 -15.667 -19.833 -21 -31.5s-8.66602 -23.167 -9.99902 -34.5zM250.002 694.996c22 0 39.666 -6.66699 52.999 -20s20 -30.666 20 -51.999c0 -24.667 -7.66699 -44.834 -23 -60.501
s-35.666 -23.5 -60.999 -23.5c-22.667 0 -40.5 6.5 -53.5 19.5s-19.5 30.5 -19.5 52.5c0 24 7.5 44 22.5 60s35.5 24 61.5 24zM461.001 694.996c22 -0.666992 39.499 -7.49902 52.499 -20.499s19.833 -30.167 20.5 -51.5c0 -24.667 -7.66699 -44.834 -23 -60.501
s-35.666 -23.5 -60.999 -23.5c-22.667 0 -40.5 6.5 -53.5 19.5s-19.5 30.5 -19.5 52.5c0 24 7.5 44 22.5 60s35.5 24 61.5 24z" />
    <glyph glyph-name="afii61352" unicode="&#xb9;" horiz-adv-x="1197" 
d="M41 0l86 700h206l205 -413l51 413h189l-86 -700h-203l-207 420l-52 -420h-189zM1033 700c26.667 0 51 -4.50098 73 -13.501s41 -21.5 57 -37.5c16 -16.667 27.5 -34.834 34.5 -54.501s10.833 -40.834 11.5 -63.501c0 -34 -6.5 -66.5 -19.5 -97.5
s-31.167 -56.5 -54.5 -76.5c-18 -15.333 -39 -27.333 -63 -36s-50.333 -13 -79 -13c-27.333 0 -52 4.33301 -74 13s-40.667 21.334 -56 38.001c-16.667 16 -28.5 33.833 -35.5 53.5s-10.5 41.167 -10.5 64.5c0 33.333 6.33301 65.5 19 96.5s31 56.833 55 77.5
c17.333 14.667 38 26.334 62 35.001s50.667 13.334 80 14.001zM1005 419.999c10.667 0 20.167 2.16211 28.5 6.49512s15.833 10.833 22.5 19.5s11.667 18.667 15 30s5.33301 25.333 6 42c0 10.667 -0.833008 19.167 -2.5 25.5s-3.83398 12.5 -6.50098 18.5
c-5.33301 8.66699 -12 15 -20 19s-17 6.33301 -27 7c-11.333 0 -21.166 -2.33301 -29.499 -7s-15.5 -11 -21.5 -19c-7.33301 -9.33301 -12.666 -19.666 -15.999 -30.999s-5 -25 -5 -41c0 -11.333 0.666992 -20.166 2 -26.499s3.66602 -12.166 6.99902 -17.499
c4.66699 -9.33301 11 -16.166 19 -20.499s17.333 -6.16602 28 -5.49902zM810 160.994l11 91h322l-11 -91h-322z" />
    <glyph glyph-name="afii61352" unicode="&#x2116;" horiz-adv-x="1197" 
d="M41 0l86 700h206l205 -413l51 413h189l-86 -700h-203l-207 420l-52 -420h-189zM1033 700c26.667 0 51 -4.50098 73 -13.501s41 -21.5 57 -37.5c16 -16.667 27.5 -34.834 34.5 -54.501s10.833 -40.834 11.5 -63.501c0 -34 -6.5 -66.5 -19.5 -97.5
s-31.167 -56.5 -54.5 -76.5c-18 -15.333 -39 -27.333 -63 -36s-50.333 -13 -79 -13c-27.333 0 -52 4.33301 -74 13s-40.667 21.334 -56 38.001c-16.667 16 -28.5 33.833 -35.5 53.5s-10.5 41.167 -10.5 64.5c0 33.333 6.33301 65.5 19 96.5s31 56.833 55 77.5
c17.333 14.667 38 26.334 62 35.001s50.667 13.334 80 14.001zM1005 419.999c10.667 0 20.167 2.16211 28.5 6.49512s15.833 10.833 22.5 19.5s11.667 18.667 15 30s5.33301 25.333 6 42c0 10.667 -0.833008 19.167 -2.5 25.5s-3.83398 12.5 -6.50098 18.5
c-5.33301 8.66699 -12 15 -20 19s-17 6.33301 -27 7c-11.333 0 -21.166 -2.33301 -29.499 -7s-15.5 -11 -21.5 -19c-7.33301 -9.33301 -12.666 -19.666 -15.999 -30.999s-5 -25 -5 -41c0 -11.333 0.666992 -20.166 2 -26.499s3.66602 -12.166 6.99902 -17.499
c4.66699 -9.33301 11 -16.166 19 -20.499s17.333 -6.16602 28 -5.49902zM810 160.994l11 91h322l-11 -91h-322z" />
    <glyph glyph-name="afii10101" unicode="&#xba;" horiz-adv-x="492" 
d="M402 298l-12.999 -105h-191c0 -16.667 3 -31.167 9 -43.5s14.333 -22.166 25 -29.499c8.66699 -7.33301 18.5 -12.666 29.5 -15.999s24.5 -4.66602 40.5 -3.99902c24.667 0 49 3.83301 73 11.5s47.667 19.5 71 35.5l-17 -140c-20.667 -8 -44 -14.167 -70 -18.5
s-54.333 -6.5 -85 -6.5c-43.333 0 -79.833 5.66699 -109.5 17s-54.5 28.333 -74.5 51c-17.333 18.667 -30.333 40.667 -39 66s-13 55.333 -13 90c0 50 8.16699 94.667 24.5 134s38.833 71.666 67.5 96.999c24 21.333 51.667 37.333 83 48s67.333 16 108 16
c30.667 -0.666992 59.5 -3.33398 86.5 -8.00098s52.167 -12.334 75.5 -23.001l-17 -133c-20 16 -41.667 28.667 -65 38s-46.333 14 -69 14c-15.333 0 -29.5 -2 -42.5 -6s-24.167 -9.33301 -33.5 -16c-10.667 -8 -20.334 -18 -29.001 -30s-15 -25 -19 -39h194z" />
    <glyph glyph-name="afii10101" unicode="&#x454;" horiz-adv-x="492" 
d="M402 298l-12.999 -105h-191c0 -16.667 3 -31.167 9 -43.5s14.333 -22.166 25 -29.499c8.66699 -7.33301 18.5 -12.666 29.5 -15.999s24.5 -4.66602 40.5 -3.99902c24.667 0 49 3.83301 73 11.5s47.667 19.5 71 35.5l-17 -140c-20.667 -8 -44 -14.167 -70 -18.5
s-54.333 -6.5 -85 -6.5c-43.333 0 -79.833 5.66699 -109.5 17s-54.5 28.333 -74.5 51c-17.333 18.667 -30.333 40.667 -39 66s-13 55.333 -13 90c0 50 8.16699 94.667 24.5 134s38.833 71.666 67.5 96.999c24 21.333 51.667 37.333 83 48s67.333 16 108 16
c30.667 -0.666992 59.5 -3.33398 86.5 -8.00098s52.167 -12.334 75.5 -23.001l-17 -133c-20 16 -41.667 28.667 -65 38s-46.333 14 -69 14c-15.333 0 -29.5 -2 -42.5 -6s-24.167 -9.33301 -33.5 -16c-10.667 -8 -20.334 -18 -29.001 -30s-15 -25 -19 -39h194z" />
    <glyph glyph-name="guillemotright" unicode="&#xbb;" horiz-adv-x="540" 
d="M303 252l-198 -231l-89 59l147 172l-105 172l103 59zM521 252l-198 -231l-89 59l147 172l-105 172l103 59z" />
    <glyph glyph-name="afii10105" unicode="&#xbc;" horiz-adv-x="290" 
d="M95 483h175l-85 -693h-175zM207 715c24.667 0 44.834 -7.83301 60.501 -23.5s23.5 -36.167 23.5 -61.5c-0.666992 -30.667 -10.834 -54.834 -30.501 -72.501s-42.834 -26.5 -69.501 -26.5c-25.333 0 -45.666 7.66699 -60.999 23s-23 36 -23 62
c0 30 9.83301 53.833 29.5 71.5s43.167 26.834 70.5 27.501z" />
    <glyph glyph-name="afii10105" unicode="&#x458;" horiz-adv-x="290" 
d="M95 483h175l-85 -693h-175zM207 715c24.667 0 44.834 -7.83301 60.501 -23.5s23.5 -36.167 23.5 -61.5c-0.666992 -30.667 -10.834 -54.834 -30.501 -72.501s-42.834 -26.5 -69.501 -26.5c-25.333 0 -45.666 7.66699 -60.999 23s-23 36 -23 62
c0 30 9.83301 53.833 29.5 71.5s43.167 26.834 70.5 27.501z" />
    <glyph glyph-name="afii10054" unicode="&#xbd;" horiz-adv-x="560" 
d="M559 651l-88.0049 -146.999c-7.33301 8 -15.166 15.333 -23.499 22s-17.166 13 -26.499 19c-13.333 7.33301 -25.833 12.666 -37.5 15.999s-23.5 5 -35.5 5c-13.333 0 -24.5 -1.66699 -33.5 -5s-16.5 -8 -22.5 -14c-6.66699 -6 -11.667 -12.833 -15 -20.5
s-5 -15.834 -5 -24.501c-0.666992 -14.667 4.33301 -26.334 15 -35.001s30.334 -16.334 59.001 -23.001c33.333 -8.66699 60 -17.167 80 -25.5s37.667 -18.166 53 -29.499c19.333 -16 33.833 -34.5 43.5 -55.5s14.5 -47.833 14.5 -80.5
c0 -43.333 -8.16699 -83.333 -24.5 -120s-39.5 -67 -69.5 -91c-26 -20.667 -56 -36.167 -90 -46.5s-68.667 -15.5 -104 -15.5c-31.333 0 -60 3.5 -86 10.5s-55.667 20.5 -89 40.5c-18.667 10.667 -33.667 20.334 -45 29.001s-22.333 19.334 -33 32.001l112 149
c9.33301 -12 19.5 -23.333 30.5 -34s23.167 -20 36.5 -28c16 -11.333 31.333 -19.333 46 -24s30 -7 46 -7c11.333 0 21.833 1.33301 31.5 4s18.167 7.33398 25.5 14.001c6.66699 6 11.834 13.167 15.501 21.5s5.5 18.5 5.5 30.5c0 16.667 -5.33301 30 -16 40s-29 19 -55 27
c-44 12 -74 21.667 -90 29s-30 16 -42 26c-20 15.333 -35 33.333 -45 54s-15 45.667 -15 75c0 44 9.66699 84.5 29 121.5s47 66.5 83 88.5c20.667 12.667 44.834 22.667 72.501 30s56.834 11 87.501 11c22 0 44.667 -2.16699 68 -6.5s44.666 -10.5 63.999 -18.5
c11.333 -5.33301 23.5 -11.833 36.5 -19.5s25.167 -15.834 36.5 -24.501z" />
    <glyph glyph-name="afii10054" unicode="&#x405;" horiz-adv-x="560" 
d="M559 651l-88.0049 -146.999c-7.33301 8 -15.166 15.333 -23.499 22s-17.166 13 -26.499 19c-13.333 7.33301 -25.833 12.666 -37.5 15.999s-23.5 5 -35.5 5c-13.333 0 -24.5 -1.66699 -33.5 -5s-16.5 -8 -22.5 -14c-6.66699 -6 -11.667 -12.833 -15 -20.5
s-5 -15.834 -5 -24.501c-0.666992 -14.667 4.33301 -26.334 15 -35.001s30.334 -16.334 59.001 -23.001c33.333 -8.66699 60 -17.167 80 -25.5s37.667 -18.166 53 -29.499c19.333 -16 33.833 -34.5 43.5 -55.5s14.5 -47.833 14.5 -80.5
c0 -43.333 -8.16699 -83.333 -24.5 -120s-39.5 -67 -69.5 -91c-26 -20.667 -56 -36.167 -90 -46.5s-68.667 -15.5 -104 -15.5c-31.333 0 -60 3.5 -86 10.5s-55.667 20.5 -89 40.5c-18.667 10.667 -33.667 20.334 -45 29.001s-22.333 19.334 -33 32.001l112 149
c9.33301 -12 19.5 -23.333 30.5 -34s23.167 -20 36.5 -28c16 -11.333 31.333 -19.333 46 -24s30 -7 46 -7c11.333 0 21.833 1.33301 31.5 4s18.167 7.33398 25.5 14.001c6.66699 6 11.834 13.167 15.501 21.5s5.5 18.5 5.5 30.5c0 16.667 -5.33301 30 -16 40s-29 19 -55 27
c-44 12 -74 21.667 -90 29s-30 16 -42 26c-20 15.333 -35 33.333 -45 54s-15 45.667 -15 75c0 44 9.66699 84.5 29 121.5s47 66.5 83 88.5c20.667 12.667 44.834 22.667 72.501 30s56.834 11 87.501 11c22 0 44.667 -2.16699 68 -6.5s44.666 -10.5 63.999 -18.5
c11.333 -5.33301 23.5 -11.833 36.5 -19.5s25.167 -15.834 36.5 -24.501z" />
    <glyph glyph-name="afii10102" unicode="&#xbe;" horiz-adv-x="466" 
d="M3 32l63.999 120.998c8 -6 17 -11.667 27 -17s19.333 -9.66602 28 -12.999c11.333 -5.33301 23.166 -9.16602 35.499 -11.499s25.166 -3.5 38.499 -3.5c18 0 31.667 3.5 41 10.5s14 15.833 14 26.5c0 10 -4 18 -12 24s-21 10.333 -39 13
c-26.667 2.66699 -49.5 7.66699 -68.5 15s-34.167 17.333 -45.5 30c-10 10 -17.667 22 -23 36s-7.66602 31 -6.99902 51c0 32 5.5 60 16.5 84s27.5 44.333 49.5 61c17.333 12.667 38 22.834 62 30.501s51.667 11.5 83 11.5c17.333 -0.666992 36.833 -2.33398 58.5 -5.00098
s41.834 -6 60.501 -10c13.333 -4 25.833 -8.16699 37.5 -12.5s23.167 -9.16602 34.5 -14.499l-68 -112c-7.33301 4.66699 -15.166 9.33398 -23.499 14.001s-15.833 8.66699 -22.5 12c-10 3.33301 -20.167 6.33301 -30.5 9s-20.5 4 -30.5 4
c-19.333 0 -33.833 -4.16699 -43.5 -12.5s-14.5 -18.166 -14.5 -29.499c-0.666992 -10 2 -18.167 8 -24.5s15.667 -10.833 29 -13.5c8 -2 21.833 -4.16699 41.5 -6.5s36.834 -6.16602 51.501 -11.499c22.667 -9.33301 40.5 -23.333 53.5 -42s19.5 -42.667 19.5 -72
c0 -34 -6.5 -63.833 -19.5 -89.5s-31.5 -46.5 -55.5 -62.5c-18.667 -12.667 -41.834 -22.334 -69.501 -29.001s-57.5 -10.334 -89.5 -11.001c-20 0.666992 -41 2.5 -63 5.5s-41.667 7.16699 -59 12.5c-11.333 3.33301 -23 7.66602 -35 12.999s-23.333 11.666 -34 18.999z
" />
    <glyph glyph-name="afii10102" unicode="&#x455;" horiz-adv-x="466" 
d="M3 32l63.999 120.998c8 -6 17 -11.667 27 -17s19.333 -9.66602 28 -12.999c11.333 -5.33301 23.166 -9.16602 35.499 -11.499s25.166 -3.5 38.499 -3.5c18 0 31.667 3.5 41 10.5s14 15.833 14 26.5c0 10 -4 18 -12 24s-21 10.333 -39 13
c-26.667 2.66699 -49.5 7.66699 -68.5 15s-34.167 17.333 -45.5 30c-10 10 -17.667 22 -23 36s-7.66602 31 -6.99902 51c0 32 5.5 60 16.5 84s27.5 44.333 49.5 61c17.333 12.667 38 22.834 62 30.501s51.667 11.5 83 11.5c17.333 -0.666992 36.833 -2.33398 58.5 -5.00098
s41.834 -6 60.501 -10c13.333 -4 25.833 -8.16699 37.5 -12.5s23.167 -9.16602 34.5 -14.499l-68 -112c-7.33301 4.66699 -15.166 9.33398 -23.499 14.001s-15.833 8.66699 -22.5 12c-10 3.33301 -20.167 6.33301 -30.5 9s-20.5 4 -30.5 4
c-19.333 0 -33.833 -4.16699 -43.5 -12.5s-14.5 -18.166 -14.5 -29.499c-0.666992 -10 2 -18.167 8 -24.5s15.667 -10.833 29 -13.5c8 -2 21.833 -4.16699 41.5 -6.5s36.834 -6.16602 51.501 -11.499c22.667 -9.33301 40.5 -23.333 53.5 -42s19.5 -42.667 19.5 -72
c0 -34 -6.5 -63.833 -19.5 -89.5s-31.5 -46.5 -55.5 -62.5c-18.667 -12.667 -41.834 -22.334 -69.501 -29.001s-57.5 -10.334 -89.5 -11.001c-20 0.666992 -41 2.5 -63 5.5s-41.667 7.16699 -59 12.5c-11.333 3.33301 -23 7.66602 -35 12.999s-23.333 11.666 -34 18.999z
" />
    <glyph glyph-name="afii10104" unicode="&#xbf;" horiz-adv-x="310" 
d="M105 483h175l-59 -483h-175zM130 693c18.667 0 33.166 -6.33203 43.499 -18.999s15.833 -28.667 16.5 -48c0 -26.667 -7.33301 -47.834 -22 -63.501s-32.667 -23.5 -54 -23.5c-19.333 0 -34.166 6.16699 -44.499 18.5s-15.5 28.5 -15.5 48.5
c-0.666992 26 6.33301 47 21 63s33 24 55 24zM303.999 693.001c18.667 0 33.166 -6.33203 43.499 -18.999s15.833 -28.667 16.5 -48c0 -26.667 -7.33301 -47.834 -22 -63.501s-32.667 -23.5 -54 -23.5c-19.333 0 -34.166 6.16699 -44.499 18.5s-15.5 28.5 -15.5 48.5
c0 26 7.16699 47 21.5 63s32.5 24 54.5 24z" />
    <glyph glyph-name="afii10104" unicode="&#x457;" horiz-adv-x="310" 
d="M105 483h175l-59 -483h-175zM130 693c18.667 0 33.166 -6.33203 43.499 -18.999s15.833 -28.667 16.5 -48c0 -26.667 -7.33301 -47.834 -22 -63.501s-32.667 -23.5 -54 -23.5c-19.333 0 -34.166 6.16699 -44.499 18.5s-15.5 28.5 -15.5 48.5
c-0.666992 26 6.33301 47 21 63s33 24 55 24zM303.999 693.001c18.667 0 33.166 -6.33203 43.499 -18.999s15.833 -28.667 16.5 -48c0 -26.667 -7.33301 -47.834 -22 -63.501s-32.667 -23.5 -54 -23.5c-19.333 0 -34.166 6.16699 -44.499 18.5s-15.5 28.5 -15.5 48.5
c0 26 7.16699 47 21.5 63s32.5 24 54.5 24z" />
    <glyph glyph-name="afii10017" unicode="&#xc0;" horiz-adv-x="722" 
d="M-29 0l335 700h238l163 -700h-206l-24 121h-238l-56 -121h-212zM404 533l-109 -258h160z" />
    <glyph glyph-name="afii10017" unicode="&#x410;" horiz-adv-x="722" 
d="M-29 0l335 700h238l163 -700h-206l-24 121h-238l-56 -121h-212zM404 533l-109 -258h160z" />
    <glyph glyph-name="afii10018" unicode="&#xc1;" horiz-adv-x="665" 
d="M41 0l86.001 700.001h517l-21 -168h-321l-13 -105h117c42.667 -0.666992 77.667 -4.83398 105 -12.501s50 -18.5 68 -32.5c19.333 -16 34.666 -36.167 45.999 -60.5s17 -52.5 17 -84.5c0 -42.667 -9 -80.167 -27 -112.5s-42.667 -58.5 -74 -78.5
c-23.333 -15.333 -49.833 -26.833 -79.5 -34.5s-66.167 -11.5 -109.5 -11.5h-311zM254.001 140.001h78.002c20 -0.666992 35.833 0.333008 47.5 3s22.167 6.66699 31.5 12c12 6.66699 20.833 15.5 26.5 26.5s8.5 23.833 8.5 38.5c0 10.667 -2 20.667 -6 30
s-9.66699 17 -17 23c-6.66699 4.66699 -15.334 8.16699 -26.001 10.5s-26.334 3.5 -47.001 3.5h-78z" />
    <glyph glyph-name="afii10018" unicode="&#x411;" horiz-adv-x="665" 
d="M41 0l86.001 700.001h517l-21 -168h-321l-13 -105h117c42.667 -0.666992 77.667 -4.83398 105 -12.501s50 -18.5 68 -32.5c19.333 -16 34.666 -36.167 45.999 -60.5s17 -52.5 17 -84.5c0 -42.667 -9 -80.167 -27 -112.5s-42.667 -58.5 -74 -78.5
c-23.333 -15.333 -49.833 -26.833 -79.5 -34.5s-66.167 -11.5 -109.5 -11.5h-311zM254.001 140.001h78.002c20 -0.666992 35.833 0.333008 47.5 3s22.167 6.66699 31.5 12c12 6.66699 20.833 15.5 26.5 26.5s8.5 23.833 8.5 38.5c0 10.667 -2 20.667 -6 30
s-9.66699 17 -17 23c-6.66699 4.66699 -15.334 8.16699 -26.001 10.5s-26.334 3.5 -47.001 3.5h-78z" />
    <glyph glyph-name="afii10019" unicode="&#xc2;" horiz-adv-x="678" 
d="M127 700l330.996 -0.000976562c38.667 0 69.834 -3.83301 93.501 -11.5s43.834 -19.5 60.501 -35.5c12.667 -13.333 22.667 -29.166 30 -47.499s11 -38.166 11 -59.499c0 -28 -5.16699 -53.5 -15.5 -76.5s-26.166 -42.833 -47.499 -59.5
c-9.33301 -7.33301 -19.666 -13.833 -30.999 -19.5s-22.333 -10.5 -33 -14.5v-2c16 -4 31.667 -10.167 47 -18.5s28.333 -17.833 39 -28.5c12.667 -14 22.5 -30.333 29.5 -49s10.5 -39.334 10.5 -62.001c0 -30.667 -5.16699 -58 -15.5 -82s-24.833 -45.333 -43.5 -64
c-24 -24 -52.333 -41.667 -85 -53s-69 -17 -109 -17h-358zM288.996 423.999l82 0.00195312c14.667 0 27.667 1.16699 39 3.5s21 6.16602 29 11.499c10 6 17.5 13.667 22.5 23s7.5 21.666 7.5 36.999c0 10.667 -2 20 -6 28s-9.66699 14.667 -17 20
c-6.66699 4 -15 7.16699 -25 9.5s-21 3.5 -33 3.5h-82zM253.996 140.001h88.002c20 -0.666992 35.833 0.333008 47.5 3s22.167 6.66699 31.5 12c10.667 6 19.167 14.333 25.5 25s9.5 24 9.5 40c0 10 -2 19.333 -6 28s-9.66699 16 -17 22
c-6.66699 4.66699 -15.334 8.16699 -26.001 10.5s-26.334 3.5 -47.001 3.5h-88z" />
    <glyph glyph-name="afii10019" unicode="&#x412;" horiz-adv-x="678" 
d="M127 700l330.996 -0.000976562c38.667 0 69.834 -3.83301 93.501 -11.5s43.834 -19.5 60.501 -35.5c12.667 -13.333 22.667 -29.166 30 -47.499s11 -38.166 11 -59.499c0 -28 -5.16699 -53.5 -15.5 -76.5s-26.166 -42.833 -47.499 -59.5
c-9.33301 -7.33301 -19.666 -13.833 -30.999 -19.5s-22.333 -10.5 -33 -14.5v-2c16 -4 31.667 -10.167 47 -18.5s28.333 -17.833 39 -28.5c12.667 -14 22.5 -30.333 29.5 -49s10.5 -39.334 10.5 -62.001c0 -30.667 -5.16699 -58 -15.5 -82s-24.833 -45.333 -43.5 -64
c-24 -24 -52.333 -41.667 -85 -53s-69 -17 -109 -17h-358zM288.996 423.999l82 0.00195312c14.667 0 27.667 1.16699 39 3.5s21 6.16602 29 11.499c10 6 17.5 13.667 22.5 23s7.5 21.666 7.5 36.999c0 10.667 -2 20 -6 28s-9.66699 14.667 -17 20
c-6.66699 4 -15 7.16699 -25 9.5s-21 3.5 -33 3.5h-82zM253.996 140.001h88.002c20 -0.666992 35.833 0.333008 47.5 3s22.167 6.66699 31.5 12c10.667 6 19.167 14.333 25.5 25s9.5 24 9.5 40c0 10 -2 19.333 -6 28s-9.66699 16 -17 22
c-6.66699 4.66699 -15.334 8.16699 -26.001 10.5s-26.334 3.5 -47.001 3.5h-88z" />
    <glyph glyph-name="afii10020" unicode="&#xc3;" horiz-adv-x="497" 
d="M41 0l86 700h420l-21 -168h-224l-65 -532h-196z" />
    <glyph glyph-name="afii10020" unicode="&#x413;" horiz-adv-x="497" 
d="M41 0l86 700h420l-21 -168h-224l-65 -532h-196z" />
    <glyph glyph-name="afii10021" unicode="&#xc4;" horiz-adv-x="747" 
d="M204 700l516 0.00195312l-65 -532h84l-38 -308h-168l17 140h-404l-17 -140h-168l38 308c16 0 33.333 4.5 52 13.5s35 20.167 49 33.5c16.667 15.333 30.167 35.666 40.5 60.999s18.833 64.666 25.5 117.999zM363 532.002l-20.002 -166
c-5.33301 -40.667 -11.166 -70.334 -17.499 -89.001s-15.166 -36.334 -26.499 -53.001c-7.33301 -11.333 -15.5 -21.666 -24.5 -30.999s-18.833 -17.666 -29.5 -24.999h214l44 364h-140z" />
    <glyph glyph-name="afii10021" unicode="&#x414;" horiz-adv-x="747" 
d="M204 700l516 0.00195312l-65 -532h84l-38 -308h-168l17 140h-404l-17 -140h-168l38 308c16 0 33.333 4.5 52 13.5s35 20.167 49 33.5c16.667 15.333 30.167 35.666 40.5 60.999s18.833 64.666 25.5 117.999zM363 532.002l-20.002 -166
c-5.33301 -40.667 -11.166 -70.334 -17.499 -89.001s-15.166 -36.334 -26.499 -53.001c-7.33301 -11.333 -15.5 -21.666 -24.5 -30.999s-18.833 -17.666 -29.5 -24.999h214l44 364h-140z" />
    <glyph glyph-name="afii10022" unicode="&#xc5;" horiz-adv-x="525" 
d="M41 0l86 700h420l-21 -168h-224l-12 -98h203l-19 -154h-203l-13 -112h224l-21 -168h-420z" />
    <glyph glyph-name="afii10022" unicode="&#x415;" horiz-adv-x="525" 
d="M41 0l86 700h420l-21 -168h-224l-12 -98h203l-19 -154h-203l-13 -112h224l-21 -168h-420z" />
    <glyph glyph-name="afii10024" unicode="&#xc6;" horiz-adv-x="1042" 
d="M487 700h196l-37 -304l226 304h220l-276 -346l211 -354h-234l-158 308l-38 -308h-196l38 308l-230 -308h-238l301 360l-194 340h216l156 -304z" />
    <glyph glyph-name="afii10024" unicode="&#x416;" horiz-adv-x="1042" 
d="M487 700h196l-37 -304l226 304h220l-276 -346l211 -354h-234l-158 308l-38 -308h-196l38 308l-230 -308h-238l301 360l-194 340h216l156 -304z" />
    <glyph glyph-name="afii10025" unicode="&#xc7;" horiz-adv-x="591" 
d="M153 518l-52.0029 137.001c13.333 7.33301 27 14.166 41 20.499s31 12.833 51 19.5c27.333 8.66699 52.333 15 75 19s47 6 73 6c40 0 75 -4.16699 105 -12.5s55.667 -20.166 77 -35.499c22.667 -17.333 39.5 -37.333 50.5 -60s16.5 -46.667 16.5 -72
c0 -24.667 -4.5 -47.667 -13.5 -69s-22.5 -40.666 -40.5 -57.999c-11.333 -11.333 -23.666 -21 -36.999 -29s-27.666 -14.667 -42.999 -20l-1 -3c13.333 -4.66699 26.333 -10.667 39 -18s23.334 -15 32.001 -23c12 -12.667 21.5 -27.667 28.5 -45s10.5 -36.333 10.5 -57
c0 -39.333 -8.5 -74.666 -25.5 -105.999s-40.833 -57.333 -71.5 -78c-26 -18 -56.667 -31.5 -92 -40.5s-73 -13.5 -113 -13.5c-34.667 0 -66.5 3.16699 -95.5 9.5s-56.5 16.5 -82.5 30.5c-12 6 -25.667 14.5 -41 25.5s-31.666 23.833 -48.999 38.5l97 130
c8.66699 -10 18.5 -19.167 29.5 -27.5s22.833 -15.833 35.5 -22.5c17.333 -10 35 -17.5 53 -22.5s35.667 -7.5 53 -7.5c14 0 27.333 1.66699 40 5s23.667 8.66602 33 15.999c9.33301 6.66699 16.5 15.167 21.5 25.5s7.5 21.5 7.5 33.5c0 22.667 -8.5 40 -25.5 52
s-43.167 18 -78.5 18h-111l17 140h111c19.333 -0.666992 37.5 1.5 54.5 6.5s30.5 11.5 40.5 19.5c6.66699 5.33301 11.834 12.166 15.501 20.499s5.5 18.166 5.5 29.499c0 10 -2.33301 19.333 -7 28s-11.334 16 -20.001 22c-8 4.66699 -17.667 8.5 -29 11.5s-24 4.5 -38 4.5
s-28.333 -1.5 -43 -4.5s-29.667 -7.16699 -45 -12.5c-10.667 -4 -20.834 -8.66699 -30.501 -14s-19.167 -11 -28.5 -17z" />
    <glyph glyph-name="afii10025" unicode="&#x417;" horiz-adv-x="591" 
d="M153 518l-52.0029 137.001c13.333 7.33301 27 14.166 41 20.499s31 12.833 51 19.5c27.333 8.66699 52.333 15 75 19s47 6 73 6c40 0 75 -4.16699 105 -12.5s55.667 -20.166 77 -35.499c22.667 -17.333 39.5 -37.333 50.5 -60s16.5 -46.667 16.5 -72
c0 -24.667 -4.5 -47.667 -13.5 -69s-22.5 -40.666 -40.5 -57.999c-11.333 -11.333 -23.666 -21 -36.999 -29s-27.666 -14.667 -42.999 -20l-1 -3c13.333 -4.66699 26.333 -10.667 39 -18s23.334 -15 32.001 -23c12 -12.667 21.5 -27.667 28.5 -45s10.5 -36.333 10.5 -57
c0 -39.333 -8.5 -74.666 -25.5 -105.999s-40.833 -57.333 -71.5 -78c-26 -18 -56.667 -31.5 -92 -40.5s-73 -13.5 -113 -13.5c-34.667 0 -66.5 3.16699 -95.5 9.5s-56.5 16.5 -82.5 30.5c-12 6 -25.667 14.5 -41 25.5s-31.666 23.833 -48.999 38.5l97 130
c8.66699 -10 18.5 -19.167 29.5 -27.5s22.833 -15.833 35.5 -22.5c17.333 -10 35 -17.5 53 -22.5s35.667 -7.5 53 -7.5c14 0 27.333 1.66699 40 5s23.667 8.66602 33 15.999c9.33301 6.66699 16.5 15.167 21.5 25.5s7.5 21.5 7.5 33.5c0 22.667 -8.5 40 -25.5 52
s-43.167 18 -78.5 18h-111l17 140h111c19.333 -0.666992 37.5 1.5 54.5 6.5s30.5 11.5 40.5 19.5c6.66699 5.33301 11.834 12.166 15.501 20.499s5.5 18.166 5.5 29.499c0 10 -2.33301 19.333 -7 28s-11.334 16 -20.001 22c-8 4.66699 -17.667 8.5 -29 11.5s-24 4.5 -38 4.5
s-28.333 -1.5 -43 -4.5s-29.667 -7.16699 -45 -12.5c-10.667 -4 -20.834 -8.66699 -30.501 -14s-19.167 -11 -28.5 -17z" />
    <glyph glyph-name="afii10026" unicode="&#xc8;" horiz-adv-x="778" 
d="M127 700h189l-52 -420l319 420h196l-86 -700h-189l52 420l-319 -420h-196z" />
    <glyph glyph-name="afii10026" unicode="&#x418;" horiz-adv-x="778" 
d="M127 700h189l-52 -420l319 420h196l-86 -700h-189l52 420l-319 -420h-196z" />
    <glyph glyph-name="afii10027" unicode="&#xc9;" horiz-adv-x="778" 
d="M127 700h189l-52 -420l319 420h196l-86 -700h-189l52 420l-319 -420h-196zM575 892l106.001 -41.999c-11.333 -18.667 -24.5 -34.834 -39.5 -48.501s-31.5 -24.834 -49.5 -33.501c-20.667 -10.667 -42.334 -18.334 -65.001 -23.001s-45.667 -7 -69 -7
c-26 0 -49.667 2.5 -71 7.5s-40.333 12.833 -57 23.5c-16 9.33301 -29.833 20.5 -41.5 33.5s-20.834 28.833 -27.501 47.5l118 42c2 -10 5.5 -18.5 10.5 -25.5s12.167 -13.167 21.5 -18.5c7.33301 -5.33301 15.666 -9.16602 24.999 -11.499s20.333 -3.5 33 -3.5
c11.333 0 22.333 1.16699 33 3.5s20.334 5.83301 29.001 10.5s16.834 10.834 24.501 18.501s14.167 16.5 19.5 26.5z" />
    <glyph glyph-name="afii10027" unicode="&#x419;" horiz-adv-x="778" 
d="M127 700h189l-52 -420l319 420h196l-86 -700h-189l52 420l-319 -420h-196zM575 892l106.001 -41.999c-11.333 -18.667 -24.5 -34.834 -39.5 -48.501s-31.5 -24.834 -49.5 -33.501c-20.667 -10.667 -42.334 -18.334 -65.001 -23.001s-45.667 -7 -69 -7
c-26 0 -49.667 2.5 -71 7.5s-40.333 12.833 -57 23.5c-16 9.33301 -29.833 20.5 -41.5 33.5s-20.834 28.833 -27.501 47.5l118 42c2 -10 5.5 -18.5 10.5 -25.5s12.167 -13.167 21.5 -18.5c7.33301 -5.33301 15.666 -9.16602 24.999 -11.499s20.333 -3.5 33 -3.5
c11.333 0 22.333 1.16699 33 3.5s20.334 5.83301 29.001 10.5s16.834 10.834 24.501 18.501s14.167 16.5 19.5 26.5z" />
    <glyph glyph-name="afii10028" unicode="&#xca;" horiz-adv-x="700" 
d="M323 700l-36 -294l247 294h230l-308 -344l229 -356h-236l-175 301l-37 -301h-196l86 700h196z" />
    <glyph glyph-name="afii10028" unicode="&#x41a;" horiz-adv-x="700" 
d="M323 700l-36 -294l247 294h230l-308 -344l229 -356h-236l-175 301l-37 -301h-196l86 700h196z" />
    <glyph glyph-name="afii10029" unicode="&#xcb;" horiz-adv-x="735" 
d="M204 700l531.998 -0.00292969l-86 -700h-196l65 532h-140l-34 -276c-5.33301 -42 -11.5 -74.333 -18.5 -97s-16.833 -43.667 -29.5 -63c-22.667 -34.667 -52.667 -60.667 -90 -78s-86.666 -26.333 -147.999 -27c-18.667 0 -33.667 0.833008 -45 2.5
s-23.333 3.83398 -36 6.50098l21 168c7.33301 -2.66699 14.833 -4.5 22.5 -5.5s15.5 -1.5 23.5 -1.5c18.667 0 35.5 4.16699 50.5 12.5s26.833 19.833 35.5 34.5c4.66699 8.66699 9.33398 22.334 14.001 41.001s8.66699 40.334 12 65.001z" />
    <glyph glyph-name="afii10029" unicode="&#x41b;" horiz-adv-x="735" 
d="M204 700l531.998 -0.00292969l-86 -700h-196l65 532h-140l-34 -276c-5.33301 -42 -11.5 -74.333 -18.5 -97s-16.833 -43.667 -29.5 -63c-22.667 -34.667 -52.667 -60.667 -90 -78s-86.666 -26.333 -147.999 -27c-18.667 0 -33.667 0.833008 -45 2.5
s-23.333 3.83398 -36 6.50098l21 168c7.33301 -2.66699 14.833 -4.5 22.5 -5.5s15.5 -1.5 23.5 -1.5c18.667 0 35.5 4.16699 50.5 12.5s26.833 19.833 35.5 34.5c4.66699 8.66699 9.33398 22.334 14.001 41.001s8.66699 40.334 12 65.001z" />
    <glyph glyph-name="afii10030" unicode="&#xcc;" horiz-adv-x="870" 
d="M-8 0l188 700h192l75 -427l175 427h196l16 -700h-184l-6 406l-166 -406h-126l-72 406l-100 -406h-188z" />
    <glyph glyph-name="afii10030" unicode="&#x41c;" horiz-adv-x="870" 
d="M-8 0l188 700h192l75 -427l175 427h196l16 -700h-184l-6 406l-166 -406h-126l-72 406l-100 -406h-188z" />
    <glyph glyph-name="afii10031" unicode="&#xcd;" horiz-adv-x="756" 
d="M41 0l86 700h196l-31 -252h238l31 252h196l-86 -700h-196l34 280h-238l-34 -280h-196z" />
    <glyph glyph-name="afii10031" unicode="&#x41d;" horiz-adv-x="756" 
d="M41 0l86 700h196l-31 -252h238l31 252h196l-86 -700h-196l34 280h-238l-34 -280h-196z" />
    <glyph glyph-name="afii10032" unicode="&#xce;" horiz-adv-x="816" 
d="M466 720c50.667 0 97.332 -7.17188 139.999 -21.5049s79.334 -36.166 110.001 -65.499c29.333 -28.667 51.5 -63.167 66.5 -103.5s22.5 -85.166 22.5 -134.499c0 -70.667 -13.167 -133.667 -39.5 -189s-62.5 -101.666 -108.5 -138.999
c-36 -29.333 -75.833 -51.166 -119.5 -65.499s-92.167 -21.5 -145.5 -21.5c-51.333 0 -98.333 7 -141 21s-79 36 -109 66c-30 28 -52.333 62.167 -67 102.5s-22 85.5 -22 135.5c0 70 13 132.667 39 188s62.333 102 109 140c35.333 28.667 74.833 50.334 118.5 65.001
s92.5 22 146.5 22zM407.998 147.995c27.333 0 52.832 5.33301 76.499 16s43.834 25 60.501 43c18.667 20 33 45 43 75s15 63.667 15 101c0 27.333 -3.5 51 -10.5 71s-16.5 37 -28.5 51c-14 14.667 -30.833 26.167 -50.5 34.5s-40.834 12.5 -63.501 12.5
c-28 0 -53.833 -5.5 -77.5 -16.5s-43.5 -25.167 -59.5 -42.5c-19.333 -20.667 -33.833 -46 -43.5 -76s-14.5 -63.333 -14.5 -100c0 -28 3.33301 -52 10 -72s16.334 -36.667 29.001 -50c13.333 -15.333 29.833 -27 49.5 -35s41.167 -12 64.5 -12z" />
    <glyph glyph-name="afii10032" unicode="&#x41e;" horiz-adv-x="816" 
d="M466 720c50.667 0 97.332 -7.17188 139.999 -21.5049s79.334 -36.166 110.001 -65.499c29.333 -28.667 51.5 -63.167 66.5 -103.5s22.5 -85.166 22.5 -134.499c0 -70.667 -13.167 -133.667 -39.5 -189s-62.5 -101.666 -108.5 -138.999
c-36 -29.333 -75.833 -51.166 -119.5 -65.499s-92.167 -21.5 -145.5 -21.5c-51.333 0 -98.333 7 -141 21s-79 36 -109 66c-30 28 -52.333 62.167 -67 102.5s-22 85.5 -22 135.5c0 70 13 132.667 39 188s62.333 102 109 140c35.333 28.667 74.833 50.334 118.5 65.001
s92.5 22 146.5 22zM407.998 147.995c27.333 0 52.832 5.33301 76.499 16s43.834 25 60.501 43c18.667 20 33 45 43 75s15 63.667 15 101c0 27.333 -3.5 51 -10.5 71s-16.5 37 -28.5 51c-14 14.667 -30.833 26.167 -50.5 34.5s-40.834 12.5 -63.501 12.5
c-28 0 -53.833 -5.5 -77.5 -16.5s-43.5 -25.167 -59.5 -42.5c-19.333 -20.667 -33.833 -46 -43.5 -76s-14.5 -63.333 -14.5 -100c0 -28 3.33301 -52 10 -72s16.334 -36.667 29.001 -50c13.333 -15.333 29.833 -27 49.5 -35s41.167 -12 64.5 -12z" />
    <glyph glyph-name="afii10033" unicode="&#xcf;" horiz-adv-x="750" 
d="M127 700h624l-86 -700h-196l65 532h-232l-65 -532h-196z" />
    <glyph glyph-name="afii10033" unicode="&#x41f;" horiz-adv-x="750" 
d="M127 700h624l-86 -700h-196l65 532h-232l-65 -532h-196z" />
    <glyph glyph-name="afii10034" unicode="&#xd0;" horiz-adv-x="641" 
d="M41 0l86 699.999h295c45.333 0 83 -6 113 -18s55 -30.667 75 -56c12.667 -17.333 22.167 -37.166 28.5 -59.499s9.5 -45.833 9.5 -70.5c0 -36 -5.66699 -69 -17 -99s-27.333 -56.667 -48 -80c-25.333 -28 -55.5 -49.333 -90.5 -64s-77.167 -22 -126.5 -22h-101l-28 -231
h-196zM304 545.999l-20.002 -161h56c19.333 0 36 2.33301 50 7s25.333 11.667 34 21c6 6.66699 11.167 15.5 15.5 26.5s6.5 22.5 6.5 34.5c-0.666992 8.66699 -2.16699 17.167 -4.5 25.5s-5.83301 15.5 -10.5 21.5c-7.33301 8 -16.666 14.167 -27.999 18.5
s-25.666 6.5 -42.999 6.5h-56z" />
    <glyph glyph-name="afii10034" unicode="&#x420;" horiz-adv-x="641" 
d="M41 0l86 699.999h295c45.333 0 83 -6 113 -18s55 -30.667 75 -56c12.667 -17.333 22.167 -37.166 28.5 -59.499s9.5 -45.833 9.5 -70.5c0 -36 -5.66699 -69 -17 -99s-27.333 -56.667 -48 -80c-25.333 -28 -55.5 -49.333 -90.5 -64s-77.167 -22 -126.5 -22h-101l-28 -231
h-196zM304 545.999l-20.002 -161h56c19.333 0 36 2.33301 50 7s25.333 11.667 34 21c6 6.66699 11.167 15.5 15.5 26.5s6.5 22.5 6.5 34.5c-0.666992 8.66699 -2.16699 17.167 -4.5 25.5s-5.83301 15.5 -10.5 21.5c-7.33301 8 -16.666 14.167 -27.999 18.5
s-25.666 6.5 -42.999 6.5h-56z" />
    <glyph glyph-name="afii10035" unicode="&#xd1;" horiz-adv-x="614" 
d="M585 231l-23.999 -198.998c-28.667 -18 -58.667 -31.167 -90 -39.5s-66.333 -12.5 -105 -12.5c-42 0 -78.5 4.5 -109.5 13.5s-58.5 22.167 -82.5 39.5c-40 27.333 -70.167 63 -90.5 107s-30.5 95.333 -30.5 154c0 61.333 7.66699 116.333 23 165s39 91.667 71 129
c36.667 42.667 81.667 75.334 135 98.001s110.333 34 171 34c36.667 0 70.667 -4.5 102 -13.5s59.333 -23.167 84 -42.5l-25 -203c-21.333 27.333 -45.333 48.166 -72 62.499s-55.334 21.5 -86.001 21.5c-32.667 0 -63.167 -6.33301 -91.5 -19s-51.166 -31 -68.499 -55
c-14 -18.667 -24.333 -40.334 -31 -65.001s-10 -51.334 -10 -80.001c0 -32.667 4.83301 -60.834 14.5 -84.501s24.167 -42.5 43.5 -56.5c12 -9.33301 26.333 -16.666 43 -21.999s35 -8 55 -8c30 0 60.167 6.66699 90.5 20s58.166 32 83.499 56z" />
    <glyph glyph-name="afii10035" unicode="&#x421;" horiz-adv-x="614" 
d="M585 231l-23.999 -198.998c-28.667 -18 -58.667 -31.167 -90 -39.5s-66.333 -12.5 -105 -12.5c-42 0 -78.5 4.5 -109.5 13.5s-58.5 22.167 -82.5 39.5c-40 27.333 -70.167 63 -90.5 107s-30.5 95.333 -30.5 154c0 61.333 7.66699 116.333 23 165s39 91.667 71 129
c36.667 42.667 81.667 75.334 135 98.001s110.333 34 171 34c36.667 0 70.667 -4.5 102 -13.5s59.333 -23.167 84 -42.5l-25 -203c-21.333 27.333 -45.333 48.166 -72 62.499s-55.334 21.5 -86.001 21.5c-32.667 0 -63.167 -6.33301 -91.5 -19s-51.166 -31 -68.499 -55
c-14 -18.667 -24.333 -40.334 -31 -65.001s-10 -51.334 -10 -80.001c0 -32.667 4.83301 -60.834 14.5 -84.501s24.167 -42.5 43.5 -56.5c12 -9.33301 26.333 -16.666 43 -21.999s35 -8 55 -8c30 0 60.167 6.66699 90.5 20s58.166 32 83.499 56z" />
    <glyph glyph-name="afii10036" unicode="&#xd2;" horiz-adv-x="518" 
d="M139 0l65 532h-154l21 168h504l-21 -168h-154l-65 -532h-196z" />
    <glyph glyph-name="afii10036" unicode="&#x422;" horiz-adv-x="518" 
d="M139 0l65 532h-154l21 168h504l-21 -168h-154l-65 -532h-196z" />
    <glyph glyph-name="afii10037" unicode="&#xd3;" horiz-adv-x="686" 
d="M64 700h226l106 -300l155 300h206l-397 -700h-214l119 193z" />
    <glyph glyph-name="afii10037" unicode="&#x423;" horiz-adv-x="686" 
d="M64 700h226l106 -300l155 300h206l-397 -700h-214l119 193z" />
    <glyph glyph-name="afii10038" unicode="&#xd4;" horiz-adv-x="920" 
d="M340 0l12 97.998c-46 -1.33301 -90 4.33398 -132 17.001s-76.333 33 -103 61c-20.667 20.667 -36 44.667 -46 72s-15 60 -15 98c0 48 8 91.167 24 129.5s38.667 70.833 68 97.5c30 27.333 68.333 48.666 115 63.999s99.334 22.333 158.001 21l9 77h196l-9 -77
c45.333 0.666992 89 -5.33301 131 -18s76.667 -32.667 104 -60c20 -21.333 35 -45.666 45 -72.999s15.333 -59.666 16 -96.999c-0.666992 -48.667 -9 -92.167 -25 -130.5s-38.333 -70.5 -67 -96.5c-30.667 -28 -69.334 -49.667 -116.001 -65s-99 -22 -157 -20l-12 -98h-196z
M383 237.998l35 280c-28.667 0.666992 -53.5 -3 -74.5 -11s-38.5 -19.667 -52.5 -35c-13.333 -14.667 -23.333 -32 -30 -52s-9.66699 -40 -9 -60c0 -16.667 2 -32.167 6 -46.5s10.333 -26.5 19 -36.5c11.333 -14.667 26.333 -25.167 45 -31.5s39 -8.83301 61 -7.5z
M586 517.998l-35 -279.999c28 -1.33301 52.5 2 73.5 10s38.833 20 53.5 36c12.667 14 22.167 31 28.5 51s9.83301 40.333 10.5 61c0 16 -2.16699 31.167 -6.5 45.5s-10.5 26.833 -18.5 37.5c-12 14 -27.333 24.167 -46 30.5s-38.667 9.16602 -60 8.49902z" />
    <glyph glyph-name="afii10038" unicode="&#x424;" horiz-adv-x="920" 
d="M340 0l12 97.998c-46 -1.33301 -90 4.33398 -132 17.001s-76.333 33 -103 61c-20.667 20.667 -36 44.667 -46 72s-15 60 -15 98c0 48 8 91.167 24 129.5s38.667 70.833 68 97.5c30 27.333 68.333 48.666 115 63.999s99.334 22.333 158.001 21l9 77h196l-9 -77
c45.333 0.666992 89 -5.33301 131 -18s76.667 -32.667 104 -60c20 -21.333 35 -45.666 45 -72.999s15.333 -59.666 16 -96.999c-0.666992 -48.667 -9 -92.167 -25 -130.5s-38.333 -70.5 -67 -96.5c-30.667 -28 -69.334 -49.667 -116.001 -65s-99 -22 -157 -20l-12 -98h-196z
M383 237.998l35 280c-28.667 0.666992 -53.5 -3 -74.5 -11s-38.5 -19.667 -52.5 -35c-13.333 -14.667 -23.333 -32 -30 -52s-9.66699 -40 -9 -60c0 -16.667 2 -32.167 6 -46.5s10.333 -26.5 19 -36.5c11.333 -14.667 26.333 -25.167 45 -31.5s39 -8.83301 61 -7.5z
M586 517.998l-35 -279.999c28 -1.33301 52.5 2 73.5 10s38.833 20 53.5 36c12.667 14 22.167 31 28.5 51s9.83301 40.333 10.5 61c0 16 -2.16699 31.167 -6.5 45.5s-10.5 26.833 -18.5 37.5c-12 14 -27.333 24.167 -46 30.5s-38.667 9.16602 -60 8.49902z" />
    <glyph glyph-name="afii10039" unicode="&#xd5;" horiz-adv-x="713" 
d="M-29 0l301 368l-192 332h226l92 -189l133 189h216l-259 -322l210 -378h-226l-109 231l-168 -231h-224z" />
    <glyph glyph-name="afii10039" unicode="&#x425;" horiz-adv-x="713" 
d="M-29 0l301 368l-192 332h226l92 -189l133 189h216l-259 -322l210 -378h-226l-109 231l-168 -231h-224z" />
    <glyph glyph-name="afii10040" unicode="&#xd6;" horiz-adv-x="777" 
d="M41 0l86 700h196l-65 -532h231l65 532h196l-65 -532h84l-38 -308h-168l17 140h-539z" />
    <glyph glyph-name="afii10040" unicode="&#x426;" horiz-adv-x="777" 
d="M41 0l86 700h196l-65 -532h231l65 532h196l-65 -532h84l-38 -308h-168l17 140h-539z" />
    <glyph glyph-name="afii10041" unicode="&#xd7;" horiz-adv-x="679" 
d="M398 0l33.999 273c-23.333 -4 -44.833 -6.66699 -64.5 -8s-39.5 -2 -59.5 -2c-39.333 0 -73 3 -101 9s-50.667 15.333 -68 28c-20 13.333 -35.5 31.333 -46.5 54s-16.5 49.667 -16.5 81c0 7.33301 0.333008 15.333 1 24s2 21.334 4 38.001l25 203h196l-22 -175
c-1.33301 -8.66699 -2.16602 -16 -2.49902 -22s-0.5 -11.667 -0.5 -17c0 -15.333 2.66699 -27.333 8 -36s14.333 -15.334 27 -20.001c7.33301 -3.33301 16.666 -5.83301 27.999 -7.5s23.333 -2.5 36 -2.5c8.66699 -0.666992 20.834 -0.166992 36.501 1.5
s28.167 3.5 37.5 5.5l34 273h196l-86 -700h-196z" />
    <glyph glyph-name="afii10041" unicode="&#x427;" horiz-adv-x="679" 
d="M398 0l33.999 273c-23.333 -4 -44.833 -6.66699 -64.5 -8s-39.5 -2 -59.5 -2c-39.333 0 -73 3 -101 9s-50.667 15.333 -68 28c-20 13.333 -35.5 31.333 -46.5 54s-16.5 49.667 -16.5 81c0 7.33301 0.333008 15.333 1 24s2 21.334 4 38.001l25 203h196l-22 -175
c-1.33301 -8.66699 -2.16602 -16 -2.49902 -22s-0.5 -11.667 -0.5 -17c0 -15.333 2.66699 -27.333 8 -36s14.333 -15.334 27 -20.001c7.33301 -3.33301 16.666 -5.83301 27.999 -7.5s23.333 -2.5 36 -2.5c8.66699 -0.666992 20.834 -0.166992 36.501 1.5
s28.167 3.5 37.5 5.5l34 273h196l-86 -700h-196z" />
    <glyph glyph-name="afii10042" unicode="&#xd8;" horiz-adv-x="1050" 
d="M41 0l86 700h196l-65 -532h168l65 532h196l-65 -532h168l65 532h196l-86 -700h-924z" />
    <glyph glyph-name="afii10042" unicode="&#x428;" horiz-adv-x="1050" 
d="M41 0l86 700h196l-65 -532h168l65 532h196l-65 -532h168l65 532h196l-86 -700h-924z" />
    <glyph glyph-name="afii10043" unicode="&#xd9;" horiz-adv-x="1078" 
d="M41 0l86 700h196l-65 -532h168l65 532h196l-65 -532h168l65 532h196l-65 -532h84l-38 -308h-168l17 140h-840z" />
    <glyph glyph-name="afii10043" unicode="&#x429;" horiz-adv-x="1078" 
d="M41 0l86 700h196l-65 -532h168l65 532h196l-65 -532h168l65 532h196l-65 -532h84l-38 -308h-168l17 140h-840z" />
    <glyph glyph-name="afii10044" unicode="&#xda;" horiz-adv-x="749" 
d="M125 0l65.001 532.001h-140l21 168h336l-34 -273h117c42.667 -0.666992 77.667 -4.83398 105 -12.501s50 -18.5 68 -32.5c19.333 -16 34.666 -36.167 45.999 -60.5s17 -52.5 17 -84.5c0 -42.667 -9 -80.167 -27 -112.5s-42.667 -58.5 -74 -78.5
c-23.333 -15.333 -49.833 -26.833 -79.5 -34.5s-66.167 -11.5 -109.5 -11.5h-311zM338.001 140.001h78.0029c20 -0.666992 35.833 0.333008 47.5 3s22.167 6.66699 31.5 12c12 6.66699 20.833 15.5 26.5 26.5s8.5 23.833 8.5 38.5
c-0.666992 10.667 -2.83398 20.667 -6.50098 30s-9.16699 17 -16.5 23c-6.66699 4.66699 -15.334 8.16699 -26.001 10.5s-26.334 3.5 -47.001 3.5h-78z" />
    <glyph glyph-name="afii10044" unicode="&#x42a;" horiz-adv-x="749" 
d="M125 0l65.001 532.001h-140l21 168h336l-34 -273h117c42.667 -0.666992 77.667 -4.83398 105 -12.501s50 -18.5 68 -32.5c19.333 -16 34.666 -36.167 45.999 -60.5s17 -52.5 17 -84.5c0 -42.667 -9 -80.167 -27 -112.5s-42.667 -58.5 -74 -78.5
c-23.333 -15.333 -49.833 -26.833 -79.5 -34.5s-66.167 -11.5 -109.5 -11.5h-311zM338.001 140.001h78.0029c20 -0.666992 35.833 0.333008 47.5 3s22.167 6.66699 31.5 12c12 6.66699 20.833 15.5 26.5 26.5s8.5 23.833 8.5 38.5
c-0.666992 10.667 -2.83398 20.667 -6.50098 30s-9.16699 17 -16.5 23c-6.66699 4.66699 -15.334 8.16699 -26.001 10.5s-26.334 3.5 -47.001 3.5h-78z" />
    <glyph glyph-name="afii10045" unicode="&#xdb;" horiz-adv-x="938" 
d="M41 0l86.001 700.001h196l-34 -273h117c42.667 -0.666992 77.667 -4.83398 105 -12.501s50 -18.5 68 -32.5c19.333 -16 34.666 -36.167 45.999 -60.5s17 -52.5 17 -84.5c0 -42.667 -9 -80.167 -27 -112.5s-42.667 -58.5 -74 -78.5
c-23.333 -15.333 -49.833 -26.833 -79.5 -34.5s-66.167 -11.5 -109.5 -11.5h-311zM254.001 140.001h78.002c20 -0.666992 35.833 0.333008 47.5 3s22.167 6.66699 31.5 12c12 6.66699 20.833 15.5 26.5 26.5s8.5 23.833 8.5 38.5c0 10.667 -2 20.667 -6 30
s-9.66699 17 -17 23c-6.66699 4.66699 -15.334 8.16699 -26.001 10.5s-26.334 3.5 -47.001 3.5h-78zM657.003 0.000976562l86 700h196l-86 -700h-196z" />
    <glyph glyph-name="afii10045" unicode="&#x42b;" horiz-adv-x="938" 
d="M41 0l86.001 700.001h196l-34 -273h117c42.667 -0.666992 77.667 -4.83398 105 -12.501s50 -18.5 68 -32.5c19.333 -16 34.666 -36.167 45.999 -60.5s17 -52.5 17 -84.5c0 -42.667 -9 -80.167 -27 -112.5s-42.667 -58.5 -74 -78.5
c-23.333 -15.333 -49.833 -26.833 -79.5 -34.5s-66.167 -11.5 -109.5 -11.5h-311zM254.001 140.001h78.002c20 -0.666992 35.833 0.333008 47.5 3s22.167 6.66699 31.5 12c12 6.66699 20.833 15.5 26.5 26.5s8.5 23.833 8.5 38.5c0 10.667 -2 20.667 -6 30
s-9.66699 17 -17 23c-6.66699 4.66699 -15.334 8.16699 -26.001 10.5s-26.334 3.5 -47.001 3.5h-78zM657.003 0.000976562l86 700h196l-86 -700h-196z" />
    <glyph glyph-name="afii10046" unicode="&#xdc;" horiz-adv-x="665" 
d="M41 0l86.001 700.001h196l-34 -273h117c42.667 -0.666992 77.667 -4.83398 105 -12.501s50 -18.5 68 -32.5c19.333 -16 34.666 -36.167 45.999 -60.5s17 -52.5 17 -84.5c0 -42.667 -9 -80.167 -27 -112.5s-42.667 -58.5 -74 -78.5
c-23.333 -15.333 -49.833 -26.833 -79.5 -34.5s-66.167 -11.5 -109.5 -11.5h-311zM254.001 140.001h78.002c20 -0.666992 35.833 0.333008 47.5 3s22.167 6.66699 31.5 12c12 6.66699 20.833 15.5 26.5 26.5s8.5 23.833 8.5 38.5c0 10.667 -2 20.667 -6 30
s-9.66699 17 -17 23c-6.66699 4.66699 -15.334 8.16699 -26.001 10.5s-26.334 3.5 -47.001 3.5h-78z" />
    <glyph glyph-name="afii10046" unicode="&#x42c;" horiz-adv-x="665" 
d="M41 0l86.001 700.001h196l-34 -273h117c42.667 -0.666992 77.667 -4.83398 105 -12.501s50 -18.5 68 -32.5c19.333 -16 34.666 -36.167 45.999 -60.5s17 -52.5 17 -84.5c0 -42.667 -9 -80.167 -27 -112.5s-42.667 -58.5 -74 -78.5
c-23.333 -15.333 -49.833 -26.833 -79.5 -34.5s-66.167 -11.5 -109.5 -11.5h-311zM254.001 140.001h78.002c20 -0.666992 35.833 0.333008 47.5 3s22.167 6.66699 31.5 12c12 6.66699 20.833 15.5 26.5 26.5s8.5 23.833 8.5 38.5c0 10.667 -2 20.667 -6 30
s-9.66699 17 -17 23c-6.66699 4.66699 -15.334 8.16699 -26.001 10.5s-26.334 3.5 -47.001 3.5h-78z" />
    <glyph glyph-name="afii10047" unicode="&#xdd;" horiz-adv-x="620" 
d="M81 499l20.9971 171.994c26 15.333 55 27.333 87 36s68 13 108 13c40.667 0 76.834 -4.66699 108.501 -14s59.5 -22.333 83.5 -39c39.333 -28 69.333 -64.167 90 -108.5s31 -97.166 31 -158.499c0 -59.333 -7.83301 -113 -23.5 -161s-39.167 -90.333 -70.5 -127
c-37.333 -43.333 -82.666 -76.166 -135.999 -98.499s-110 -33.5 -170 -33.5c-35.333 0 -68.666 3.83301 -99.999 11.5s-60.333 19.834 -87 36.501l22 175c22 -23.333 47.167 -40.666 75.5 -51.999s59.833 -17 94.5 -17c24.667 0 47.167 3 67.5 9s40.166 16.333 59.499 31
s34.833 31.834 46.5 51.501s19.167 40.167 22.5 61.5h-230l17 140h220c-2 20.667 -7.83301 40.5 -17.5 59.5s-22.5 34.833 -38.5 47.5c-14.667 10 -31.5 17.833 -50.5 23.5s-38.5 8.5 -58.5 8.5c-29.333 -0.666992 -59.166 -6.66699 -89.499 -18
s-57.833 -27.666 -82.5 -48.999z" />
    <glyph glyph-name="afii10047" unicode="&#x42d;" horiz-adv-x="620" 
d="M81 499l20.9971 171.994c26 15.333 55 27.333 87 36s68 13 108 13c40.667 0 76.834 -4.66699 108.501 -14s59.5 -22.333 83.5 -39c39.333 -28 69.333 -64.167 90 -108.5s31 -97.166 31 -158.499c0 -59.333 -7.83301 -113 -23.5 -161s-39.167 -90.333 -70.5 -127
c-37.333 -43.333 -82.666 -76.166 -135.999 -98.499s-110 -33.5 -170 -33.5c-35.333 0 -68.666 3.83301 -99.999 11.5s-60.333 19.834 -87 36.501l22 175c22 -23.333 47.167 -40.666 75.5 -51.999s59.833 -17 94.5 -17c24.667 0 47.167 3 67.5 9s40.166 16.333 59.499 31
s34.833 31.834 46.5 51.501s19.167 40.167 22.5 61.5h-230l17 140h220c-2 20.667 -7.83301 40.5 -17.5 59.5s-22.5 34.833 -38.5 47.5c-14.667 10 -31.5 17.833 -50.5 23.5s-38.5 8.5 -58.5 8.5c-29.333 -0.666992 -59.166 -6.66699 -89.499 -18
s-57.833 -27.666 -82.5 -48.999z" />
    <glyph glyph-name="afii10048" unicode="&#xde;" horiz-adv-x="1112" 
d="M290 432l83.998 -0.00390625c7.33301 38.667 21.333 75 42 109s47.667 64.667 81 92c35.333 28.667 74.833 50.167 118.5 64.5s92.5 21.833 146.5 22.5c50.667 0 97.334 -7.16699 140.001 -21.5s79.334 -36.166 110.001 -65.499c29.333 -28.667 51.5 -63.167 66.5 -103.5
s22.5 -85.166 22.5 -134.499c0 -70.667 -13.167 -133.667 -39.5 -189s-62.5 -101.666 -108.5 -138.999c-36 -29.333 -75.833 -51 -119.5 -65s-92.167 -21.333 -145.5 -22c-53.333 0 -100.333 7.33301 -141 22s-75 36.334 -103 65.001c-26.667 25.333 -47.667 56.5 -63 93.5
s-23 76.167 -23 117.5h-87l-34 -278h-196l86 700h196zM703.998 147.996c27.333 0 52.832 5.33105 76.499 15.998s43.834 25 60.501 43c18.667 20 33 45 43 75s15 63.667 15 101c0 27.333 -3.5 51 -10.5 71s-16.5 37 -28.5 51c-14 14.667 -30.833 26.167 -50.5 34.5
s-40.834 12.5 -63.501 12.5c-28 0 -53.833 -5.5 -77.5 -16.5s-43.5 -25.167 -59.5 -42.5c-19.333 -20.667 -33.833 -46 -43.5 -76s-14.5 -63.333 -14.5 -100c0 -28 3.33301 -52 10 -72s16.334 -36.667 29.001 -50c13.333 -15.333 29.833 -27.166 49.5 -35.499
s41.167 -12.166 64.5 -11.499z" />
    <glyph glyph-name="afii10048" unicode="&#x42e;" horiz-adv-x="1112" 
d="M290 432l83.998 -0.00390625c7.33301 38.667 21.333 75 42 109s47.667 64.667 81 92c35.333 28.667 74.833 50.167 118.5 64.5s92.5 21.833 146.5 22.5c50.667 0 97.334 -7.16699 140.001 -21.5s79.334 -36.166 110.001 -65.499c29.333 -28.667 51.5 -63.167 66.5 -103.5
s22.5 -85.166 22.5 -134.499c0 -70.667 -13.167 -133.667 -39.5 -189s-62.5 -101.666 -108.5 -138.999c-36 -29.333 -75.833 -51 -119.5 -65s-92.167 -21.333 -145.5 -22c-53.333 0 -100.333 7.33301 -141 22s-75 36.334 -103 65.001c-26.667 25.333 -47.667 56.5 -63 93.5
s-23 76.167 -23 117.5h-87l-34 -278h-196l86 700h196zM703.998 147.996c27.333 0 52.832 5.33105 76.499 15.998s43.834 25 60.501 43c18.667 20 33 45 43 75s15 63.667 15 101c0 27.333 -3.5 51 -10.5 71s-16.5 37 -28.5 51c-14 14.667 -30.833 26.167 -50.5 34.5
s-40.834 12.5 -63.501 12.5c-28 0 -53.833 -5.5 -77.5 -16.5s-43.5 -25.167 -59.5 -42.5c-19.333 -20.667 -33.833 -46 -43.5 -76s-14.5 -63.333 -14.5 -100c0 -28 3.33301 -52 10 -72s16.334 -36.667 29.001 -50c13.333 -15.333 29.833 -27.166 49.5 -35.499
s41.167 -12.166 64.5 -11.499z" />
    <glyph glyph-name="afii10049" unicode="&#xdf;" horiz-adv-x="644" 
d="M-8 0l220.999 263.001c-15.333 4 -29.5 9.5 -42.5 16.5s-23.833 14.167 -32.5 21.5c-20 15.333 -35.333 35.166 -46 59.499s-16 52.5 -16 84.5c0 38 7.5 74.333 22.5 109s37.167 64 66.5 88c22.667 18.667 48.834 33 78.501 43s65.167 15 106.5 15h295l-86 -700h-196
l29 238h-18l-172 -238h-210zM408.999 378.001l21.001 167.998h-54c-20 0 -36.833 -2.16699 -50.5 -6.5s-24.834 -10.166 -33.501 -17.499c-8.66699 -8 -15.167 -17.5 -19.5 -28.5s-6.5 -24.833 -6.5 -41.5c0 -12 1.16699 -22 3.5 -30s6.16602 -14.667 11.499 -20
c6.66699 -8 15.834 -14.167 27.501 -18.5s27.167 -6.16602 46.5 -5.49902h54z" />
    <glyph glyph-name="afii10049" unicode="&#x42f;" horiz-adv-x="644" 
d="M-8 0l220.999 263.001c-15.333 4 -29.5 9.5 -42.5 16.5s-23.833 14.167 -32.5 21.5c-20 15.333 -35.333 35.166 -46 59.499s-16 52.5 -16 84.5c0 38 7.5 74.333 22.5 109s37.167 64 66.5 88c22.667 18.667 48.834 33 78.501 43s65.167 15 106.5 15h295l-86 -700h-196
l29 238h-18l-172 -238h-210zM408.999 378.001l21.001 167.998h-54c-20 0 -36.833 -2.16699 -50.5 -6.5s-24.834 -10.166 -33.501 -17.499c-8.66699 -8 -15.167 -17.5 -19.5 -28.5s-6.5 -24.833 -6.5 -41.5c0 -12 1.16699 -22 3.5 -30s6.16602 -14.667 11.499 -20
c6.66699 -8 15.834 -14.167 27.501 -18.5s27.167 -6.16602 46.5 -5.49902h54z" />
    <glyph glyph-name="afii10065" unicode="&#xe0;" horiz-adv-x="638" 
d="M444 424l7.00098 58.999h168l-59 -483h-168l7 57c-20 -25.333 -44 -44.166 -72 -56.499s-58 -18.5 -90 -18.5c-31.333 0 -59 5 -83 15s-45 26 -63 48c-17.333 20 -30.5 43.833 -39.5 71.5s-13.5 59.5 -13.5 95.5c0 44.667 6.83301 86.5 20.5 125.5s34.5 71.833 62.5 98.5
c22 21.333 47.5 37.5 76.5 48.5s59.833 16.5 92.5 16.5c36.667 0 67.667 -6.83301 93 -20.5s45.666 -32.5 60.999 -56.5zM313.001 125.999c16.667 0 32.002 2.66797 46.002 8.00098s26.667 14.333 38 27c10.667 11.333 18.667 25.166 24 41.499s8 33.833 8 52.5
c0 17.333 -2.33301 32 -7 44s-11 22.667 -19 32c-8.66699 8.66699 -18.334 15 -29.001 19s-23.334 6.33301 -38.001 7c-17.333 -0.666992 -33.166 -3.66699 -47.499 -9s-26.833 -14 -37.5 -26s-18.834 -26.167 -24.501 -42.5s-8.16699 -33.5 -7.5 -51.5
c0 -16 2 -30.333 6 -43s10.667 -23.667 20 -33c8 -9.33301 17.5 -16 28.5 -20s24.167 -6 39.5 -6z" />
    <glyph glyph-name="afii10065" unicode="&#x430;" horiz-adv-x="638" 
d="M444 424l7.00098 58.999h168l-59 -483h-168l7 57c-20 -25.333 -44 -44.166 -72 -56.499s-58 -18.5 -90 -18.5c-31.333 0 -59 5 -83 15s-45 26 -63 48c-17.333 20 -30.5 43.833 -39.5 71.5s-13.5 59.5 -13.5 95.5c0 44.667 6.83301 86.5 20.5 125.5s34.5 71.833 62.5 98.5
c22 21.333 47.5 37.5 76.5 48.5s59.833 16.5 92.5 16.5c36.667 0 67.667 -6.83301 93 -20.5s45.666 -32.5 60.999 -56.5zM313.001 125.999c16.667 0 32.002 2.66797 46.002 8.00098s26.667 14.333 38 27c10.667 11.333 18.667 25.166 24 41.499s8 33.833 8 52.5
c0 17.333 -2.33301 32 -7 44s-11 22.667 -19 32c-8.66699 8.66699 -18.334 15 -29.001 19s-23.334 6.33301 -38.001 7c-17.333 -0.666992 -33.166 -3.66699 -47.499 -9s-26.833 -14 -37.5 -26s-18.834 -26.167 -24.501 -42.5s-8.16699 -33.5 -7.5 -51.5
c0 -16 2 -30.333 6 -43s10.667 -23.667 20 -33c8 -9.33301 17.5 -16 28.5 -20s24.167 -6 39.5 -6z" />
    <glyph glyph-name="afii10066" unicode="&#xe1;" horiz-adv-x="630" 
d="M206 386l3.00293 -0.00390625c8 10.667 17 20.167 27 28.5s21 16.166 33 23.499c20 11.333 41.167 19.833 63.5 25.5s47.166 8.5 74.499 8.5c31.333 0 59.166 -4.66699 83.499 -14s45.833 -23.666 64.5 -42.999c17.333 -19.333 30.333 -41.666 39 -66.999
s13 -53.333 13 -84c0 -48 -8 -90.333 -24 -127s-37.333 -66.667 -64 -90c-24.667 -21.333 -53.834 -37.5 -87.501 -48.5s-73.5 -16.5 -119.5 -16.5s-83.333 4.83301 -112 14.5s-53.667 23.834 -75 42.501c-26 22 -46 49.5 -60 82.5s-21 73.167 -21 120.5c0 12 0.5 24 1.5 36
s2.5 24.667 4.5 38c4.66699 34 12.5 67.333 23.5 100s25.833 64.334 44.5 95.001c22 37.333 47.167 68.5 75.5 93.5s63.5 45.5 105.5 61.5c30 11.333 63.333 19.833 100 25.5s58.667 9.5 66 11.5c14.667 3.33301 25.5 7.5 32.5 12.5s11.5 11.5 13.5 19.5h140
c-2.66699 -21.333 -9 -41.5 -19 -60.5s-22.333 -34.833 -37 -47.5c-14.667 -13.333 -32.167 -24.666 -52.5 -33.999s-50.166 -18.333 -89.499 -27c-52 -12.667 -86.333 -21.667 -103 -27s-30.667 -11 -42 -17c-26 -14 -47.333 -32.167 -64 -54.5
s-29.334 -49.5 -38.001 -81.5zM313.003 107.996c16.667 0 32.3359 2.99805 47.0029 8.99805s26.667 14.333 36 25s16.666 24.334 21.999 41.001s8 34.334 8 53.001c0 16.667 -2 31.167 -6 43.5s-10 23.166 -18 32.499c-8.66699 8.66699 -18.5 15.167 -29.5 19.5
s-23.167 6.5 -36.5 6.5c-16.667 0 -31.834 -2.83301 -45.501 -8.5s-25.834 -14.5 -36.501 -26.5c-10.667 -11.333 -18.667 -25.166 -24 -41.499s-8 -33.833 -8 -52.5c0 -16 2 -30.5 6 -43.5s10.667 -23.833 20 -32.5c8 -8.66699 17.5 -15 28.5 -19s23.167 -6 36.5 -6z" />
    <glyph glyph-name="afii10066" unicode="&#x431;" horiz-adv-x="630" 
d="M206 386l3.00293 -0.00390625c8 10.667 17 20.167 27 28.5s21 16.166 33 23.499c20 11.333 41.167 19.833 63.5 25.5s47.166 8.5 74.499 8.5c31.333 0 59.166 -4.66699 83.499 -14s45.833 -23.666 64.5 -42.999c17.333 -19.333 30.333 -41.666 39 -66.999
s13 -53.333 13 -84c0 -48 -8 -90.333 -24 -127s-37.333 -66.667 -64 -90c-24.667 -21.333 -53.834 -37.5 -87.501 -48.5s-73.5 -16.5 -119.5 -16.5s-83.333 4.83301 -112 14.5s-53.667 23.834 -75 42.501c-26 22 -46 49.5 -60 82.5s-21 73.167 -21 120.5c0 12 0.5 24 1.5 36
s2.5 24.667 4.5 38c4.66699 34 12.5 67.333 23.5 100s25.833 64.334 44.5 95.001c22 37.333 47.167 68.5 75.5 93.5s63.5 45.5 105.5 61.5c30 11.333 63.333 19.833 100 25.5s58.667 9.5 66 11.5c14.667 3.33301 25.5 7.5 32.5 12.5s11.5 11.5 13.5 19.5h140
c-2.66699 -21.333 -9 -41.5 -19 -60.5s-22.333 -34.833 -37 -47.5c-14.667 -13.333 -32.167 -24.666 -52.5 -33.999s-50.166 -18.333 -89.499 -27c-52 -12.667 -86.333 -21.667 -103 -27s-30.667 -11 -42 -17c-26 -14 -47.333 -32.167 -64 -54.5
s-29.334 -49.5 -38.001 -81.5zM313.003 107.996c16.667 0 32.3359 2.99805 47.0029 8.99805s26.667 14.333 36 25s16.666 24.334 21.999 41.001s8 34.334 8 53.001c0 16.667 -2 31.167 -6 43.5s-10 23.166 -18 32.499c-8.66699 8.66699 -18.5 15.167 -29.5 19.5
s-23.167 6.5 -36.5 6.5c-16.667 0 -31.834 -2.83301 -45.501 -8.5s-25.834 -14.5 -36.501 -26.5c-10.667 -11.333 -18.667 -25.166 -24 -41.499s-8 -33.833 -8 -52.5c0 -16 2 -30.5 6 -43.5s10.667 -23.833 20 -32.5c8 -8.66699 17.5 -15 28.5 -19s23.167 -6 36.5 -6z" />
    <glyph glyph-name="afii10067" unicode="&#xe2;" horiz-adv-x="560" 
d="M93 483l315.002 0.000976562c21.333 -0.666992 40.333 -3.5 57 -8.5s30.667 -12.833 42 -23.5c8.66699 -9.33301 15.5 -20 20.5 -32s7.5 -25 7.5 -39c0 -18.667 -3.33301 -36 -10 -52s-16.334 -30 -29.001 -42c-8.66699 -8 -18 -15 -28 -21s-20.333 -10.333 -31 -13v-2
c10.667 -2.66699 21.167 -6.5 31.5 -11.5s19.5 -11.167 27.5 -18.5c8.66699 -9.33301 15.667 -20.833 21 -34.5s8 -28.5 8 -44.5c0 -23.333 -4.83301 -44.333 -14.5 -63s-23.167 -34.334 -40.5 -47.001c-14.667 -10.667 -30.834 -18.5 -48.501 -23.5
s-39.167 -7.5 -64.5 -7.5h-323zM238.002 294.001h71.999c8.66699 0 15.834 0.5 21.501 1.5s10.834 3.16699 15.501 6.5c6 4 10.667 9.33301 14 16s5 14 5 22c0 6.66699 -1.33301 12.5 -4 17.5s-6.33398 9.16699 -11.001 12.5c-4 2 -9 3.83301 -15 5.5s-12 2.5 -18 2.5h-70z
M215.001 105.001l76.999 0.000976562c10 0 18.333 1 25 3s13 5.33301 19 10s10.333 10.167 13 16.5s4.33398 13.166 5.00098 20.499c0 6 -1.16699 11.667 -3.5 17s-5.16602 10 -8.49902 14c-4.66699 4 -10.334 7 -17.001 9s-14.667 3.33301 -24 4h-75z" />
    <glyph glyph-name="afii10067" unicode="&#x432;" horiz-adv-x="560" 
d="M93 483l315.002 0.000976562c21.333 -0.666992 40.333 -3.5 57 -8.5s30.667 -12.833 42 -23.5c8.66699 -9.33301 15.5 -20 20.5 -32s7.5 -25 7.5 -39c0 -18.667 -3.33301 -36 -10 -52s-16.334 -30 -29.001 -42c-8.66699 -8 -18 -15 -28 -21s-20.333 -10.333 -31 -13v-2
c10.667 -2.66699 21.167 -6.5 31.5 -11.5s19.5 -11.167 27.5 -18.5c8.66699 -9.33301 15.667 -20.833 21 -34.5s8 -28.5 8 -44.5c0 -23.333 -4.83301 -44.333 -14.5 -63s-23.167 -34.334 -40.5 -47.001c-14.667 -10.667 -30.834 -18.5 -48.501 -23.5
s-39.167 -7.5 -64.5 -7.5h-323zM238.002 294.001h71.999c8.66699 0 15.834 0.5 21.501 1.5s10.834 3.16699 15.501 6.5c6 4 10.667 9.33301 14 16s5 14 5 22c0 6.66699 -1.33301 12.5 -4 17.5s-6.33398 9.16699 -11.001 12.5c-4 2 -9 3.83301 -15 5.5s-12 2.5 -18 2.5h-70z
M215.001 105.001l76.999 0.000976562c10 0 18.333 1 25 3s13 5.33301 19 10s10.333 10.167 13 16.5s4.33398 13.166 5.00098 20.499c0 6 -1.16699 11.667 -3.5 17s-5.16602 10 -8.49902 14c-4.66699 4 -10.334 7 -17.001 9s-14.667 3.33301 -24 4h-75z" />
    <glyph glyph-name="glyph146" unicode="&#xe3;" horiz-adv-x="399" 
d="M34 0l59 483h336l-15 -126h-161l-44 -357h-175z" />
    <glyph glyph-name="glyph146" unicode="&#x433;" horiz-adv-x="399" 
d="M34 0l59 483h336l-15 -126h-161l-44 -357h-175z" />
    <glyph glyph-name="afii10069" unicode="&#xe4;" horiz-adv-x="644" 
d="M156 483l440.999 0.000976562l-44 -363h70l-32 -260h-154l17 140h-308l-17 -140h-154l32 260c16 0 30.833 3.66699 44.5 11s25.834 17.666 36.501 30.999c11.333 14.667 20.833 34.167 28.5 58.5s13.5 50.833 17.5 79.5zM384.999 120.001l29.999 243h-116l-11 -87
c-3.33301 -26.667 -7.33301 -47.5 -12 -62.5s-10.667 -28.833 -18 -41.5c-5.33301 -9.33301 -11.666 -18.5 -18.999 -27.5s-15.333 -17.167 -24 -24.5h170z" />
    <glyph glyph-name="afii10069" unicode="&#x434;" horiz-adv-x="644" 
d="M156 483l440.999 0.000976562l-44 -363h70l-32 -260h-154l17 140h-308l-17 -140h-154l32 260c16 0 30.833 3.66699 44.5 11s25.834 17.666 36.501 30.999c11.333 14.667 20.833 34.167 28.5 58.5s13.5 50.833 17.5 79.5zM384.999 120.001l29.999 243h-116l-11 -87
c-3.33301 -26.667 -7.33301 -47.5 -12 -62.5s-10.667 -28.833 -18 -41.5c-5.33301 -9.33301 -11.666 -18.5 -18.999 -27.5s-15.333 -17.167 -24 -24.5h170z" />
    <glyph glyph-name="afii10070" unicode="&#xe5;" horiz-adv-x="592" 
d="M386 147l168.002 -0.00390625c-10 -22 -22.167 -42.167 -36.5 -60.5s-29.833 -33.833 -46.5 -46.5c-26.667 -20.667 -55.667 -35.5 -87 -44.5s-65.333 -13.5 -102 -13.5c-38.667 0 -73.334 5.16699 -104.001 15.5s-57.334 27.5 -80.001 51.5
c-19.333 19.333 -34.166 42.333 -44.499 69s-15.5 58 -15.5 94c0 42.667 7.16699 82.834 21.5 120.501s35.833 69.834 64.5 96.501c24.667 22.667 53.667 40.334 87 53.001s72.333 19 117 19c48 0 88.167 -7.66699 120.5 -23s58.5 -37 78.5 -65
c14 -20.667 24.333 -43.667 31 -69s10 -54 10 -86c0 -10 -0.333008 -19.5 -1 -28.5l-2 -26.5h-369c-0.666992 -3.33301 -1 -6.5 -1 -9.5v-9.5c0 -15.333 2.16699 -28.833 6.5 -40.5s10.5 -21.5 18.5 -29.5c8 -8.66699 18.333 -15.5 31 -20.5s26 -7.16699 40 -6.5
c12.667 -0.666992 24.667 0.833008 36 4.5s21.666 9.16699 30.999 16.5c6 4.66699 11.333 10.334 16 17.001s8.66699 14 12 22zM213.002 297.996h196c0 11.333 -1.5 23 -4.5 35s-7.5 22.333 -13.5 31c-8 10 -17.833 17.667 -29.5 23s-25.834 8.33301 -42.501 9
c-15.333 0 -29.333 -2.66699 -42 -8s-23.667 -13.333 -33 -24c-8.66699 -9.33301 -15.667 -19.833 -21 -31.5s-8.66602 -23.167 -9.99902 -34.5z" />
    <glyph glyph-name="afii10070" unicode="&#x435;" horiz-adv-x="592" 
d="M386 147l168.002 -0.00390625c-10 -22 -22.167 -42.167 -36.5 -60.5s-29.833 -33.833 -46.5 -46.5c-26.667 -20.667 -55.667 -35.5 -87 -44.5s-65.333 -13.5 -102 -13.5c-38.667 0 -73.334 5.16699 -104.001 15.5s-57.334 27.5 -80.001 51.5
c-19.333 19.333 -34.166 42.333 -44.499 69s-15.5 58 -15.5 94c0 42.667 7.16699 82.834 21.5 120.501s35.833 69.834 64.5 96.501c24.667 22.667 53.667 40.334 87 53.001s72.333 19 117 19c48 0 88.167 -7.66699 120.5 -23s58.5 -37 78.5 -65
c14 -20.667 24.333 -43.667 31 -69s10 -54 10 -86c0 -10 -0.333008 -19.5 -1 -28.5l-2 -26.5h-369c-0.666992 -3.33301 -1 -6.5 -1 -9.5v-9.5c0 -15.333 2.16699 -28.833 6.5 -40.5s10.5 -21.5 18.5 -29.5c8 -8.66699 18.333 -15.5 31 -20.5s26 -7.16699 40 -6.5
c12.667 -0.666992 24.667 0.833008 36 4.5s21.666 9.16699 30.999 16.5c6 4.66699 11.333 10.334 16 17.001s8.66699 14 12 22zM213.002 297.996h196c0 11.333 -1.5 23 -4.5 35s-7.5 22.333 -13.5 31c-8 10 -17.833 17.667 -29.5 23s-25.834 8.33301 -42.501 9
c-15.333 0 -29.333 -2.66699 -42 -8s-23.667 -13.333 -33 -24c-8.66699 -9.33301 -15.667 -19.833 -21 -31.5s-8.66602 -23.167 -9.99902 -34.5z" />
    <glyph glyph-name="afii10072" unicode="&#xe6;" horiz-adv-x="860" 
d="M383 483h168l-25 -203l154 203h200l-200 -235l169 -248h-212l-119 210l-26 -210h-168l26 210l-166 -210h-217l229 258l-142 225h196l108 -203z" />
    <glyph glyph-name="afii10072" unicode="&#x436;" horiz-adv-x="860" 
d="M383 483h168l-25 -203l154 203h200l-200 -235l169 -248h-212l-119 210l-26 -210h-168l26 210l-166 -210h-217l229 258l-142 225h196l108 -203z" />
    <glyph glyph-name="afii10073" unicode="&#xe7;" horiz-adv-x="497" 
d="M105 345l-32.999 107.997c13.333 6.66699 27 12.5 41 17.5s29.333 9.83301 46 14.5c20.667 5.33301 41.334 9.33301 62.001 12s40.334 4 59.001 4c27.333 0 52.666 -3 75.999 -9s42.666 -14 57.999 -24c16 -12 28.167 -26.167 36.5 -42.5s12.5 -33.833 12.5 -52.5
c0 -27.333 -8.16699 -51.666 -24.5 -72.999s-36.833 -37.333 -61.5 -48v-2c26 -6.66699 46.833 -18.5 62.5 -35.5s23.5 -39.5 23.5 -67.5c0 -24.667 -5.83301 -47.5 -17.5 -68.5s-29.167 -39.167 -52.5 -54.5c-20 -13.333 -44.5 -23.666 -73.5 -30.999
s-60.833 -11 -95.5 -11c-24 0.666992 -48 2.83398 -72 6.50098s-46.667 8.83398 -68 15.501c-14 4 -27.833 9.16699 -41.5 15.5s-26.5 13.166 -38.5 20.499l59 114c10.667 -6.66699 21.834 -12.834 33.501 -18.501s23.167 -10.167 34.5 -13.5
c13.333 -4.66699 27.5 -8.16699 42.5 -10.5s29.5 -3.5 43.5 -3.5c10 0 18.333 0.833008 25 2.5s13 4.16699 19 7.5c7.33301 4 13.166 9.33301 17.499 16s6.5 14.334 6.5 23.001c0 6 -1.5 11.667 -4.5 17s-7.5 10 -13.5 14c-5.33301 2.66699 -11.833 4.5 -19.5 5.5
s-17.5 1.83301 -29.5 2.5h-76l13 105h86c10 0 18.667 0.833008 26 2.5s13.666 4.16699 18.999 7.5s9.83301 8.16602 13.5 14.499s5.5 12.833 5.5 19.5c0 6 -1.66699 11.667 -5 17s-7.33301 10 -12 14c-5.33301 2.66699 -11.833 5 -19.5 7s-17.167 3 -28.5 3
c-12 0 -24.167 -1.16699 -36.5 -3.5s-24.166 -5.16602 -35.499 -8.49902c-10.667 -3.33301 -21.334 -7.5 -32.001 -12.5s-21 -10.5 -31 -16.5z" />
    <glyph glyph-name="afii10073" unicode="&#x437;" horiz-adv-x="497" 
d="M105 345l-32.999 107.997c13.333 6.66699 27 12.5 41 17.5s29.333 9.83301 46 14.5c20.667 5.33301 41.334 9.33301 62.001 12s40.334 4 59.001 4c27.333 0 52.666 -3 75.999 -9s42.666 -14 57.999 -24c16 -12 28.167 -26.167 36.5 -42.5s12.5 -33.833 12.5 -52.5
c0 -27.333 -8.16699 -51.666 -24.5 -72.999s-36.833 -37.333 -61.5 -48v-2c26 -6.66699 46.833 -18.5 62.5 -35.5s23.5 -39.5 23.5 -67.5c0 -24.667 -5.83301 -47.5 -17.5 -68.5s-29.167 -39.167 -52.5 -54.5c-20 -13.333 -44.5 -23.666 -73.5 -30.999
s-60.833 -11 -95.5 -11c-24 0.666992 -48 2.83398 -72 6.50098s-46.667 8.83398 -68 15.501c-14 4 -27.833 9.16699 -41.5 15.5s-26.5 13.166 -38.5 20.499l59 114c10.667 -6.66699 21.834 -12.834 33.501 -18.501s23.167 -10.167 34.5 -13.5
c13.333 -4.66699 27.5 -8.16699 42.5 -10.5s29.5 -3.5 43.5 -3.5c10 0 18.333 0.833008 25 2.5s13 4.16699 19 7.5c7.33301 4 13.166 9.33301 17.499 16s6.5 14.334 6.5 23.001c0 6 -1.5 11.667 -4.5 17s-7.5 10 -13.5 14c-5.33301 2.66699 -11.833 4.5 -19.5 5.5
s-17.5 1.83301 -29.5 2.5h-76l13 105h86c10 0 18.667 0.833008 26 2.5s13.666 4.16699 18.999 7.5s9.83301 8.16602 13.5 14.499s5.5 12.833 5.5 19.5c0 6 -1.66699 11.667 -5 17s-7.33301 10 -12 14c-5.33301 2.66699 -11.833 5 -19.5 7s-17.167 3 -28.5 3
c-12 0 -24.167 -1.16699 -36.5 -3.5s-24.166 -5.16602 -35.499 -8.49902c-10.667 -3.33301 -21.334 -7.5 -32.001 -12.5s-21 -10.5 -31 -16.5z" />
    <glyph glyph-name="afii10074" unicode="&#xe8;" horiz-adv-x="630" 
d="M93 483h175l-31 -259l206 259h168l-59 -483h-175l33 266l-206 -266h-170z" />
    <glyph glyph-name="afii10074" unicode="&#x438;" horiz-adv-x="630" 
d="M93 483h175l-31 -259l206 259h168l-59 -483h-175l33 266l-206 -266h-170z" />
    <glyph glyph-name="afii10075" unicode="&#xe9;" horiz-adv-x="624" 
d="M90 483h175l-31 -259l206 259h168l-59 -483h-175l33 266l-206 -266h-170zM379 546c-50.667 0 -92.666 10.167 -125.999 30.5s-55 47.5 -65 81.5l119 42c2 -20 9.5 -34.833 22.5 -44.5s30.833 -14.5 53.5 -14.5c21.333 0 39.666 4.66699 54.999 14s27 24.333 35 45
l109 -42c-18 -35.333 -44.333 -62.833 -79 -82.5s-76 -29.5 -124 -29.5z" />
    <glyph glyph-name="afii10075" unicode="&#x439;" horiz-adv-x="624" 
d="M90 483h175l-31 -259l206 259h168l-59 -483h-175l33 266l-206 -266h-170zM379 546c-50.667 0 -92.666 10.167 -125.999 30.5s-55 47.5 -65 81.5l119 42c2 -20 9.5 -34.833 22.5 -44.5s30.833 -14.5 53.5 -14.5c21.333 0 39.666 4.66699 54.999 14s27 24.333 35 45
l109 -42c-18 -35.333 -44.333 -62.833 -79 -82.5s-76 -29.5 -124 -29.5z" />
    <glyph glyph-name="glyph177" unicode="&#xea;" horiz-adv-x="598" 
d="M34 0l59 483h175l-24 -197l172 197h212l-227 -231l186 -252h-216l-136 214l-26 -214h-175z" />
    <glyph glyph-name="glyph177" unicode="&#x43a;" horiz-adv-x="598" 
d="M34 0l59 483h175l-24 -197l172 197h212l-227 -231l186 -252h-216l-136 214l-26 -214h-175z" />
    <glyph glyph-name="afii10077" unicode="&#xeb;" horiz-adv-x="623" 
d="M604 483l-59 -483.003h-175l45 363h-112l-25 -202c-4 -32 -9.83301 -57.167 -17.5 -75.5s-18.167 -34.166 -31.5 -47.499c-16 -16 -35.5 -28.167 -58.5 -36.5s-51.833 -12.5 -86.5 -12.5c-16.667 0.666992 -32.5 1.83398 -47.5 3.50098s-29.833 4.16699 -44.5 7.5l15 126
c4.66699 -2 9.5 -3.33301 14.5 -4s10.167 -0.666992 15.5 0c12.667 0 23.5 1.83301 32.5 5.5s17.167 9.83398 24.5 18.501c4.66699 5.33301 8.66699 11.833 12 19.5s6.33301 21.5 9 41.5l34 276h455z" />
    <glyph glyph-name="afii10077" unicode="&#x43b;" horiz-adv-x="623" 
d="M604 483l-59 -483.003h-175l45 363h-112l-25 -202c-4 -32 -9.83301 -57.167 -17.5 -75.5s-18.167 -34.166 -31.5 -47.499c-16 -16 -35.5 -28.167 -58.5 -36.5s-51.833 -12.5 -86.5 -12.5c-16.667 0.666992 -32.5 1.83398 -47.5 3.50098s-29.833 4.16699 -44.5 7.5l15 126
c4.66699 -2 9.5 -3.33301 14.5 -4s10.167 -0.666992 15.5 0c12.667 0 23.5 1.83301 32.5 5.5s17.167 9.83398 24.5 18.501c4.66699 5.33301 8.66699 11.833 12 19.5s6.33301 21.5 9 41.5l34 276h455z" />
    <glyph glyph-name="afii10078" unicode="&#xec;" horiz-adv-x="762" 
d="M-8 0l134 483h188l72 -287l134 287h188l18 -483h-162l-12 266l-130 -266h-122l-68 266l-74 -266h-166z" />
    <glyph glyph-name="afii10078" unicode="&#x43c;" horiz-adv-x="762" 
d="M-8 0l134 483h188l72 -287l134 287h188l18 -483h-162l-12 266l-130 -266h-122l-68 266l-74 -266h-166z" />
    <glyph glyph-name="afii10079" unicode="&#xed;" horiz-adv-x="623" 
d="M34 0l59 483h175l-21 -170h161l21 170h175l-59 -483h-175l24 193h-161l-24 -193h-175z" />
    <glyph glyph-name="afii10079" unicode="&#x43d;" horiz-adv-x="623" 
d="M34 0l59 483h175l-21 -170h161l21 170h175l-59 -483h-175l24 193h-161l-24 -193h-175z" />
    <glyph glyph-name="afii10080" unicode="&#xee;" horiz-adv-x="638" 
d="M352 501c38 0 72.166 -4.33105 102.499 -12.998s57.5 -22.334 81.5 -41.001c26 -21.333 45.833 -46.5 59.5 -75.5s20.5 -62.5 20.5 -100.5c0 -48 -9.66699 -92 -29 -132s-47 -73 -83 -99c-27.333 -20 -57.666 -34.5 -90.999 -43.5s-70.333 -13.833 -111 -14.5
c-38.667 0 -73.167 4.16699 -103.5 12.5s-57.166 22.166 -80.499 41.499c-26.667 20.667 -46.667 45.5 -60 74.5s-20 62.833 -20 101.5c0 47.333 9.5 91 28.5 131s46.833 73.333 83.5 100c26.667 19.333 56.667 33.833 90 43.5s70.666 14.5 111.999 14.5zM313.999 108.002
c17.333 0 32.665 2.83203 45.998 8.49902s25 13.834 35 24.501c12 13.333 21.667 31.833 29 55.5s11 47.5 11 71.5c0 17.333 -2.33301 32.5 -7 45.5s-11 24.167 -19 33.5c-8.66699 8.66699 -19.167 15.5 -31.5 20.5s-25.166 7.5 -38.499 7.5c-16 0 -31 -2.83301 -45 -8.5
s-26 -13.834 -36 -24.501c-13.333 -14.667 -23.166 -33.167 -29.499 -55.5s-9.5 -46.166 -9.5 -71.499c0 -19.333 2 -35.333 6 -48s10.333 -23 19 -31c8 -9.33301 18.167 -16.333 30.5 -21s25.5 -7 39.5 -7z" />
    <glyph glyph-name="afii10080" unicode="&#x43e;" horiz-adv-x="638" 
d="M352 501c38 0 72.166 -4.33105 102.499 -12.998s57.5 -22.334 81.5 -41.001c26 -21.333 45.833 -46.5 59.5 -75.5s20.5 -62.5 20.5 -100.5c0 -48 -9.66699 -92 -29 -132s-47 -73 -83 -99c-27.333 -20 -57.666 -34.5 -90.999 -43.5s-70.333 -13.833 -111 -14.5
c-38.667 0 -73.167 4.16699 -103.5 12.5s-57.166 22.166 -80.499 41.499c-26.667 20.667 -46.667 45.5 -60 74.5s-20 62.833 -20 101.5c0 47.333 9.5 91 28.5 131s46.833 73.333 83.5 100c26.667 19.333 56.667 33.833 90 43.5s70.666 14.5 111.999 14.5zM313.999 108.002
c17.333 0 32.665 2.83203 45.998 8.49902s25 13.834 35 24.501c12 13.333 21.667 31.833 29 55.5s11 47.5 11 71.5c0 17.333 -2.33301 32.5 -7 45.5s-11 24.167 -19 33.5c-8.66699 8.66699 -19.167 15.5 -31.5 20.5s-25.166 7.5 -38.499 7.5c-16 0 -31 -2.83301 -45 -8.5
s-26 -13.834 -36 -24.501c-13.333 -14.667 -23.166 -33.167 -29.499 -55.5s-9.5 -46.166 -9.5 -71.499c0 -19.333 2 -35.333 6 -48s10.333 -23 19 -31c8 -9.33301 18.167 -16.333 30.5 -21s25.5 -7 39.5 -7z" />
    <glyph glyph-name="afii10081" unicode="&#xef;" horiz-adv-x="616" 
d="M93 483h504l-59 -483h-175l45 363h-154l-45 -363h-175z" />
    <glyph glyph-name="afii10081" unicode="&#x43f;" horiz-adv-x="616" 
d="M93 483h504l-59 -483h-175l45 363h-154l-45 -363h-175z" />
    <glyph glyph-name="afii10082" unicode="&#xf0;" horiz-adv-x="638" 
d="M93 483l168.004 -0.000976562l-6 -50c17.333 20 39.666 36.333 66.999 49s58.666 19 93.999 19c29.333 0 56.666 -5.16699 81.999 -15.5s47.333 -26.166 66 -47.499c18 -21.333 31.167 -46 39.5 -74s12.5 -59 12.5 -93c0 -46.667 -6.83301 -89 -20.5 -127
s-34.834 -70.333 -63.501 -97c-22 -20.667 -48.333 -36.667 -79 -48s-62.667 -17 -96 -17s-61.833 6.66699 -85.5 20s-42.5 32.333 -56.5 57l-32 -269h-175zM319.004 125.999c16.667 0 32.001 2.66602 46.001 7.99902s26.667 14.333 38 27
c10.667 11.333 18.5 25.166 23.5 41.499s7.83301 33.833 8.5 52.5c0 17.333 -2.33301 32 -7 44s-11 22.667 -19 32c-8.66699 8.66699 -18.334 15.167 -29.001 19.5s-23.334 6.5 -38.001 6.5c-17.333 -0.666992 -33.166 -3.66699 -47.499 -9s-26.833 -14 -37.5 -26
s-18.667 -26.167 -24 -42.5s-8 -33.5 -8 -51.5c0 -16 2 -30.333 6 -43s10.667 -23.667 20 -33c8 -9.33301 17.5 -16.166 28.5 -20.499s24.167 -6.16602 39.5 -5.49902z" />
    <glyph glyph-name="afii10082" unicode="&#x440;" horiz-adv-x="638" 
d="M93 483l168.004 -0.000976562l-6 -50c17.333 20 39.666 36.333 66.999 49s58.666 19 93.999 19c29.333 0 56.666 -5.16699 81.999 -15.5s47.333 -26.166 66 -47.499c18 -21.333 31.167 -46 39.5 -74s12.5 -59 12.5 -93c0 -46.667 -6.83301 -89 -20.5 -127
s-34.834 -70.333 -63.501 -97c-22 -20.667 -48.333 -36.667 -79 -48s-62.667 -17 -96 -17s-61.833 6.66699 -85.5 20s-42.5 32.333 -56.5 57l-32 -269h-175zM319.004 125.999c16.667 0 32.001 2.66602 46.001 7.99902s26.667 14.333 38 27
c10.667 11.333 18.5 25.166 23.5 41.499s7.83301 33.833 8.5 52.5c0 17.333 -2.33301 32 -7 44s-11 22.667 -19 32c-8.66699 8.66699 -18.334 15.167 -29.001 19.5s-23.334 6.5 -38.001 6.5c-17.333 -0.666992 -33.166 -3.66699 -47.499 -9s-26.833 -14 -37.5 -26
s-18.667 -26.167 -24 -42.5s-8 -33.5 -8 -51.5c0 -16 2 -30.333 6 -43s10.667 -23.667 20 -33c8 -9.33301 17.5 -16.166 28.5 -20.499s24.167 -6.16602 39.5 -5.49902z" />
    <glyph glyph-name="afii10083" unicode="&#xf1;" horiz-adv-x="459" 
d="M428 172l-18.998 -152.998c-20 -11.333 -43.5 -20.333 -70.5 -27s-54.167 -10 -81.5 -10c-36.667 0 -69 6 -97 18s-51.333 28.667 -70 50c-17.333 18.667 -30.333 40.667 -39 66s-13 55.333 -13 90c0 50 8.16699 94.667 24.5 134s38.833 71.666 67.5 96.999
c24 21.333 52.167 37.333 84.5 48s66.166 16 101.499 16c26.667 0 53 -3.5 79 -10.5s49 -16.167 69 -27.5l-19 -152c-14.667 15.333 -31.667 27.5 -51 36.5s-38.666 13.5 -57.999 13.5c-16.667 0 -31.834 -3 -45.501 -9s-25.5 -14 -35.5 -24
c-12 -12.667 -21 -27.834 -27 -45.501s-9 -37.5 -9 -59.5c0 -18.667 2.33301 -34.334 7 -47.001s11.334 -22.667 20.001 -30c7.33301 -7.33301 16.666 -12.833 27.999 -16.5s24.666 -5.5 39.999 -5.5c17.333 0 35.5 3.83301 54.5 11.5s38.833 19.834 59.5 36.501z" />
    <glyph glyph-name="afii10083" unicode="&#x441;" horiz-adv-x="459" 
d="M428 172l-18.998 -152.998c-20 -11.333 -43.5 -20.333 -70.5 -27s-54.167 -10 -81.5 -10c-36.667 0 -69 6 -97 18s-51.333 28.667 -70 50c-17.333 18.667 -30.333 40.667 -39 66s-13 55.333 -13 90c0 50 8.16699 94.667 24.5 134s38.833 71.666 67.5 96.999
c24 21.333 52.167 37.333 84.5 48s66.166 16 101.499 16c26.667 0 53 -3.5 79 -10.5s49 -16.167 69 -27.5l-19 -152c-14.667 15.333 -31.667 27.5 -51 36.5s-38.666 13.5 -57.999 13.5c-16.667 0 -31.834 -3 -45.501 -9s-25.5 -14 -35.5 -24
c-12 -12.667 -21 -27.834 -27 -45.501s-9 -37.5 -9 -59.5c0 -18.667 2.33301 -34.334 7 -47.001s11.334 -22.667 20.001 -30c7.33301 -7.33301 16.666 -12.833 27.999 -16.5s24.666 -5.5 39.999 -5.5c17.333 0 35.5 3.83301 54.5 11.5s38.833 19.834 59.5 36.501z" />
    <glyph glyph-name="afii10084" unicode="&#xf2;" horiz-adv-x="441" 
d="M111 0l44 357h-126l15 126h427l-15 -126h-126l-44 -357h-175z" />
    <glyph glyph-name="afii10084" unicode="&#x442;" horiz-adv-x="441" 
d="M111 0l44 357h-126l15 126h427l-15 -126h-126l-44 -357h-175z" />
    <glyph glyph-name="glyph190" unicode="&#xf3;" horiz-adv-x="608" 
d="M26 483h200l103 -259l145 259h182l-428 -693h-196l182 280z" />
    <glyph glyph-name="glyph190" unicode="&#x443;" horiz-adv-x="608" 
d="M26 483h200l103 -259l145 259h182l-428 -693h-196l182 280z" />
    <glyph glyph-name="afii10086" unicode="&#xf4;" horiz-adv-x="788" 
d="M259 -210l24.998 203c-42 0 -78.833 5 -110.5 15s-58.5 27 -80.5 51c-18 18 -31.667 39.333 -41 64s-14 54 -14 88c0 44.667 7.5 84.834 22.5 120.501s38.5 66.5 70.5 92.5c26 21.333 56.667 37.666 92 48.999s76 17 122 17l26 210h175l-26 -210
c41.333 0 77.833 -5.16699 109.5 -15.5s58.834 -27.166 81.501 -50.499c17.333 -18.667 30.833 -40.334 40.5 -65.001s14.5 -53.667 14.5 -87c-0.666992 -45.333 -8.5 -85.833 -23.5 -121.5s-38.167 -66.167 -69.5 -91.5c-26.667 -22 -57.667 -38.5 -93 -49.5
s-75.666 -16.5 -120.999 -16.5l-25 -203h-175zM308.998 104l33 267.999c-18.667 0 -37 -4 -55 -12s-33.333 -19.667 -46 -35c-11.333 -13.333 -20 -29 -26 -47s-9 -38.333 -9 -61c0 -20.667 2.66699 -38.167 8 -52.5s13.333 -26.166 24 -35.499
c8 -8 18.167 -14.333 30.5 -19s25.833 -6.66699 40.5 -6zM494.998 371.999l-33 -268c18 -0.666992 36 3 54 11s33.667 20 47 36c10.667 12.667 19 28 25 46s9.33301 38.667 10 62c0 20 -2.83301 37.167 -8.5 51.5s-13.5 26.5 -23.5 36.5
c-8.66699 7.33301 -19.167 13.333 -31.5 18s-25.5 7 -39.5 7z" />
    <glyph glyph-name="afii10086" unicode="&#x444;" horiz-adv-x="788" 
d="M259 -210l24.998 203c-42 0 -78.833 5 -110.5 15s-58.5 27 -80.5 51c-18 18 -31.667 39.333 -41 64s-14 54 -14 88c0 44.667 7.5 84.834 22.5 120.501s38.5 66.5 70.5 92.5c26 21.333 56.667 37.666 92 48.999s76 17 122 17l26 210h175l-26 -210
c41.333 0 77.833 -5.16699 109.5 -15.5s58.834 -27.166 81.501 -50.499c17.333 -18.667 30.833 -40.334 40.5 -65.001s14.5 -53.667 14.5 -87c-0.666992 -45.333 -8.5 -85.833 -23.5 -121.5s-38.167 -66.167 -69.5 -91.5c-26.667 -22 -57.667 -38.5 -93 -49.5
s-75.666 -16.5 -120.999 -16.5l-25 -203h-175zM308.998 104l33 267.999c-18.667 0 -37 -4 -55 -12s-33.333 -19.667 -46 -35c-11.333 -13.333 -20 -29 -26 -47s-9 -38.333 -9 -61c0 -20.667 2.66699 -38.167 8 -52.5s13.333 -26.166 24 -35.499
c8 -8 18.167 -14.333 30.5 -19s25.833 -6.66699 40.5 -6zM494.998 371.999l-33 -268c18 -0.666992 36 3 54 11s33.667 20 47 36c10.667 12.667 19 28 25 46s9.33301 38.667 10 62c0 20 -2.83301 37.167 -8.5 51.5s-13.5 26.5 -23.5 36.5
c-8.66699 7.33301 -19.167 13.333 -31.5 18s-25.5 7 -39.5 7z" />
    <glyph glyph-name="afii10087" unicode="&#xf5;" horiz-adv-x="602" 
d="M-29 0l244 258l-150 225h206l69 -129l97 129h202l-210 -227l158 -256h-200l-80 158l-122 -158h-214z" />
    <glyph glyph-name="afii10087" unicode="&#x445;" horiz-adv-x="602" 
d="M-29 0l244 258l-150 225h206l69 -129l97 129h202l-210 -227l158 -256h-200l-80 158l-122 -158h-214z" />
    <glyph glyph-name="afii10088" unicode="&#xf6;" horiz-adv-x="637" 
d="M34 0l59 483h175l-44 -363h147l44 363h175l-44 -363h70l-32 -260h-154l17 140h-413z" />
    <glyph glyph-name="afii10088" unicode="&#x446;" horiz-adv-x="637" 
d="M34 0l59 483h175l-44 -363h147l44 363h175l-44 -363h70l-32 -260h-154l17 140h-413z" />
    <glyph glyph-name="afii10089" unicode="&#xf7;" horiz-adv-x="567" 
d="M314 0l19 156.999c-14 -2.66699 -30.333 -4.5 -49 -5.5s-37.667 -1.5 -57 -1.5c-21.333 0 -40.5 1.33301 -57.5 4s-31.833 6.66699 -44.5 12c-24 9.33301 -41.667 22 -53 38s-17 38.333 -17 67v10.5c0 3 0.333008 6.16699 1 9.5l23 192h168l-18 -153
c-0.666992 -3.33301 -1 -6.16602 -1 -8.49902v-6.5c0 -10 1.66699 -18 5 -24s8.33301 -10.667 15 -14c4 -2.66699 9 -4.5 15 -5.5s14.333 -1.5 25 -1.5c9.33301 0 19 0.5 29 1.5s20.333 2.83301 31 5.5l25 206h175l-59 -483h-175z" />
    <glyph glyph-name="afii10089" unicode="&#x447;" horiz-adv-x="567" 
d="M314 0l19 156.999c-14 -2.66699 -30.333 -4.5 -49 -5.5s-37.667 -1.5 -57 -1.5c-21.333 0 -40.5 1.33301 -57.5 4s-31.833 6.66699 -44.5 12c-24 9.33301 -41.667 22 -53 38s-17 38.333 -17 67v10.5c0 3 0.333008 6.16699 1 9.5l23 192h168l-18 -153
c-0.666992 -3.33301 -1 -6.16602 -1 -8.49902v-6.5c0 -10 1.66699 -18 5 -24s8.33301 -10.667 15 -14c4 -2.66699 9 -4.5 15 -5.5s14.333 -1.5 25 -1.5c9.33301 0 19 0.5 29 1.5s20.333 2.83301 31 5.5l25 206h175l-59 -483h-175z" />
    <glyph glyph-name="afii10090" unicode="&#xf8;" horiz-adv-x="913" 
d="M34 0l59 483h175l-44 -363h138l44 363h175l-44 -363h138l44 363h175l-59 -483h-801z" />
    <glyph glyph-name="afii10090" unicode="&#x448;" horiz-adv-x="913" 
d="M34 0l59 483h175l-44 -363h138l44 363h175l-44 -363h138l44 363h175l-59 -483h-801z" />
    <glyph glyph-name="afii10091" unicode="&#xf9;" horiz-adv-x="941" 
d="M34 0l59 483h175l-44 -363h138l44 363h175l-44 -363h138l44 363h175l-44 -363h70l-32 -260h-154l17 140h-717z" />
    <glyph glyph-name="afii10091" unicode="&#x449;" horiz-adv-x="941" 
d="M34 0l59 483h175l-44 -363h138l44 363h175l-44 -363h138l44 363h175l-44 -363h70l-32 -260h-154l17 140h-717z" />
    <glyph glyph-name="afii10092" unicode="&#xfa;" horiz-adv-x="606" 
d="M319 322l106.001 0.00195312c32 -0.666992 58.667 -6.16699 80 -16.5s38.333 -25.166 51 -44.499c7.33301 -12.667 12.833 -25.834 16.5 -39.501s5.5 -27.834 5.5 -42.501c0 -24 -3.83301 -46.333 -11.5 -67s-19.5 -39.334 -35.5 -56.001
c-17.333 -18 -38.333 -31.833 -63 -41.5s-52.334 -14.5 -83.001 -14.5h-281l44 357h-119l15 126h294zM293.001 112.002l58 -0.000976562c8 0 16.167 1.33301 24.5 4s15.166 6.33398 20.499 11.001c4.66699 4 8.33398 9.33301 11.001 16s4 13.667 4 21
c0 5.33301 -1 10.833 -3 16.5s-4.33301 10.5 -7 14.5c-4 4.66699 -9.16699 8.16699 -15.5 10.5s-13.833 3.83301 -22.5 4.5h-58z" />
    <glyph glyph-name="afii10092" unicode="&#x44a;" horiz-adv-x="606" 
d="M319 322l106.001 0.00195312c32 -0.666992 58.667 -6.16699 80 -16.5s38.333 -25.166 51 -44.499c7.33301 -12.667 12.833 -25.834 16.5 -39.501s5.5 -27.834 5.5 -42.501c0 -24 -3.83301 -46.333 -11.5 -67s-19.5 -39.334 -35.5 -56.001
c-17.333 -18 -38.333 -31.833 -63 -41.5s-52.334 -14.5 -83.001 -14.5h-281l44 357h-119l15 126h294zM293.001 112.002l58 -0.000976562c8 0 16.167 1.33301 24.5 4s15.166 6.33398 20.499 11.001c4.66699 4 8.33398 9.33301 11.001 16s4 13.667 4 21
c0 5.33301 -1 10.833 -3 16.5s-4.33301 10.5 -7 14.5c-4 4.66699 -9.16699 8.16699 -15.5 10.5s-13.833 3.83301 -22.5 4.5h-58z" />
    <glyph glyph-name="afii10093" unicode="&#xfb;" horiz-adv-x="787" 
d="M249 322l106.001 0.00195312c32 -0.666992 58.667 -6.16699 80 -16.5s38.333 -25.166 51 -44.499c7.33301 -12.667 12.833 -25.834 16.5 -39.501s5.5 -27.834 5.5 -42.501c0 -24 -3.83301 -46.333 -11.5 -67s-19.5 -39.334 -35.5 -56.001
c-17.333 -18 -38.333 -31.833 -63 -41.5s-52.334 -14.5 -83.001 -14.5h-281l59 483h175zM223.001 112.002l58 -0.000976562c8 0 16.167 1.33301 24.5 4s15.166 6.33398 20.499 11.001c4.66699 4 8.33398 9.33301 11.001 16s4 13.667 4 21c0 5.33301 -1 10.833 -3 16.5
s-4.33301 10.5 -7 14.5c-4 4.66699 -9.16699 8.16699 -15.5 10.5s-13.833 3.83301 -22.5 4.5h-58zM534.001 0.000976562l59 483h175l-59 -483h-175z" />
    <glyph glyph-name="afii10093" unicode="&#x44b;" horiz-adv-x="787" 
d="M249 322l106.001 0.00195312c32 -0.666992 58.667 -6.16699 80 -16.5s38.333 -25.166 51 -44.499c7.33301 -12.667 12.833 -25.834 16.5 -39.501s5.5 -27.834 5.5 -42.501c0 -24 -3.83301 -46.333 -11.5 -67s-19.5 -39.334 -35.5 -56.001
c-17.333 -18 -38.333 -31.833 -63 -41.5s-52.334 -14.5 -83.001 -14.5h-281l59 483h175zM223.001 112.002l58 -0.000976562c8 0 16.167 1.33301 24.5 4s15.166 6.33398 20.499 11.001c4.66699 4 8.33398 9.33301 11.001 16s4 13.667 4 21c0 5.33301 -1 10.833 -3 16.5
s-4.33301 10.5 -7 14.5c-4 4.66699 -9.16699 8.16699 -15.5 10.5s-13.833 3.83301 -22.5 4.5h-58zM534.001 0.000976562l59 483h175l-59 -483h-175z" />
    <glyph glyph-name="afii10094" unicode="&#xfc;" horiz-adv-x="536" 
d="M249 322l106.001 0.00195312c32 -0.666992 58.667 -6.16699 80 -16.5s38.333 -25.166 51 -44.499c7.33301 -12.667 12.833 -25.834 16.5 -39.501s5.5 -27.834 5.5 -42.501c0 -24 -3.83301 -46.333 -11.5 -67s-19.5 -39.334 -35.5 -56.001
c-17.333 -18 -38.333 -31.833 -63 -41.5s-52.334 -14.5 -83.001 -14.5h-281l59 483h175zM223.001 112.002l58 -0.000976562c8 0 16.167 1.33301 24.5 4s15.166 6.33398 20.499 11.001c4.66699 4 8.33398 9.33301 11.001 16s4 13.667 4 21c0 5.33301 -1 10.833 -3 16.5
s-4.33301 10.5 -7 14.5c-4 4.66699 -9.16699 8.16699 -15.5 10.5s-13.833 3.83301 -22.5 4.5h-58z" />
    <glyph glyph-name="afii10094" unicode="&#x44c;" horiz-adv-x="536" 
d="M249 322l106.001 0.00195312c32 -0.666992 58.667 -6.16699 80 -16.5s38.333 -25.166 51 -44.499c7.33301 -12.667 12.833 -25.834 16.5 -39.501s5.5 -27.834 5.5 -42.501c0 -24 -3.83301 -46.333 -11.5 -67s-19.5 -39.334 -35.5 -56.001
c-17.333 -18 -38.333 -31.833 -63 -41.5s-52.334 -14.5 -83.001 -14.5h-281l59 483h175zM223.001 112.002l58 -0.000976562c8 0 16.167 1.33301 24.5 4s15.166 6.33398 20.499 11.001c4.66699 4 8.33398 9.33301 11.001 16s4 13.667 4 21c0 5.33301 -1 10.833 -3 16.5
s-4.33301 10.5 -7 14.5c-4 4.66699 -9.16699 8.16699 -15.5 10.5s-13.833 3.83301 -22.5 4.5h-58z" />
    <glyph glyph-name="afii10095" unicode="&#xfd;" horiz-adv-x="492" 
d="M21 9l17.001 139.996c19.333 -16.667 40 -28.667 62 -36s45.333 -11 70 -11c17.333 0 32.833 1.66699 46.5 5s26.834 8.33301 39.501 15c14 7.33301 25.5 16.833 34.5 28.5s15.5 25.834 19.5 42.501h-203l13 105h199c-1.33301 13.333 -5.5 26 -12.5 38s-15.5 22 -25.5 30
c-10.667 7.33301 -22.334 13 -35.001 17s-27 6 -43 6c-24 0 -48.167 -4.66699 -72.5 -14s-46.5 -22 -66.5 -38l17 133c24 10 49.333 17.667 76 23s51.667 8 75 8c39.333 -0.666992 74.5 -7.16699 105.5 -19.5s57.167 -30.166 78.5 -53.499
c18.667 -22 32.334 -46.167 41.001 -72.5s13 -55.166 13 -86.499c0 -46 -8.16699 -87.167 -24.5 -123.5s-40.833 -68.166 -73.5 -95.499c-28.667 -24 -59.834 -41.333 -93.501 -52s-70.5 -16 -110.5 -16c-30 0 -57.333 2.5 -82 7.5s-46.334 11.5 -65.001 19.5z" />
    <glyph glyph-name="afii10095" unicode="&#x44d;" horiz-adv-x="492" 
d="M21 9l17.001 139.996c19.333 -16.667 40 -28.667 62 -36s45.333 -11 70 -11c17.333 0 32.833 1.66699 46.5 5s26.834 8.33301 39.501 15c14 7.33301 25.5 16.833 34.5 28.5s15.5 25.834 19.5 42.501h-203l13 105h199c-1.33301 13.333 -5.5 26 -12.5 38s-15.5 22 -25.5 30
c-10.667 7.33301 -22.334 13 -35.001 17s-27 6 -43 6c-24 0 -48.167 -4.66699 -72.5 -14s-46.5 -22 -66.5 -38l17 133c24 10 49.333 17.667 76 23s51.667 8 75 8c39.333 -0.666992 74.5 -7.16699 105.5 -19.5s57.167 -30.166 78.5 -53.499
c18.667 -22 32.334 -46.167 41.001 -72.5s13 -55.166 13 -86.499c0 -46 -8.16699 -87.167 -24.5 -123.5s-40.833 -68.166 -73.5 -95.499c-28.667 -24 -59.834 -41.333 -93.501 -52s-70.5 -16 -110.5 -16c-30 0 -57.333 2.5 -82 7.5s-46.334 11.5 -65.001 19.5z" />
    <glyph glyph-name="afii10096" unicode="&#xfe;" horiz-adv-x="884" 
d="M246 305l57.9971 -0.000976562c8 28 20.167 53.833 36.5 77.5s35.833 43.834 58.5 60.501c26 19.333 55.5 33.833 88.5 43.5s69.833 14.5 110.5 14.5c38 0 72.167 -4.33301 102.5 -13s57.5 -22.334 81.5 -41.001c26 -21.333 45.667 -46.5 59 -75.5
s20.333 -62.5 21 -100.5c0 -48 -9.66699 -92 -29 -132s-47 -73 -83 -99c-27.333 -20 -57.666 -34.667 -90.999 -44s-70.333 -14 -111 -14c-36.667 0 -70.167 4.33301 -100.5 13s-56.5 22.334 -78.5 41.001c-23.333 18.667 -41.666 41.5 -54.999 68.5
s-20.666 56.5 -21.999 88.5h-59l-24 -193h-175l59 483h175zM561.997 107.999c15.333 0 29.6689 2.66895 43.002 8.00195s25.333 13.666 36 24.999c12 13.333 21.667 31.666 29 54.999s11 47.333 11 72c0 16 -2.16699 30.667 -6.5 44s-10.833 25 -19.5 35
c-8.66699 8.66699 -19 15.5 -31 20.5s-24.333 7.5 -37 7.5c-17.333 0 -32.833 -3 -46.5 -9s-24.834 -14 -33.501 -24c-12.667 -14 -22.167 -32.5 -28.5 -55.5s-9.5 -46.833 -9.5 -71.5c0 -19.333 2 -35.333 6 -48s10 -23 18 -31c8 -9.33301 18.167 -16.333 30.5 -21
s25.166 -7 38.499 -7z" />
    <glyph glyph-name="afii10096" unicode="&#x44e;" horiz-adv-x="884" 
d="M246 305l57.9971 -0.000976562c8 28 20.167 53.833 36.5 77.5s35.833 43.834 58.5 60.501c26 19.333 55.5 33.833 88.5 43.5s69.833 14.5 110.5 14.5c38 0 72.167 -4.33301 102.5 -13s57.5 -22.334 81.5 -41.001c26 -21.333 45.667 -46.5 59 -75.5
s20.333 -62.5 21 -100.5c0 -48 -9.66699 -92 -29 -132s-47 -73 -83 -99c-27.333 -20 -57.666 -34.667 -90.999 -44s-70.333 -14 -111 -14c-36.667 0 -70.167 4.33301 -100.5 13s-56.5 22.334 -78.5 41.001c-23.333 18.667 -41.666 41.5 -54.999 68.5
s-20.666 56.5 -21.999 88.5h-59l-24 -193h-175l59 483h175zM561.997 107.999c15.333 0 29.6689 2.66895 43.002 8.00195s25.333 13.666 36 24.999c12 13.333 21.667 31.666 29 54.999s11 47.333 11 72c0 16 -2.16699 30.667 -6.5 44s-10.833 25 -19.5 35
c-8.66699 8.66699 -19 15.5 -31 20.5s-24.333 7.5 -37 7.5c-17.333 0 -32.833 -3 -46.5 -9s-24.834 -14 -33.501 -24c-12.667 -14 -22.167 -32.5 -28.5 -55.5s-9.5 -46.833 -9.5 -71.5c0 -19.333 2 -35.333 6 -48s10 -23 18 -31c8 -9.33301 18.167 -16.333 30.5 -21
s25.166 -7 38.499 -7z" />
    <glyph glyph-name="afii10097" unicode="&#xff;" horiz-adv-x="553" 
d="M6 0l155 167.998c-17.333 2.66699 -33.333 8 -48 16s-26.667 18.333 -36 31c-9.33301 11.333 -16.166 24.333 -20.499 39s-6.5 30.334 -6.5 47.001c0 26.667 4 50.834 12 72.501s21 41.167 39 58.5c16.667 16 37.167 28.5 61.5 37.5s54.166 13.5 89.499 13.5h282
l-59 -483h-175l19 154h-14l-117 -154h-182zM332 258.998l14.002 111.999h-58c-12.667 0 -22.834 -1 -30.501 -3s-14.167 -5.33301 -19.5 -10c-6.66699 -5.33301 -11.834 -12.166 -15.501 -20.499s-5.5 -17.833 -5.5 -28.5c-0.666992 -7.33301 0.333008 -14 3 -20
s7 -11.333 13 -16c5.33301 -5.33301 11.333 -9 18 -11s14.667 -3 24 -3h57z" />
    <glyph glyph-name="afii10097" unicode="&#x44f;" horiz-adv-x="553" 
d="M6 0l155 167.998c-17.333 2.66699 -33.333 8 -48 16s-26.667 18.333 -36 31c-9.33301 11.333 -16.166 24.333 -20.499 39s-6.5 30.334 -6.5 47.001c0 26.667 4 50.834 12 72.501s21 41.167 39 58.5c16.667 16 37.167 28.5 61.5 37.5s54.166 13.5 89.499 13.5h282
l-59 -483h-175l19 154h-14l-117 -154h-182zM332 258.998l14.002 111.999h-58c-12.667 0 -22.834 -1 -30.501 -3s-14.167 -5.33301 -19.5 -10c-6.66699 -5.33301 -11.834 -12.166 -15.501 -20.499s-5.5 -17.833 -5.5 -28.5c-0.666992 -7.33301 0.333008 -14 3 -20
s7 -11.333 13 -16c5.33301 -5.33301 11.333 -9 18 -11s14.667 -3 24 -3h57z" />
    <glyph glyph-name="afii10059" unicode="&#x152;" horiz-adv-x="1100" 
d="M41 0l86.001 700h196l-34 -273h238l34 273h196l-34 -273h117c42.667 0 77.667 -4 105 -12s50 -19 68 -33c19.333 -16 34.666 -36.167 45.999 -60.5s17 -52.5 17 -84.5c0 -42.667 -9 -80.167 -27 -112.5s-42.667 -58.5 -74 -78.5
c-23.333 -15.333 -49.833 -26.833 -79.5 -34.5s-66.167 -11.5 -109.5 -11.5h-311l35 287h-238l-35 -287h-196zM688.001 140h78.0029c20 -0.666992 35.833 0.333008 47.5 3s22.167 6.66699 31.5 12c12 6.66699 20.833 15.5 26.5 26.5s8.5 23.833 8.5 38.5
c-0.666992 10.667 -2.83398 20.667 -6.50098 30s-9.16699 17 -16.5 23c-6.66699 4.66699 -15.334 8.16699 -26.001 10.5s-26.334 3.5 -47.001 3.5h-78z" />
    <glyph glyph-name="afii10059" unicode="&#x40a;" horiz-adv-x="1100" 
d="M41 0l86.001 700h196l-34 -273h238l34 273h196l-34 -273h117c42.667 0 77.667 -4 105 -12s50 -19 68 -33c19.333 -16 34.666 -36.167 45.999 -60.5s17 -52.5 17 -84.5c0 -42.667 -9 -80.167 -27 -112.5s-42.667 -58.5 -74 -78.5
c-23.333 -15.333 -49.833 -26.833 -79.5 -34.5s-66.167 -11.5 -109.5 -11.5h-311l35 287h-238l-35 -287h-196zM688.001 140h78.0029c20 -0.666992 35.833 0.333008 47.5 3s22.167 6.66699 31.5 12c12 6.66699 20.833 15.5 26.5 26.5s8.5 23.833 8.5 38.5
c-0.666992 10.667 -2.83398 20.667 -6.50098 30s-9.16699 17 -16.5 23c-6.66699 4.66699 -15.334 8.16699 -26.001 10.5s-26.334 3.5 -47.001 3.5h-78z" />
    <glyph glyph-name="afii10107" unicode="&#x153;" horiz-adv-x="872" 
d="M34 0l59.001 483.002h175l-19 -161h161l19 161h175l-19 -161h106c32 -0.666992 58.667 -6.16699 80 -16.5s38.333 -25.166 51 -44.499c7.33301 -12.667 12.833 -25.834 16.5 -39.501s5.5 -27.834 5.5 -42.501c0 -24 -3.83301 -46.333 -11.5 -67
s-19.5 -39.334 -35.5 -56.001c-17.333 -18 -38.333 -31.833 -63 -41.5s-52.334 -14.5 -83.001 -14.5h-281l25 202h-161l-25 -202h-175zM559.001 112.002l58 -0.000976562c8 0 16.167 1.33301 24.5 4s15.166 6.33398 20.499 11.001c4.66699 4 8.33398 9.33301 11.001 16
s4 13.667 4 21c0 5.33301 -1 10.833 -3 16.5s-4.33301 10.5 -7 14.5c-4 4.66699 -9.16699 8.16699 -15.5 10.5s-13.833 3.83301 -22.5 4.5h-58z" />
    <glyph glyph-name="afii10107" unicode="&#x45a;" horiz-adv-x="872" 
d="M34 0l59.001 483.002h175l-19 -161h161l19 161h175l-19 -161h106c32 -0.666992 58.667 -6.16699 80 -16.5s38.333 -25.166 51 -44.499c7.33301 -12.667 12.833 -25.834 16.5 -39.501s5.5 -27.834 5.5 -42.501c0 -24 -3.83301 -46.333 -11.5 -67
s-19.5 -39.334 -35.5 -56.001c-17.333 -18 -38.333 -31.833 -63 -41.5s-52.334 -14.5 -83.001 -14.5h-281l25 202h-161l-25 -202h-175zM559.001 112.002l58 -0.000976562c8 0 16.167 1.33301 24.5 4s15.166 6.33398 20.499 11.001c4.66699 4 8.33398 9.33301 11.001 16
s4 13.667 4 21c0 5.33301 -1 10.833 -3 16.5s-4.33301 10.5 -7 14.5c-4 4.66699 -9.16699 8.16699 -15.5 10.5s-13.833 3.83301 -22.5 4.5h-58z" />
    <glyph glyph-name="afii10058" unicode="&#x160;" horiz-adv-x="1078" 
d="M204 700l531.998 -0.00195312l-34 -273h117c42.667 -0.666992 77.667 -4.83398 105 -12.501s50 -18.5 68 -32.5c19.333 -16 34.5 -36.167 45.5 -60.5s16.833 -52.5 17.5 -84.5c0 -42.667 -9 -80.167 -27 -112.5s-42.667 -58.5 -74 -78.5
c-23.333 -15.333 -49.833 -26.833 -79.5 -34.5s-66.167 -11.5 -109.5 -11.5h-311l65 532h-140l-34 -276c-5.33301 -42 -11.5 -74.333 -18.5 -97s-16.833 -43.667 -29.5 -63c-22.667 -34.667 -52.667 -60.667 -90 -78s-86.666 -26.333 -147.999 -27
c-18.667 0 -33.667 0.833008 -45 2.5s-23.333 3.83398 -36 6.50098l21 168c7.33301 -2.66699 14.833 -4.5 22.5 -5.5s15.5 -1.5 23.5 -1.5c18.667 0 35.5 4.16699 50.5 12.5s26.833 19.833 35.5 34.5c4.66699 8.66699 9.33398 22.334 14.001 41.001
s8.66699 40.334 12 65.001zM666.998 139.998h78.002c20 -0.666992 35.833 0.333008 47.5 3s22.167 6.66699 31.5 12c12 6.66699 20.833 15.5 26.5 26.5s8.5 23.833 8.5 38.5c0 10.667 -2 20.667 -6 30s-9.66699 17 -17 23c-6.66699 4.66699 -15.334 8.16699 -26.001 10.5
s-26.334 3.5 -47.001 3.5h-78z" />
    <glyph glyph-name="afii10058" unicode="&#x409;" horiz-adv-x="1078" 
d="M204 700l531.998 -0.00195312l-34 -273h117c42.667 -0.666992 77.667 -4.83398 105 -12.501s50 -18.5 68 -32.5c19.333 -16 34.5 -36.167 45.5 -60.5s16.833 -52.5 17.5 -84.5c0 -42.667 -9 -80.167 -27 -112.5s-42.667 -58.5 -74 -78.5
c-23.333 -15.333 -49.833 -26.833 -79.5 -34.5s-66.167 -11.5 -109.5 -11.5h-311l65 532h-140l-34 -276c-5.33301 -42 -11.5 -74.333 -18.5 -97s-16.833 -43.667 -29.5 -63c-22.667 -34.667 -52.667 -60.667 -90 -78s-86.666 -26.333 -147.999 -27
c-18.667 0 -33.667 0.833008 -45 2.5s-23.333 3.83398 -36 6.50098l21 168c7.33301 -2.66699 14.833 -4.5 22.5 -5.5s15.5 -1.5 23.5 -1.5c18.667 0 35.5 4.16699 50.5 12.5s26.833 19.833 35.5 34.5c4.66699 8.66699 9.33398 22.334 14.001 41.001
s8.66699 40.334 12 65.001zM666.998 139.998h78.002c20 -0.666992 35.833 0.333008 47.5 3s22.167 6.66699 31.5 12c12 6.66699 20.833 15.5 26.5 26.5s8.5 23.833 8.5 38.5c0 10.667 -2 20.667 -6 30s-9.66699 17 -17 23c-6.66699 4.66699 -15.334 8.16699 -26.001 10.5
s-26.334 3.5 -47.001 3.5h-78z" />
    <glyph glyph-name="afii10106" unicode="&#x161;" horiz-adv-x="872" 
d="M604 483l-18.999 -161.001h106c32 -0.666992 58.667 -6.16699 80 -16.5s38.333 -25.166 51 -44.499c7.33301 -12.667 12.833 -25.834 16.5 -39.501s5.5 -27.834 5.5 -42.501c0 -24 -3.83301 -46.333 -11.5 -67s-19.5 -39.334 -35.5 -56.001
c-17.333 -18 -38.333 -31.833 -63 -41.5s-52.334 -14.5 -83.001 -14.5h-281l45 363h-112l-25 -202c-4 -32 -9.83301 -57.167 -17.5 -75.5s-18.167 -34.166 -31.5 -47.499c-16 -16 -35.5 -28.167 -58.5 -36.5s-51.833 -12.5 -86.5 -12.5
c-16.667 0.666992 -32.5 1.83398 -47.5 3.50098s-29.833 4.16699 -44.5 7.5l15 126c4.66699 -2 9.5 -3.33301 14.5 -4s10.167 -0.666992 15.5 0c12.667 0 23.5 1.83301 32.5 5.5s17.167 9.83398 24.5 18.501c4.66699 5.33301 8.66699 11.833 12 19.5s6.33301 21.5 9 41.5
l34 276h455zM559.001 111.999l58 -0.000976562c8 0 16.167 1.33301 24.5 4s15.166 6.33398 20.499 11.001c4.66699 4 8.33398 9.33301 11.001 16s4 13.667 4 21c0 5.33301 -1 10.833 -3 16.5s-4.33301 10.5 -7 14.5c-4 4.66699 -9.16699 8.16699 -15.5 10.5
s-13.833 3.83301 -22.5 4.5h-58z" />
    <glyph glyph-name="afii10106" unicode="&#x459;" horiz-adv-x="872" 
d="M604 483l-18.999 -161.001h106c32 -0.666992 58.667 -6.16699 80 -16.5s38.333 -25.166 51 -44.499c7.33301 -12.667 12.833 -25.834 16.5 -39.501s5.5 -27.834 5.5 -42.501c0 -24 -3.83301 -46.333 -11.5 -67s-19.5 -39.334 -35.5 -56.001
c-17.333 -18 -38.333 -31.833 -63 -41.5s-52.334 -14.5 -83.001 -14.5h-281l45 363h-112l-25 -202c-4 -32 -9.83301 -57.167 -17.5 -75.5s-18.167 -34.166 -31.5 -47.499c-16 -16 -35.5 -28.167 -58.5 -36.5s-51.833 -12.5 -86.5 -12.5
c-16.667 0.666992 -32.5 1.83398 -47.5 3.50098s-29.833 4.16699 -44.5 7.5l15 126c4.66699 -2 9.5 -3.33301 14.5 -4s10.167 -0.666992 15.5 0c12.667 0 23.5 1.83301 32.5 5.5s17.167 9.83398 24.5 18.501c4.66699 5.33301 8.66699 11.833 12 19.5s6.33301 21.5 9 41.5
l34 276h455zM559.001 111.999l58 -0.000976562c8 0 16.167 1.33301 24.5 4s15.166 6.33398 20.499 11.001c4.66699 4 8.33398 9.33301 11.001 16s4 13.667 4 21c0 5.33301 -1 10.833 -3 16.5s-4.33301 10.5 -7 14.5c-4 4.66699 -9.16699 8.16699 -15.5 10.5
s-13.833 3.83301 -22.5 4.5h-58z" />
    <glyph glyph-name="afii10193" unicode="&#x178;" horiz-adv-x="616" 
d="M597 483l-59 -483h-175l-21 -170h-154l21 170h-175l59 483h175l-44 -363h154l44 363h175z" />
    <glyph glyph-name="afii10193" unicode="&#x45f;" horiz-adv-x="616" 
d="M597 483l-59 -483h-175l-21 -170h-154l21 170h-175l59 483h175l-44 -363h154l44 363h175z" />
    <glyph glyph-name="afii10100" unicode="&#x192;" horiz-adv-x="399" 
d="M34 0l59 483h336l-15 -126h-161l-44 -357h-175zM180 539l128 161h224l-219 -161h-133z" />
    <glyph glyph-name="afii10100" unicode="&#x453;" horiz-adv-x="399" 
d="M34 0l59 483h336l-15 -126h-161l-44 -357h-175zM180 539l128 161h224l-219 -161h-133z" />
    <glyph glyph-name="circumflex" unicode="&#x2c6;" horiz-adv-x="520" 
d="M314 616l-101 -77h-133l163 161h162l123 -161h-133z" />
    <glyph glyph-name="tilde" unicode="&#x2dc;" horiz-adv-x="520" 
d="M170 553l-61.0029 49.002c6.66699 10.667 14.334 21.167 23.001 31.5s17.667 19.833 27 28.5c14 12 28.167 20.833 42.5 26.5s30.166 8.5 47.499 8.5c11.333 -0.666992 22 -2.33398 32 -5.00098s23 -8 39 -16l31 -17c7.33301 -4.66699 14.333 -7.83398 21 -9.50098
s13.334 -2.5 20.001 -2.5c12 0 23.833 3.33301 35.5 10s22.167 16.334 31.5 29.001l59 -56c-7.33301 -10 -15.5 -19.5 -24.5 -28.5s-17.833 -17.167 -26.5 -24.5c-16 -13.333 -31.667 -23 -47 -29s-32.666 -9 -51.999 -9c-12 0 -23.667 1.16699 -35 3.5s-22 6.5 -32 12.5
l-30 16c-11.333 5.33301 -20.666 9.16602 -27.999 11.499s-14.333 3.5 -21 3.5c-12 0 -22.5 -3 -31.5 -9s-15.833 -14 -20.5 -24z" />
    <glyph glyph-name="endash" unicode="&#x2013;" horiz-adv-x="624" 
d="M68 323h524l-13 -100h-524z" />
    <glyph glyph-name="emdash" unicode="&#x2014;" horiz-adv-x="854" 
d="M68 323h754l-13 -100h-754z" />
    <glyph glyph-name="quoteleft" unicode="&#x2018;" horiz-adv-x="336" 
d="M372 700l-143 -308h-175l185 308h133z" />
    <glyph glyph-name="quoteright" unicode="&#x2019;" horiz-adv-x="336" 
d="M54 392l143 308h175l-185 -308h-133z" />
    <glyph glyph-name="quotesinglbase" unicode="&#x201a;" horiz-adv-x="322" 
d="M-25 -140l143 308h175l-185 -308h-133z" />
    <glyph glyph-name="quotedblleft" unicode="&#x201c;" horiz-adv-x="567" 
d="M372 700l-143 -308h-175l185 308h133zM603 700l-143 -308h-175l185 308h133z" />
    <glyph glyph-name="quotedblright" unicode="&#x201d;" horiz-adv-x="567" 
d="M54 392l143 308h175l-185 -308h-133zM285 392l143 308h175l-185 -308h-133z" />
    <glyph glyph-name="quotedblbase" unicode="&#x201e;" horiz-adv-x="567" 
d="M-11 -140l143 308h175l-185 -308h-133zM220 -140l143 308h175l-185 -308h-133z" />
    <glyph glyph-name="dagger" unicode="&#x2020;" horiz-adv-x="588" 
d="M155 -210l69 560h-175l20 161h175l27 224h182l-27 -224h175l-20 -161h-175l-69 -560h-182z" />
    <glyph glyph-name="daggerdbl" unicode="&#x2021;" horiz-adv-x="589" 
d="M156 -210l27 224h-175l20 161h175l22 175h-175l20 161h175l27 224h182l-27 -224h175l-20 -161h-175l-22 -175h175l-20 -161h-175l-27 -224h-182z" />
    <glyph glyph-name="bullet" unicode="&#x2022;" horiz-adv-x="680" 
d="M379 530c48 0 86.999 -15.333 116.999 -46s45 -70 45 -118c0 -60.667 -20 -108.5 -60 -143.5s-86 -52.5 -138 -52.5c-48.667 0 -88 15.167 -118 45.5s-44.667 69.833 -44 118.5c0 60 19.833 107.667 59.5 143s85.834 53 138.501 53z" />
    <glyph glyph-name="bullet" unicode="&#xf000;" horiz-adv-x="680" 
d="M379 530c48 0 86.999 -15.333 116.999 -46s45 -70 45 -118c0 -60.667 -20 -108.5 -60 -143.5s-86 -52.5 -138 -52.5c-48.667 0 -88 15.167 -118 45.5s-44.667 69.833 -44 118.5c0 60 19.833 107.667 59.5 143s85.834 53 138.501 53z" />
    <glyph glyph-name="ellipsis" unicode="&#x2026;" horiz-adv-x="990" 
d="M161 186c28.667 0 51.332 -8.5 67.999 -25.5s25.334 -39.167 26.001 -66.5c0 -36 -10.833 -63.667 -32.5 -83s-47.5 -29 -77.5 -29c-29.333 0 -52.333 8.33301 -69 25s-25 39 -25 67c0 35.333 10.667 62.833 32 82.5s47.333 29.5 78 29.5zM490.998 186
c28.667 -0.666992 51.332 -9.33203 67.999 -25.999s25.334 -38.667 26.001 -66c0 -36 -10.833 -63.667 -32.5 -83s-47.5 -29 -77.5 -29c-29.333 0.666992 -52.333 9.16699 -69 25.5s-25 38.5 -25 66.5c0 35.333 10.667 62.666 32 81.999s47.333 29.333 78 30z
M820.996 186.002c28.667 -0.666992 51.499 -9.33301 68.499 -26s25.5 -38.667 25.5 -66c-0.666992 -36 -11.667 -63.667 -33 -83s-47 -29 -77 -29c-29.333 0 -52.333 8.33301 -69 25s-25 39 -25 67c-0.666992 35.333 9.83301 62.833 31.5 82.5s47.834 29.5 78.501 29.5z" />
    <glyph glyph-name="perthousand" unicode="&#x2030;" horiz-adv-x="1310" 
d="M144 -20l545 740h91l-545 -740h-91zM272 720c52.667 0 95.167 -16.5 127.5 -49.5s48.5 -75.833 48.5 -128.5c0 -58 -19.167 -106.833 -57.5 -146.5s-88.5 -59.5 -150.5 -59.5c-53.333 0 -96 16.333 -128 49s-48 75.667 -48 129c0 57.333 19 106 57 146s88.333 60 151 60z
M252 450c24.667 0 44.5 8.00098 59.5 24.001s22.5 36 22.5 60c0 21.333 -6.66699 38.666 -20 51.999s-31.333 20 -54 20c-25.333 -0.666992 -45.333 -9 -60 -25s-22 -35.667 -22 -59c0 -22 6.5 -39.5 19.5 -52.5s31.167 -19.5 54.5 -19.5zM684 364.001
c52 0 94.3311 -16.5 126.998 -49.5s49 -75.833 49 -128.5c0 -58 -19.167 -106.833 -57.5 -146.5s-88.5 -59.5 -150.5 -59.5c-53.333 0 -96.166 16.333 -128.499 49s-48.166 75.667 -47.499 129c0 57.333 19 106 57 146s88.333 60 151 60zM663.998 94.001
c24.667 0 44.5 7.99902 59.5 23.999s22.5 36 22.5 60c0 21.333 -6.66699 38.666 -20 51.999s-31.333 20 -54 20c-25.333 0 -45.333 -8.16699 -60 -24.5s-22 -36.166 -22 -59.499c0 -22 6.5 -39.667 19.5 -53s31.167 -19.666 54.5 -18.999zM1112 364
c52 -0.666992 94.332 -17.332 126.999 -49.999s49 -75.334 49 -128.001c-0.666992 -58 -20 -106.833 -58 -146.5s-88 -59.5 -150 -59.5c-53.333 0 -96.166 16.333 -128.499 49s-48.166 75.667 -47.499 129c-0.666992 57.333 18.166 106 56.499 146s88.833 60 151.5 60z
M1092 94.002c24.667 0 44.5 8 59.5 24s22.5 36 22.5 60c0 21.333 -6.66699 38.666 -20 51.999s-31.333 20 -54 20c-25.333 0 -45.333 -8.16699 -60 -24.5s-22 -36.166 -22 -59.499c0 -22 6.5 -39.5 19.5 -52.5s31.167 -19.5 54.5 -19.5z" />
    <glyph glyph-name="guilsinglleft" unicode="&#x2039;" horiz-adv-x="322" 
d="M37 252l198 231l89 -59l-147 -172l105 -172l-103 -59z" />
    <glyph glyph-name="guilsinglright" unicode="&#x203a;" horiz-adv-x="322" 
d="M303 252l-198 -231l-89 59l147 172l-105 172l103 59z" />
    <glyph glyph-name="trademark" unicode="&#x2122;" horiz-adv-x="840" 
d="M110 300v310h-90v90h300v-90h-90v-310h-120zM579 469l41 231h156l44 -400h-112l-23 272l-54 -272h-104l-54 272l-23 -272h-112l44 400h156z" />
    <glyph glyph-name="periodcentered" unicode="&#x2219;" horiz-adv-x="252" 
d="M146 375c28.667 0 51.5 -8.5 68.5 -25.5s25.5 -39.167 25.5 -66.5c0 -36 -10.833 -63.667 -32.5 -83s-47.5 -29 -77.5 -29c-29.333 0 -52.333 8.33301 -69 25s-25 39 -25 67c0 35.333 10.667 62.833 32 82.5s47.333 29.5 78 29.5z" />
    <glyph glyph-name="fi" unicode="&#xf001;" horiz-adv-x="630" 
d="M48 0l43.9961 357h-63l15 126h63l10 76c3.33301 26.667 9 49.334 17 68.001s20.667 36 38 52c23.333 22 53 38.667 89 50s79.667 17 131 17s93.666 -5.83301 126.999 -17.5s59.333 -28.167 78 -49.5c12 -14.667 20 -31.5 24 -50.5s4 -42.833 0 -71.5l-2 -14h-175l1 9
c1.33301 12 0.833008 21.667 -1.5 29s-6.16602 14 -11.499 20c-7.33301 6.66699 -15.5 11.5 -24.5 14.5s-19.5 4.5 -31.5 4.5c-15.333 0 -28.666 -2.83301 -39.999 -8.5s-20.666 -13.167 -27.999 -22.5c-5.33301 -7.33301 -9.66602 -15.833 -12.999 -25.5
s-5.66602 -20.834 -6.99902 -33.501l-6 -47h105l-15 -126h-105l-44 -357h-175zM435.996 483h175l-59 -483h-175z" />
    <glyph glyph-name="uniF002" unicode="&#xf002;" horiz-adv-x="630" 
d="M48 0l43.9951 356.998h-63l15 126h63l10 76c3.33301 26.667 9 49.334 17 68.001s20.667 36 38 52c23.333 22 53 38.667 89 50s79.667 17 131 17c52 0 94.667 -5.83301 128 -17.5s59 -28.167 77 -49.5c11.333 -14 19 -30 23 -48s4.33301 -42.667 1 -74l-69 -557h-175
l68 552c1.33301 12 0.833008 21.667 -1.5 29s-6.16602 14 -11.499 20c-7.33301 6.66699 -15.5 11.334 -24.5 14.001s-19.5 4.33398 -31.5 5.00098c-15.333 0 -28.666 -2.83301 -39.999 -8.5s-20.666 -13.167 -27.999 -22.5
c-5.33301 -7.33301 -9.66602 -15.833 -12.999 -25.5s-5.66602 -20.834 -6.99902 -33.501l-6 -47h105l-15 -126h-105l-44 -357h-175z" />
    <glyph glyph-name="glyph1" horiz-adv-x="0" 
 />
    <glyph glyph-name="glyph2" horiz-adv-x="330" 
 />
    <glyph glyph-name="sterling" horiz-adv-x="672" 
d="M174 0l-175 -0.00292969c6.66699 37.333 18.834 69.166 36.501 95.499s39.834 46.5 66.501 60.5c12.667 6.66699 26.167 11.5 40.5 14.5s28.833 4.5 43.5 4.5c4 8.66699 7.5 18.167 10.5 28.5s4.5 21.166 4.5 32.499c0 8.66699 -1.16699 17.667 -3.5 27
s-5.83301 19 -10.5 29h-138l12 100h98c-5.33301 11.333 -9.16602 23.833 -11.499 37.5s-3.5 27.834 -3.5 42.501c0 37.333 7.5 72.166 22.5 104.499s37.5 60.5 67.5 84.5c24 18.667 51.5 33.167 82.5 43.5s67.833 15.5 110.5 15.5c41.333 0 77.333 -4.66699 108 -14
s56.667 -23.333 78 -42c19.333 -18 34 -39 44 -63s15 -52.333 15 -85c0 -6 -0.166992 -11.667 -0.5 -17s-0.833008 -10.666 -1.5 -15.999h-181c0.666992 4 1.16699 8.16699 1.5 12.5s0.833008 8.83301 1.5 13.5c-0.666992 10.667 -2.33398 20.334 -5.00098 29.001
s-7 16.334 -13 23.001c-6 5.33301 -13.833 9.83301 -23.5 13.5s-20.5 5.5 -32.5 5.5c-13.333 0 -25.333 -2.33301 -36 -7s-20.334 -11 -29.001 -19c-10 -10 -17.333 -21.5 -22 -34.5s-6.66699 -29.167 -6 -48.5c0 -9.33301 -0.166992 -14 -0.5 -14s4.5 -21.667 14.5 -65h182
l-12 -100h-160v-20c-0.666992 -22 -3.66699 -42.5 -9 -61.5s-13 -36.5 -23 -52.5c30 -10 52 -16.667 66 -20s26 -5 36 -5c7.33301 0 14.166 1 20.499 3s12.5 5.66699 18.5 11c5.33301 4.66699 9.5 9.83398 12.5 15.501s4.83301 12.167 5.5 19.5h168
c-8 -27.333 -18.167 -53.333 -30.5 -78s-26.5 -46 -42.5 -64c-18.667 -21.333 -38.5 -36.666 -59.5 -45.999s-46.167 -14 -75.5 -14c-17.333 0 -34.5 1.66699 -51.5 5s-36.167 8.33301 -57.5 15c-52 16.667 -81 25.5 -87 26.5s-11.667 1.5 -17 1.5
c-11.333 0 -21.5 -2.5 -30.5 -7.5s-15.167 -11.833 -18.5 -20.5z" />
    <glyph glyph-name="NotEqual" horiz-adv-x="640" 
d="M70 390v100h275l51 130h100l-51 -130h165v-100h-204l-32 -80h236v-100h-275l-51 -130h-100l51 130h-165v100h204l32 80h-236z" />
    <glyph glyph-name="glyph144" horiz-adv-x="520" 
d="M196 746l146 150h224l-237 -150h-133z" />
    <glyph glyph-name="glyph147" horiz-adv-x="520" 
d="M180 539l128 161h224l-219 -161h-133z" />
    <glyph glyph-name="infinity" horiz-adv-x="735" 
d="M440 357c9.33301 -22 22.667 -39.833 40 -53.5s35.333 -20.5 54 -20.5c22 0 41.667 7.16699 59 21.5s26 33.833 26 58.5c0 20 -6.5 36.333 -19.5 49s-28.833 19 -47.5 19c-18 -0.666992 -37.167 -7.5 -57.5 -20.5s-38.5 -30.833 -54.5 -53.5zM338.001 357
c-10 21.333 -23.5 39 -40.5 53s-34.833 21 -53.5 21c-23.333 0 -43.333 -8.5 -60 -25.5s-25 -35.833 -25 -56.5c0 -18.667 6.16699 -34.5 18.5 -47.5s28.5 -19.167 48.5 -18.5c18 0 37.5 7.16699 58.5 21.5s38.833 31.833 53.5 52.5zM379.001 275
c-28.667 -31.333 -58.667 -54.5 -90 -69.5s-62 -22.5 -92 -22.5c-43.333 0 -79.333 13 -108 39s-43 62.667 -43 110c-0.666992 57.333 18.333 104.833 57 142.5s84.667 56.5 138 56.5c30.667 0 60 -8.16699 88 -24.5s51.333 -38.5 70 -66.5c25.333 28.667 53.833 51 85.5 67
s63.167 24 94.5 24c47.333 0 84.833 -14.667 112.5 -44s41.5 -65.333 41.5 -108c0 -50 -18.333 -95.167 -55 -135.5s-83.667 -60.5 -141 -60.5c-30 0 -58.667 7.5 -86 22.5s-51.333 38.167 -72 69.5z" />
    <glyph glyph-name="lessequal" horiz-adv-x="640" 
d="M116 478l476 222v-110l-344 -155l344 -155v-110l-476 222v86zM592 90v-110l-476 222v110z" />
    <glyph glyph-name="greaterequal" horiz-adv-x="640" 
d="M592 478v-86l-476 -222v110l344 155l-344 155v110zM116 90l476 222v-110l-476 -222v110z" />
    <glyph glyph-name="radical" horiz-adv-x="680" 
d="M252 500l112 -387l109 716h207v-100h-121l-129 -829h-130l-159 500h-141v100h252z" />
    <glyph glyph-name="florin" horiz-adv-x="620" 
d="M178 -63l77.002 440.002h-63l23 126h63l13 75c9.33301 56 32.666 98 69.999 126s86 42 146 42c9.33301 -0.666992 21.666 -1.83398 36.999 -3.50098s34 -4.16699 56 -7.5l-24 -128c-7.33301 3.33301 -15.5 6.16602 -24.5 8.49902s-16.5 3.83301 -22.5 4.5
c-19.333 0 -34.833 -6.5 -46.5 -19.5s-19.167 -31.167 -22.5 -54.5l-7 -43h105l-23 -126h-105l-83 -472c-10.667 -57.333 -35 -99.5 -73 -126.5s-85.333 -40.833 -142 -41.5c-11.333 0 -25.5 1 -42.5 3s-33.5 4.66699 -49.5 8l22 128
c6.66699 -3.33301 14.5 -6.33301 23.5 -9s16.833 -4 23.5 -4c18.667 0 33.667 6.33301 45 19s19.333 31 24 55z" />
    <glyph glyph-name="approxequal" horiz-adv-x="640" 
d="M546 538l64 -43.998c-18 -40 -42 -71.167 -72 -93.5s-63.333 -33.5 -100 -33.5c-14 0 -28.333 1.66699 -43 5s-39.667 12.666 -75 27.999c-25.333 10 -44.833 17.167 -58.5 21.5s-24.5 6.5 -32.5 6.5c-11.333 -0.666992 -22.5 -3 -33.5 -7s-20.833 -9.33301 -29.5 -16
c-6.66699 -5.33301 -12.834 -11.333 -18.501 -18s-10.167 -13.334 -13.5 -20.001l-64 44c7.33301 14 16.333 28.333 27 43s22 28 34 40c14.667 14 30.5 24.833 47.5 32.5s35.833 11.5 56.5 11.5c14.667 0 30.334 -2.33301 47.001 -7s39 -13 67 -25
c30 -13.333 51 -21.5 63 -24.5s24 -4.5 36 -4.5c20 0 37.833 4.5 53.5 13.5s30.5 24.833 44.5 47.5zM546 331.002l64 -43.999c-18 -40 -42 -71.167 -72 -93.5s-63.333 -33.5 -100 -33.5c-14 0 -28.333 1.66699 -43 5s-39.667 12.666 -75 27.999
c-25.333 10 -44.833 17.167 -58.5 21.5s-24.5 6.5 -32.5 6.5c-11.333 0 -22.5 -2.16699 -33.5 -6.5s-20.833 -9.83301 -29.5 -16.5c-6.66699 -5.33301 -12.834 -11.333 -18.501 -18s-10.167 -13.334 -13.5 -20.001l-64 44c7.33301 14 16.333 28.333 27 43s22 28 34 40
c14.667 14 30.5 24.833 47.5 32.5s35.833 11.5 56.5 11.5c14.667 0 30.334 -2.33301 47.001 -7s39 -13 67 -25c30 -13.333 51 -21.666 63 -24.999s24 -4.66602 36 -3.99902c20 -0.666992 37.833 3.66602 53.5 12.999s30.5 25.333 44.5 48z" />
    <glyph glyph-name="Delta" horiz-adv-x="722" 
d="M-29 0l335 700h238l163 -700h-736zM404 533l-160 -379h232z" />
    <glyph glyph-name="divide" horiz-adv-x="640" 
d="M260 550c0 21.333 7.83301 40 23.5 56s34.5 24 56.5 24c21.333 0 40 -8 56 -24s24 -34.667 24 -56c0 -22 -8 -40.833 -24 -56.5s-34.667 -23.5 -56 -23.5c-22 0 -40.833 7.83301 -56.5 23.5s-23.5 34.5 -23.5 56.5zM260 150c0 21.333 7.83301 40 23.5 56s34.5 24 56.5 24
c21.333 0 40 -8 56 -24s24 -34.667 24 -56c0 -22 -8 -40.833 -24 -56.5s-34.667 -23.5 -56 -23.5c-22 0 -40.833 7.83301 -56.5 23.5s-23.5 34.5 -23.5 56.5zM70 300v100h540v-100h-540z" />
    <glyph glyph-name="glyph188" horiz-adv-x="520" 
d="M446 892l106.001 -41.999c-11.333 -18.667 -24.5 -34.834 -39.5 -48.501s-31.5 -24.834 -49.5 -33.501c-20.667 -10.667 -42.334 -18.334 -65.001 -23.001s-45.667 -7 -69 -7c-26 0 -49.667 2.5 -71 7.5s-40.333 12.833 -57 23.5c-16 9.33301 -29.833 20.5 -41.5 33.5
s-20.834 28.833 -27.501 47.5l118 42c2 -10 5.5 -18.5 10.5 -25.5s12.167 -13.167 21.5 -18.5c7.33301 -5.33301 15.666 -9.16602 24.999 -11.499s20.333 -3.5 33 -3.5c11.333 0 22.333 1.16699 33 3.5s20.334 5.83301 29.001 10.5s16.834 10.834 24.501 18.501
s14.167 16.5 19.5 26.5z" />
    <glyph glyph-name="glyph191" horiz-adv-x="520" 
d="M313 546c-50.667 0 -92.666 10.167 -125.999 30.5s-55 47.5 -65 81.5l119 42c2 -20 9.5 -34.833 22.5 -44.5s30.833 -14.5 53.5 -14.5c21.333 0 39.666 4.66699 54.999 14s27 24.333 35 45l109 -42c-18 -35.333 -44.333 -62.833 -79 -82.5s-76 -29.5 -124 -29.5z" />
  </font>
</defs>
</svg>
