<svg id="Capa_1" enable-background="new 0 0 512 512" height="512" viewBox="0 0 512 512" fill="#fff5cb" width="512" xmlns="http://www.w3.org/2000/svg"><g>
<path d="m256 113.531c-78.558 0-142.469 63.911-142.469 142.469s63.911 142.469 142.469 142.469 142.469-63.911 142.469-142.469-63.911-142.469-142.469-142.469zm0 254.938c-62.016 0-112.469-50.453-112.469-112.469s50.453-112.469 112.469-112.469 112.469 50.453 112.469 112.469-50.453 112.469-112.469 112.469z"/><path d="m241 0h30v80.73h-30z"/><path d="m241 431.27h30v80.73h-30z"/><path d="m368.267 88.899h79.667v30h-79.667z" transform="matrix(.707 -.707 .707 .707 46.063 319.002)"/><path d="m64.064 393.102h79.668v30h-79.668z" transform="matrix(.707 -.707 .707 .707 -258.14 192.997)"/><path d="m431.27 241h80.73v30h-80.73z"/><path d="m0 241h80.73v30h-80.73z"/><path d="m88.899 64.065h30v79.668h-30z" transform="matrix(.707 -.707 .707 .707 -43.036 103.899)"/><path d="m393.101 368.268h30v79.667h-30z" transform="matrix(.707 -.707 .707 .707 -169.041 408.099)"/>
</g></svg>